<?xml version="1.0" encoding="utf-8"?>
<!-- Generator: Adobe Illustrator 28.0.0, SVG Export Plug-In . SVG Version: 6.00 Build 0)  -->
<svg version="1.1" id="Layer_1" xmlns="http://www.w3.org/2000/svg" xmlns:xlink="http://www.w3.org/1999/xlink" x="0px" y="0px"
	 viewBox="0 0 150 150" style="enable-background:new 0 0 150 150;" xml:space="preserve">
<style type="text/css">
	.st0{fill:#84B341;}
	.st1{fill:#FFFFFF;}
</style>
<g id="o5Ani2_00000140721136044410002200000012094344333333852315_">
	<g>
		<path class="st0" d="M71,10.3c2.8,0,5.6,0,8.4,0c0.1,0.2,0.3,0.1,0.5,0.2c2.5,0.2,5,0.5,7.5,1c14.5,3,26.6,10.1,36.2,21.3
			c8.4,9.8,13.3,21.2,15,34c0.1,1.1,0.1,2.2,0.4,3.2c0,3.4,0,6.8,0,10.2c-0.2,0.1-0.2,0.3-0.2,0.5c-0.8,8.5-2.9,16.7-7,24.2
			c-11.1,20.4-28.1,32-51.3,34.6c-0.7,0.1-1.5-0.1-2.2,0.3c-2.2,0-4.4,0-6.7,0c-0.8-0.3-1.6-0.2-2.4-0.3c-8.1-0.7-15.7-2.9-22.9-6.6
			c-13-6.7-22.7-16.7-29.1-29.9c-3.1-6.3-5-13-5.8-20c-0.1-1.1-0.1-2.3-0.4-3.4c0-3.1,0-6.1,0-9.2c0.2-0.1,0.1-0.3,0.2-0.5
			c0.2-2.5,0.5-4.9,1-7.4C15.3,47,23,34.3,35.2,24.3c9.4-7.6,20.1-12.1,32.1-13.6C68.5,10.6,69.8,10.6,71,10.3z"/>
	</g>
</g>
<path class="st1" d="M112.7,40.2c-0.1-0.7-0.3-2.6-2.7-2.8c-2.4-0.1-4.8-0.3-7.1-0.5l-2.9-0.2l-0.1,0c-8.3,0.2-15,1.2-21.1,3
	c-17.6,5.2-28.2,16.6-31.7,33.9c-1.5,7.6-1.6,15.8-0.2,25.2c0.2,1.1,0,1.6-0.7,2.3c-2.4,2.3-4.8,4.7-7.1,7l-1.5,1.5
	c-0.7,0.8-1,1.7-0.7,2.6c0.2,0.7,0.8,1.1,1.5,1.2c0.1,0,0.2,0,0.3,0c0.8,0,1.6-0.5,2.1-0.9c2.9-2.8,5.8-5.8,8.8-8.8
	c0.4-0.4,0.7-0.5,1.3-0.4c9.6,1.5,18.1,1.4,25.9-0.2c13.9-2.8,24.1-10.4,30.2-22.6c3.2-6.5,5.2-13.9,6-22.7
	C113.5,52.1,113.4,46.1,112.7,40.2z M56.9,96.4c0.5-0.5,0.9-1,1.4-1.5c0.9-1.1,1.8-2.1,2.8-2.5c1-0.4,2.3-0.3,3.7-0.2
	c0.6,0,1.3,0.1,1.9,0.1c2.8,0,5.5,0,8.3,0l5.3,0c0.1,0,0.2,0,0.3,0c0.4,0,0.9,0.1,1.4-0.2c0.4-0.3,1.4-1,1.4-2c0-0.9-0.9-1.7-1.4-2
	c-0.5-0.3-1.1-0.3-1.5-0.2c-0.1,0-0.2,0-0.3,0l-14.9,0l1.7-1.7c3.4-3.4,6.9-6.9,10.3-10.3c0.3-0.3,0.8-0.5,1.2-0.5
	c4.6,0,9.2,0,13.7,0l4.7,0c0.1,0,0.2,0,0.3,0c0.4,0,1,0.1,1.5-0.3c0.6-0.4,1.3-1.2,1.3-2c0.1-1-1.1-1.8-1.4-2
	c-0.5-0.3-1-0.2-1.4-0.2c-0.1,0-0.2,0-0.3,0l-14.8,0c4.8-4.8,9.5-9.6,14.3-14.3l2.8-2.8c1-1,1.1-2.3,0.2-3.2
	C99,50,98.4,49.9,98,49.9c0,0,0,0,0,0c-0.6,0-1.2,0.3-1.8,0.9c-1.5,1.5-3.1,3.1-4.6,4.6L79.2,67.8l0-12.2c0-0.1,0-0.2,0-0.3
	c0-0.5,0-1-0.2-1.6c-0.3-0.7-1.2-1.4-2-1.4c0,0,0,0,0,0c-0.9,0-1.7,0.8-2,1.3c-0.3,0.5-0.3,1.1-0.3,1.5c0,0.1,0,0.2,0,0.3l0,4.6
	c0,3.9,0,7.7,0,11.6c0,0.4-0.1,0.8-0.3,0.9c-3.6,3.6-7.2,7.3-10.8,10.8l-1.2,1.2l0-5.5c0-2.3,0-4.7,0-7c0-0.8-0.1-1.6-0.7-2.2
	c-0.4-0.4-0.9-0.6-1.6-0.6c-2.2,0-2.2,2.1-2.2,2.8l0,1.6c0,4.8,0,9.7,0,14.5c0,0.5-0.2,1-0.5,1.3c-1.9,2-3.8,3.9-5.7,5.8l-1,1
	c-0.1-1-0.2-2-0.3-2.9c-0.8-9.3-0.2-16.9,2-23.9c3.8-12,12.1-20.4,24.8-24.8c8.4-2.9,17.8-4,28.8-3.2c0.7,0,1.4,0.1,2.2,0.2l0.2,0
	c0,0.8,0.1,1.7,0.1,2.5c0.1,2.3,0.2,4.7,0.2,7.1c-0.1,9.1-1.5,17-4.4,24C99,88.6,88.8,96.6,74.2,99.1c-6.3,1-12.8,1-20,0
	C55.1,98.2,56,97.3,56.9,96.4z"/>
</svg>
