<?xml version="1.0" encoding="utf-8"?>
<!-- Generator: Adobe Illustrator 28.0.0, SVG Export Plug-In . SVG Version: 6.00 Build 0)  -->
<svg version="1.1" id="Layer_1" xmlns="http://www.w3.org/2000/svg" xmlns:xlink="http://www.w3.org/1999/xlink" x="0px" y="0px"
	 viewBox="0 0 150 150" style="enable-background:new 0 0 150 150;" xml:space="preserve">
<style type="text/css">
	.st0{fill:#FFFFFF;}
	.st1{fill:#84B341;}
	.st2{fill:#FFFFFF;stroke:#FFFFFF;stroke-width:4;stroke-miterlimit:10;}
	.st3{fill:#FFFFFF;stroke:#FFFFFF;stroke-miterlimit:10;}
</style>
<circle class="st0" cx="75" cy="75" r="74"/>
<g id="o5Ani2_00000140721136044410002200000012094344333333852315_">
	<g>
		<path class="st1" d="M71,10.3c2.8,0,5.6,0,8.4,0c0.1,0.2,0.3,0.1,0.5,0.2c2.5,0.2,5,0.5,7.5,1c14.5,3,26.6,10.1,36.2,21.3
			c8.4,9.8,13.3,21.2,15,34c0.1,1.1,0.1,2.2,0.4,3.2c0,3.4,0,6.8,0,10.2c-0.2,0.1-0.2,0.3-0.2,0.5c-0.8,8.5-2.9,16.7-7,24.2
			c-11.1,20.4-28.1,32-51.3,34.6c-0.7,0.1-1.5-0.1-2.2,0.3c-2.2,0-4.4,0-6.7,0c-0.8-0.3-1.6-0.2-2.4-0.3c-8.1-0.7-15.7-2.9-22.9-6.6
			c-13-6.7-22.7-16.7-29.1-29.9c-3.1-6.3-5-13-5.8-20c-0.1-1.1-0.1-2.3-0.4-3.4c0-3.1,0-6.1,0-9.2c0.2-0.1,0.1-0.3,0.2-0.5
			c0.2-2.5,0.5-4.9,1-7.4C15.3,47,23,34.3,35.2,24.3c9.4-7.6,20.1-12.1,32.1-13.6C68.5,10.6,69.8,10.6,71,10.3z"/>
	</g>
</g>
<g id="FQ2u5a.tif">
	<g>
		<path class="st2" d="M353.7-180.5c3.4,0.3,6.8,0.6,10.2,0.8c1.3,0.1,1.7,0.8,1.8,1.9c0.7,5.9,0.8,11.8,0.3,17.8
			c-0.7,8-2.5,15.7-6.1,22.9c-6.3,12.6-16.6,19.9-30.3,22.6c-8.7,1.7-17.4,1.5-26.2,0.2c-1-0.1-1.6,0.1-2.2,0.7c-3,3-6,6-9,9
			c-0.4,0.4-1.1,0.7-1.6,0.6c-1-0.1-1.1-1.3-0.2-2.2c2.9-2.9,5.8-5.9,8.8-8.7c1-1,1.2-1.9,1.1-3.3c-1.2-8.5-1.4-17,0.2-25.4
			c3.6-17.9,14.5-28.8,31.8-33.9C339.2-179.5,346.4-180.3,353.7-180.5z M304.3-116.8c7.6,1.2,15.7,1.3,23.1,0.1
			c15.2-2.5,26-10.6,31.8-25c3.3-8,4.5-16.4,4.6-24.9c0-3.5-0.2-7.1-0.3-10.7c-1.3-0.1-2.3-0.3-3.3-0.3c-10.2-0.7-20.2,0-29.9,3.4
			c-12.9,4.4-21.9,12.8-26,26c-2.6,8.1-2.9,16.4-2.1,24.9c0.1,1.6,0.3,3.2,0.5,5c0.4-0.3,0.5-0.4,0.7-0.6c2.6-2.6,5.2-5.1,7.7-7.8
			c0.5-0.5,0.8-1.4,0.8-2.1c0.1-5.5,0-11,0-16.5c0-0.9,0.1-1.8,1.2-1.8c1.2,0,1.3,0.9,1.3,1.8c0,3.1,0,6.2,0,9.3c0,1.9,0,3.8,0,6
			c0.5-0.5,0.8-0.8,1.1-1.1c4.2-4.2,8.4-8.4,12.6-12.6c0.6-0.6,0.9-1.2,0.9-2.1c0-5.5,0-11,0-16.5c0-0.4-0.1-1,0.1-1.3
			c0.2-0.4,0.8-0.8,1.2-0.8c0.4,0,0.9,0.5,1.1,0.9c0.2,0.4,0.1,0.9,0.1,1.4c0,4.5,0,9,0,13.6c0,0.4,0.1,0.7,0.1,1.2
			c0.4-0.4,0.6-0.6,0.8-0.8c4.1-4.1,8.1-8.1,12.2-12.2c2-2,4-4,6-6c0.6-0.6,1.3-0.8,2-0.2c0.6,0.6,0.4,1.3-0.2,1.9
			c-0.3,0.3-0.6,0.6-0.8,0.8c-5.8,5.8-11.5,11.5-17.3,17.3c-0.3,0.3-0.6,0.6-1,1.1c0.8,0,1.2,0,1.7,0c5.3,0,10.5,0,15.8,0
			c0.4,0,0.8-0.1,1,0c0.4,0.3,1.1,0.7,1.1,1.1c0,0.5-0.6,1-1,1.3c-0.3,0.2-0.9,0.1-1.3,0.1c-6.2,0-12.5,0-18.7,0
			c-0.7,0-1.5,0.3-1.9,0.8c-4.4,4.3-8.7,8.6-13,12.9c-0.3,0.3-0.6,0.6-1,1.1c6,0,11.8,0,17.6,0c0.4,0,1-0.1,1.3,0.1
			c0.4,0.3,1,0.8,1,1.2c0,0.4-0.6,0.9-1,1.1c-0.3,0.2-0.8,0.1-1.2,0.1c-4.7,0-9.5,0-14.2,0c-2,0-4.2-0.5-5.9,0.2
			c-1.7,0.7-3,2.7-4.5,4.1C307.5-119.9,306-118.4,304.3-116.8z"/>
	</g>
</g>
<g id="NhgQES_00000180350311922821616170000005758320000884951694_">
	<g>
		<path class="st0" d="M-294.5,290.5c-433.3,0-866.7,0-1300,0c0-433.3,0-866.7,0-1300c433.3,0,866.7,0,1300,0
			C-294.5-576.2-294.5-142.9-294.5,290.5z M-871.7-431.4c5.2,0.2,10.3,0.8,15.4,0.5c1.3-0.1,3.5-3.2,3.3-4.5
			c-0.3-1.7-2.5-3.9-4.2-4.4c-2.2-0.5-4.8,0.6-7.2,1c-2-0.5-4.1-1.1-6.1-1.4c-8.7-1.2-15.6-5.5-21-12.3c-6.1-7.8-8.7-17.1-10.2-26.7
			c-1.6-10.1,1.8-21.4-8-30.4c15.3-1.8,29.1-2.4,43,0.8c7.9,1.9,15.3,4.9,21.1,10.7c13.7,13.5,14.9,29.7,9.6,47.1
			c-0.8,2.6-0.8,5.4-1.2,8.1c-2.7-5.8-5.2-11.8-8.2-17.5c-6.5-12.3-15.4-22.4-27.6-29.4c-3-1.7-6.1-3.1-8.2,0.6
			c-2.1,3.6,0.2,5.8,3.3,7.5c2.2,1.2,4.2,2.6,6.2,4.1c13.6,10.4,21.3,24.8,25.9,40.8c3.3,11.6,4.9,23.7,7.1,35.6
			c0.6,3.2,1.9,5.6,5.3,5.3c3.1-0.3,4.4-2.6,4.2-5.7c-0.2-3-0.2-6-0.8-8.9c-2.3-10.8-4.7-21.6-7.1-32.4c3.4,1.4,7.1,3.1,9-1.9
			c11.3-29.3,1.6-62.7-33.4-72.3c-17.9-5-36-4-54-0.9c-2.5,0.4-6,2-6.6,3.9c-0.6,1.8,1.3,5.1,2.9,7.1c4.9,5.9,8.1,11.8,7.9,20.2
			c-0.4,15.1,3.7,29.4,13.5,41.4C-891.2-437.4-882.9-431.7-871.7-431.4z M-1420.8-239.4c5.9,4.8,11.9,9.5,17.7,14.3
			c1.4,1.2,3.3,2.9,3.4,4.4c0.4,7.2,0.2,14.5,0.2,22.5c-1.7-1.1-2.7-1.6-3.5-2.3c-6.8-5.1-13.5-10.2-20.3-15.4c-2.7-2.1-5.7-3-8-0.1
			c-2.5,3.2-0.6,5.7,2.4,7.9c8.7,6.4,17.2,13.1,26,19.5c2.5,1.8,3.6,3.8,3.6,7c-0.2,17,0,34-0.1,51c0,3.5,0.6,6.9,4.6,6.9
			c4.3,0,5-3.4,5-7.1c-0.1-15.3,0.3-30.7-0.2-46c-0.2-6.7,1.8-11.1,7.4-14.8c7.9-5.2,15.2-11.3,22.8-17c2.7-2,3.9-4.8,1.4-7.1
			c-1.4-1.2-4.6-0.8-6.9-0.4c-1.5,0.3-2.7,1.9-4,2.9c-6.6,5-13.2,9.9-20.5,15.4c0-3.3,0.4-5.9-0.1-8.2c-2.3-12.4,2.6-20.7,13.4-26.7
			c5.9-3.3,10.9-8.1,16.4-12.2c2.9-2.1,3.9-4.7,1.7-7.7c-2.2-3-5-1.9-7.4,0c-2.8,2.1-5.5,4.3-8.3,6.4c-5,3.7-10,7.4-15.4,11.5
			c-0.2-1.5-0.4-2.3-0.4-3.1c0-11.3,0-22.6-0.1-33.9c0-3.1-0.7-5.8-4.5-5.9c-3.6,0-4.9,2.2-4.8,5.6c0,3.3,0,6.7,0,10
			c0,8.9,0,17.8,0,27.9c-4.2-3.2-7.2-5.7-10.4-8c-1.6-1.1-3.6-1.6-5.4-2.4c-3.9-3.2-7.6-6.7-11.8-9.5c-0.7-0.5-3.8,1.3-4.5,2.6
			c-0.7,1.3-0.2,4.2,0.9,5.2C-1427.7-243.7-1424.1-241.7-1420.8-239.4z M-1365.4-294.8c3.9,8,6.7,16.2,6.9,25.2
			c0.1,4.5,4.2,6.2,7.8,3.3c3.4-2.7,6.4-5.7,10.1-9c6.8,15.1,7.3,29.6,0.7,44.4c-0.8,1.9-1.3,5.1-0.3,6.2c1.3,1.4,4.3,1.9,6.5,1.7
			c3.2-0.2,6.3-1.3,9.3-2.1c0.3,1.1,0.5,1.5,0.5,1.8c-0.2,2.7-0.3,5.3-0.7,8c-2.1,15.4-8.2,28.8-22.6,36.1
			c-7.2,3.7-15.6,5.1-23.6,7.1c-3.1,0.8-5.7,1.5-5.5,5c0.2,3.9,3.1,4.6,6.4,4.5c12.8-0.7,24.6-4.7,34.5-12.9
			c17.7-14.6,21.8-34.5,20.7-56.2c-0.2-3.3-2.6-4.5-5.7-4c-2.4,0.3-4.8,0.9-7.7,1.4c0.3-2,0.5-3.4,0.8-4.8
			c3.7-15.9,0.7-30.7-7.3-44.7c-2.6-4.6-5.2-5-9.2-1.6c-2.1,1.7-4.1,3.5-5.2,4.5c-3.6-6.8-7.1-13.3-10.5-19.7
			c-0.3-0.8-0.3-1.7-0.8-2.3c-8.2-11.1-19.3-18.1-32.3-22.3c-1.5-0.5-3.4-0.4-4.9,0.1c-20.4,7.1-35.1,19.8-41.1,41.3
			c-0.3,1.2-0.8,2.3-1.4,3.9c-2.2-2-4-3.7-5.9-5.4c-3.8-3.4-6.6-3-9.2,1.4c-6.7,11.5-10.1,23.8-8.7,37.2c0.4,4,1.2,8,1.9,12.5
			c-2.1-0.4-3.7-0.8-5.3-1.1c-6.3-1.3-8.4,0.3-8.4,6.7c0,4.7,0.2,9.3,0.9,13.9c3.3,23,14.3,40.2,37,48.3c5.6,2,11.6,2.7,17.5,3.7
			c3.1,0.5,6.3-0.1,6.6-4.1c0.3-3.9-2.3-5.1-5.7-5.3c-0.7,0-1.3-0.2-2-0.3c-17.1-1.6-30.3-9.4-38.7-24.6c-4.7-8.6-6.2-17.9-5.6-28.3
			c3.9,0.9,7.1,2,10.3,2.3c1.9,0.2,4.5-0.3,5.7-1.5c0.9-0.9,0.6-3.6,0.1-5.4c-1.1-3.8-3-7.4-3.9-11.3c-2.7-11.7-1.4-22.9,4.4-34.1
			c3.4,3,6.1,5.9,9.3,8.2c1.5,1.1,4.2,2,5.7,1.4c1.4-0.6,2.7-3.3,2.8-5.1c1.4-22.1,13.4-36.2,33.3-44.2c1.8-0.7,4.2-0.5,6.1,0.2
			C-1380.6-311-1372.4-303.7-1365.4-294.8z M-1390.5-433.5c0.1-0.9,0.5-1.9,0.4-2.8c-0.9-4.9,1.6-7.8,5.4-10.5
			c11.3-8,20.5-18,27.4-30c10-17.2,13.4-35.4,6.5-54.6c-8-22.3-23.2-39.3-40.8-54.5c-2.7-2.3-5.2-1.2-7.5,0.9
			c-14.8,12.7-27.5,27.1-36.1,44.7c-5.9,12-9.1,24.6-6.5,38.1c4.3,22.3,16.2,39.6,34.4,52.8c3,2.2,5.6,5.1,8.4,7.6
			c-0.2,13.9-0.5,27.8-0.4,41.6c0,1.4,3.3,4.3,4.5,4c1.9-0.5,4.5-3,4.6-4.6C-1390-411.6-1390.3-422.6-1390.5-433.5z M-509.5,158.6
			C-509.5,158.6-509.5,158.6-509.5,158.6c0,3.7,0.1,7.3,0,11c-0.1,3.4,0.3,6.7,4.6,6.8c4.4,0,4.7-3.3,4.7-6.7c0-7.5,0.1-15-0.1-22.5
			c-0.1-3.4,1.2-4.3,4.5-4.9c7.2-1.2,14.5-2.6,21.3-5.1c21-7.8,35-22,38.4-45c2.5-16.9-1.3-32.8-7.8-48.1
			c-12.5-29.5-32.2-53.9-54.5-76.3c-5.7-5.8-7.5-6-12.9,0.3c-12.7,14.7-25.8,29.2-37.1,45c-13.5,18.6-23.4,39.2-25.3,62.7
			c-1.9,23.4,5.5,42.6,26.2,55.4c10.4,6.4,21.8,9.7,33.8,11.1c3.4,0.4,4.7,1.4,4.5,4.8C-509.7,150.9-509.5,154.8-509.5,158.6z
			 M-835.4-808.8c-15.3-2.5-30.1-4.9-44.9-7.3c-5.4-0.9-8.2,1.8-6.8,7c0.9,3.7,2,7.4,3.4,11c4.7,12.8,11.2,24.4,22.8,33.7
			c-7.4-1.1-13.6-2.1-19.9-2.9c-5.5-0.7-7.8,1.8-6.2,7c1.8,6.2,3.7,12.4,6.3,18.4c8.2,18.7,21.1,32.1,42.5,34
			c8.7,0.8,17.5-0.2,26.7-0.4c0,11.3,0.1,23.3,0,35.2c0,3.4,1,6.4,4.6,6.4c3.7,0.1,4.7-2.8,4.7-6.3c-0.1-10.3,0-20.7,0-31
			c0-1.7,0.2-3.5,0.3-4.7c7.7,0.4,14.8,1.3,21.9,1.1c16.2-0.6,30.3-6.4,38.9-20.5c5.7-9.4,9.9-19.9,13.8-30.2c2.9-7.7,0.3-10-8-8.6
			c-5.4,0.9-10.9,1.6-17.5,2.6c14.8-12,21.5-27.4,26.1-44c1.7-6-0.9-8.7-7-7.6c-4.6,0.8-9.2,1.5-13.8,2.3
			c-10.2,1.7-20.5,3.3-30.5,4.9c0.7-5.1,2.2-10.4,1.8-15.6c-1.4-20-13.8-33.6-28.1-45.8c-1.2-1-4.9-0.7-6.1,0.4
			C-828.2-853.5-843.4-835.9-835.4-808.8z M-509.5-705.9c0,2.3,0,4.6,0,6.9c0,9,0,18,0.1,27c0,3.2,1.8,5.5,4.8,5
			c1.7-0.3,3.5-3,4.2-5c0.7-1.9,0.2-4.3,0.2-6.4c0-9.2,0-18.5,0-28.2c4.5,1.8,8.1,3.5,11.8,4.7c17.8,5.5,35.4,6.2,50.8-6.1
			c15.2-12.2,22.6-29.3,27.5-47.6c0.4-1.6-1.4-5.1-3-5.8c-16.7-7.7-34-12.6-52.7-9.7c-3.4,0.5-6.8,1.7-10.8,2.7
			c8-14.3,10.5-28.5,4.5-43.3c-6.2-15.3-16.6-27.5-29.1-38.1c-3-2.5-5.4-1.6-8,0.6c-9.6,8.4-18,17.8-24.3,28.9
			c-8.2,14.5-9.7,29.5-3,45c0.9,2.2,2,4.3,3.1,6.7c-4.5-1-8.4-2.2-12.3-2.8c-17.4-2.5-33.6,2.5-49.5,8.9c-4.5,1.8-5.9,4.9-4.1,9
			c4.5,10.5,8.2,21.5,14.3,31c11.9,18.6,27,27.1,52.5,23.1C-524.8-700.6-517.5-703.6-509.5-705.9z M-811.5,158.7c0,3.7,0,7.3,0,11
			c-0.1,3.4,0.3,6.7,4.7,6.6c4.4-0.1,4.6-3.5,4.6-6.8c0-7.7,0-15.3-0.1-23c0-2.6,0.7-3.8,3.6-4.2c5.4-0.7,10.9-1.6,16.1-3.1
			c24.3-7.2,40.9-21.9,44.6-48.1c2-14.5-0.9-28.5-6.1-42.1C-756.4,17-777.5-9-801.4-33c-4.8-4.8-6.3-4.7-11.2,0.1
			c-14.7,14.4-28,30-39.2,47.2c-12.1,18.6-21.7,38.1-24.2,60.6c-2.7,25.2,7.7,47.5,29.3,57.9c9.6,4.6,20.4,6.8,30.8,9.4
			c3.3,0.8,4.5,1.7,4.3,5C-811.7,151-811.5,154.9-811.5,158.7z M-1099.8,143.2c6-1.2,11.2-2,16.3-3.2c21.2-4.9,37.4-16.4,45.2-37.2
			c5.7-15.2,4.2-30.9-0.7-46.1c-11.4-35.7-34.2-63.9-60.2-90c-4.5-4.5-6.4-4.6-10.7,0.3c-11.9,13.5-24.1,26.7-34.9,41
			c-14.2,18.9-25.1,39.7-28.3,63.6c-3.8,28.1,6.5,52,34.2,63.6c9.2,3.9,19.3,5.8,30.2,9c0,7.7,0,16.6,0,25.6c0,2.9,0,6.1,4,6.2
			c3.9,0.1,4.8-2.8,4.8-6.1C-1099.8,161.2-1099.8,152.4-1099.8,143.2z M-802.7-156.4c9.1-2.2,17.4-3.5,25.2-6.3
			c25.3-9.1,39.5-27.6,40-54.8c0.3-16.2-4.7-31.2-11.6-45.5c-13-27-31.6-50-53-70.8c-3.9-3.8-5.8-3.7-9.8,0.1
			c-14.6,14.2-27.8,29.6-39.1,46.6c-12.6,19-22.6,39.1-25.1,62.3c-2.9,26.6,9.6,49.6,34.3,59.9c9.4,3.9,19.6,5.9,30.2,9
			c0,6.8,0,14.6,0,22.4c0,1.7-0.5,3.6,0.2,4.9c0.9,1.8,2.7,3.2,4.1,4.8c1.5-1.6,4.3-3.2,4.4-4.9
			C-802.4-138.2-802.7-147.6-802.7-156.4z M-459.6-237.7c-0.5-21-6.2-48.1-15-74.7c-1.4-4.2-3.6-5.7-8.3-4.3
			c-22.9,7-44.8,16.4-65.2,29c-18,11.2-34.3,24.3-44.6,43.4c-11.3,21.1-10.9,41.8,3.5,61.5c14.1,19.2,33,30.6,56.6,34
			c32,4.6,56-9.8,66.7-40.1C-461-202.4-459.4-216.4-459.6-237.7z M-1099.7-182.6c8.7,6.1,17,10,26.8,11.1
			c21.5,2.5,39.8-10.7,43.4-32c3-18.2-1.2-35.3-12-49.6c-18.4-24.4-38.2-47.8-57.5-71.5c-4.2-5.1-6.3-5-10.4-0.1
			c-19.2,23.6-38.6,47.1-57.3,71.1c-8.8,11.3-12.6,24.8-13,39.2c-0.9,31.1,23.2,49.8,53,40.8c6.1-1.8,11.6-5.4,18.2-8.5
			c0,3.5,0,6.8,0,10c-0.1,14.1-0.2,28.3-0.3,42.4c0,3.2,1,5.9,4.6,5.9c3.8,0,4.9-2.8,4.8-6.2c-0.1-4.7-0.1-9.3-0.1-14
			C-1099.7-156.5-1099.7-169.1-1099.7-182.6z M-1394.6-34.5c4.7,7.6,9.4,14.2,13.3,21.4c8.4,15.6,14.4,31.9,10.6,50.2
			c-0.3,1.5,1,4.3,2.2,4.8c1.6,0.6,4.1-0.1,5.9-0.9c9.7-4.6,19.1-9.9,29.1-13.9c9.3-3.7,19.4-4.6,30.4-4.7c-2.1,5-3.7,9.4-5.8,13.5
			c-10.4,20.6-26,36.4-44.9,49.4c-1.8,1.2-3.8,4-3.5,5.7c0.2,1.7,3.2,3.1,5.1,4.4c0.8,0.5,1.9,0.6,2.8,0.9
			c11.9,4.1,22,10.7,29.5,22.4c-2.5-0.3-4.1-0.4-5.6-0.8c-15.9-4.1-31.8-8.3-47.7-12.6c-3.2-0.9-5.8-0.8-7,2.5
			c-1.2,3.3,0.6,5.5,3.7,6.5c20.5,6.2,41,12.7,62.5,14.9c6.7,0.7,9-2.5,6.1-8.6c-6.2-12.9-15.7-22.6-28.5-29.1
			c-1.7-0.9-3.3-1.8-4.9-2.6c7-6.6,13.9-12.6,20.2-19.2c13.1-13.7,22.6-29.5,27.7-47.9c2-7.2,0.4-9.5-6.8-9.2
			c-6.4,0.2-12.9,0.8-19.2,1.6c-14.1,1.9-27.3,6.5-40.3,13.4c-0.5-4.4-0.7-8.4-1.3-12.3c-3.8-22.7-15.4-41.6-29.4-59.2
			c-2.8-3.6-6-3.7-8.5,0.2c-7,10.5-14.2,20.9-20.3,31.9c-6.7,12-9.8,25.2-10.3,39.3c-1.1-0.5-1.7-0.7-2.3-1
			c-17.7-9.4-36.7-13.6-56.6-14c-8-0.2-9.5,1.9-7.4,9.5c6.7,24.1,21,43.1,39.6,59.3c2.8,2.4,5.7,4.8,8.8,7.5c-1.8,0.9-3.1,1.4-4.2,2
			c-13.4,6.7-23.7,16.4-29.9,30.3c-2.5,5.7-0.4,8.7,5.8,8.1c3.6-0.3,7.4-0.6,10.9-1.5c16.9-4.3,33.7-8.8,50.6-13.1
			c3.3-0.9,6.2-1.9,5.1-6.3c-1.1-4.5-4.2-3.9-7.5-2.9c-7.3,2.2-14.6,4.6-21.9,6.5c-9.9,2.6-19.9,4.8-30.5,7.3
			c0.4-1.5,0.5-2.1,0.7-2.4c0.7-1.1,1.5-2.2,2.4-3.2c7.5-8.9,17.1-14.6,28.1-18.2c2.2-0.7,5.7-2.8,5.7-4.2c-0.1-2.2-2.2-5-4.2-6.4
			c-16.1-11.4-30.1-24.8-40.2-41.8c-3.7-6.3-6.4-13.2-10-20.7c13.7,0.1,25.5,2.1,36.6,6.6c7.9,3.3,15.2,8,22.9,11.9
			c1.9,0.9,4.9,1.7,6.3,0.9c1.3-0.8,1.7-3.9,1.8-6c0.1-2.6-0.7-5.3-0.7-7.9C-1420.2,4-1408.3-14.9-1394.6-34.5z M-1030.9-828.2
			c-1.8,1.9-2.7,3-3.8,4c-10,10.1-16.6,22-18.9,36.1c-1.6,10-2.7,20.1-4,30.2c-2,15.2-8.6,27.6-22.8,34c-9.2,4.1-19,7.1-28.8,9.2
			c-13.2,2.8-26.5,1.7-39.1-4c-2.9-1.3-5.8-0.9-6.5,2.2c-0.4,1.8,0.9,4.6,2.4,6.1c1.5,1.5,4.1,2.2,6.3,2.8c25.4,7.5,49.5,3.1,72.3-9
			c13.8-7.3,21.8-19.3,24.5-34.6c1.5-8.7,2.8-17.4,3.6-26.2c1.8-19.9,10.3-35.9,26.6-47.6c1.5-1.1,3.3-3.7,3-5.1
			c-0.4-1.8-2.7-3.8-4.6-4.4c-8.7-2.7-17.5-5.5-26.4-7.4c-30-6.4-60.1-7.4-89.9,1.3c-16.3,4.8-31,12.3-41.2,26.5
			c-16,22.4-16.8,47.3-11.4,73.2c0.6,3,2.5,4.9,5.7,4.2c3.2-0.7,3.9-3.2,3.5-6.2c-0.9-6.1-2.2-12.2-2.5-18.3
			c-1.4-33.7,11.9-58.3,44.1-68.8C-1103.1-841.7-1067.4-838-1030.9-828.2z M-1394.9-872.3c4.4,4.7,8.3,8.8,12.1,13
			c16.6,18.6,31.2,38.5,40.8,61.8c5,12.1,7.9,24.6,7,37.9c-1.6,22.7-13.7,37.9-33.6,47.6c-3.2,1.5-5.1,3.7-3.5,7
			c1.5,3.1,4.4,3,7.3,1.6c16.6-7.9,29.3-19.5,35.5-37.3c7.1-20.6,4.2-40.7-3.8-60.3c-12.7-31.1-33.6-56.5-57.1-79.9
			c-3.7-3.7-6.6-2.4-9.8,0.7c-20.7,20.5-39,42.9-51.9,69.2c-8.8,18-14.5,36.8-11.5,57.3c3.6,24.2,17.5,40.3,39.1,50.5
			c2.7,1.3,5.3,1,6.8-2c1.5-3,0-5.1-2.7-6.5c-1.6-0.9-3.3-1.6-4.9-2.5c-10.1-5.7-18.3-13.2-23.6-23.7c-8.1-16.2-7.6-32.9-2.5-49.6
			c7.2-23.7,20.8-43.7,36.4-62.6C-1408.5-857.5-1401.8-864.6-1394.9-872.3z M-705.2-565.9c-0.9,1.5-1.5,2.5-2.1,3.4
			c-4.1,6.8-9.1,13.6-7.9,22.1c1.7,12.7-0.2,24.9-3.5,37c-4.5,16.5-13.1,30.2-29.5,37.6c-8.9,4-18.3,4.8-27.9,4.3
			c-3.3-0.2-5.7,1-6,4.5c-0.2,3.2,1.9,4.7,5,4.9c21.2,1.5,39.8-3.9,53.4-21c15.2-19,18.7-41.4,18-64.9c-0.1-4.9,1.3-10.1,3.3-14.6
			c1.8-4.1,5.6-7.4,8.2-11.3c1.4-2,3.2-5,2.6-6.8c-0.6-1.8-3.9-3.4-6.2-3.6c-10.2-1-20.5-1.7-30.8-2.2c-19-1-37.4,1.7-55.1,9.2
			c-15.4,6.5-27,16.9-34.2,31.9c-10.5,22-8.3,43.9,0.4,65.8c1.2,3.1,3.6,4,6.5,2.9c3.1-1.2,3.2-3.8,2.3-6.7
			c-1.9-6.2-4.2-12.3-5.4-18.6c-5.4-28.7,7.3-56.5,36.3-67.7c19.8-7.6,40.3-8.2,61-7.7C-713.1-567.3-709.4-566.5-705.2-565.9z
			 M-452-559.9c-1.3,1.9-2.1,2.9-2.8,4c-4.2,6.8-8,13.7-7.8,22.2c0.2,8.6,0.1,17.3-1,25.8c-1.4,11.1-5.1,21.7-11.6,31
			c-11.5,16.6-27.9,22.3-47.2,21.3c-3.4-0.2-6.3,0.6-6.7,4.3c-0.4,3.8,2.4,5.1,5.8,5.3c23.7,0.9,43.6-6.2,56.9-27.1
			c11.4-17.9,14.5-37.7,13.6-58.3c-0.3-6.6,1.2-12.1,4.7-17.3c2.4-3.4,5.2-6.5,7.4-10c1.2-1.8,2.8-4.6,2.1-6
			c-0.8-1.7-3.6-3.3-5.7-3.6c-20.7-3.2-41.4-3.8-62.1-0.3c-18.8,3.2-36.2,9.6-48.9,24.6c-20.4,24.2-20.3,51.2-9.7,79.3
			c1.2,3.2,3.2,5.4,6.7,3.9c3.6-1.5,2.9-4.4,2-7.6c-2.2-7.8-4.6-15.6-5.7-23.6c-3.5-26.8,10.2-50.5,35.1-61
			c19.3-8.1,39.7-9.3,60.3-8.2C-461.9-560.8-457.3-560.3-452-559.9z M-1053.4-567c-1.3,2.3-2.1,3.6-2.8,4.8
			c-3.6,6.5-7.3,13.2-5.9,20.7c2.2,12.5,2.1,24.9-0.4,37.2c-3.7,18-11.4,33.8-29.4,41.2c-7.8,3.2-16.7,3.9-25.2,5.4
			c-3,0.5-5.2,1.4-5.3,4.7c-0.1,3.4,2.2,4.6,5.2,4.7c2.7,0,5.3-0.1,8-0.3c21.6-2.1,38.2-12.1,48.3-31.6c9.5-18.4,10.8-38.1,9-58.4
			c-0.4-4.9,0.5-10.3,2.2-14.9c1.7-4.6,4.9-8.6,7.8-12.7c4.1-5.8,3-9-4-9.6c-25.4-2.2-50.5-0.3-74.8,8
			c-11.8,4.1-22.2,10.4-30.8,19.7c-22.9,24.7-19.9,59.5-7.4,84.9c1.4,2.8,3.5,4.6,6.8,2.8c3.3-1.8,2.8-4.4,1.5-7.3
			c-4.7-10-8.1-20.4-8.6-31.5c-0.7-16.5,3.7-31.2,15.3-43.3c9.1-9.6,20.5-15,32.9-18.8C-1092.5-566.9-1073.5-567.3-1053.4-567z
			 M-1399.5-748.9c-6.8-5.8-12.7-10.7-18.5-15.8c-2.7-2.3-5.5-3.6-8.2-0.6c-2.8,3.1-0.6,5.5,1.8,7.6c6.7,5.7,13.3,11.6,20.2,17.1
			c3.4,2.7,4.9,5.6,4.8,10.1c-0.3,18.7-0.1,37.3-0.1,56c0,1.3-0.4,3,0.2,3.9c1.2,1.6,3,3.6,4.5,3.6c1.5,0,3.5-2.1,4.3-3.8
			c0.8-1.7,0.4-3.9,0.4-5.9c0-17,0.3-34-0.1-51c-0.2-6.4,1.5-10.8,6.8-14.7c6.7-4.9,13-10.5,19-16.2c1.3-1.3,0.7-4.6,1-7
			c-2.3-0.1-4.6-0.5-6.8-0.1c-1.1,0.2-2,1.6-3.1,2.5c-5.3,4.5-10.6,9-16.7,14.2c0-9.7,0.4-18.3-0.1-26.9c-0.3-5.5,1.7-8.9,5.9-12.1
			c6.7-5.2,13-10.9,19.5-16.4c2.5-2.1,3.5-4.8,1.3-7.4c-2.2-2.7-5-2.1-7.5,0c-1.4,1.2-2.7,2.4-4.1,3.6c-4.7,4-9.4,7.9-15,12.6
			c0-12.6,0-23.9,0-35.2c0-3.1-0.8-5.8-4.6-5.9c-4,0-4.9,2.7-4.8,6.1c0.1,5,0.1,10,0.1,15c0,6.3,0,12.7,0,20.1
			c-7-6-13.1-11-18.9-16.1c-2.5-2.1-5-3.1-7.5-0.6c-3.1,3.1-1.2,5.7,1.4,8c7.5,6.4,15,12.7,22.4,19.2c1.1,1,2.4,2.6,2.4,3.9
			C-1399.4-770.7-1399.5-760.4-1399.5-748.9z M-1390.1,72.2c0-2.8,0-4.5,0-6.3c0-13.8,0-27.7,0.1-41.5c0-3.5-0.6-6.8-4.8-6.8
			c-4.1,0-4.8,3.2-4.8,6.7c0.1,14,0,28,0,42c0,1.7-0.1,3.4-0.3,5.8c-11-6.1-21.2-11.8-31.3-17.4c-2.7-1.5-5.4-1.6-7,1.2
			c-1.6,2.9-0.7,5.4,2.4,7c2.7,1.4,5.2,2.9,7.8,4.4c7.6,4.3,15.3,8.6,23.4,13.2c-6.3,3.8-11.8,7.1-17.3,10.6c-3.4,2.1-4,6.5-1,8
			c1.6,0.8,4.3,0.5,5.9-0.3c5.7-2.9,11.1-6.3,17-9.8c0.1,2.2,0.2,3.5,0.2,4.8c0,24.8,0,49.6,0,74.4c0,1.7-0.3,3.6,0.4,4.9
			c0.7,1.4,2.6,3.1,3.9,3.1c1.6,0,3.7-1.4,4.6-2.8c0.9-1.4,0.7-3.5,0.7-5.3c0-19.8,0-39.7,0-59.5c0-6.4,0-12.8,0-19.7
			c5.6,3.3,10.7,6.2,15.8,9.4c3.1,1.9,6.3,3.4,8.6-0.5c2.3-4-1-5.9-4-7.7c-5-3-10-6.1-15.7-9.5c4.6-2.7,8.5-4.9,12.3-7.1
			c6.4-3.6,12.8-7.1,19.2-10.7c2.7-1.5,3.8-3.8,2.2-6.7c-1.7-2.9-4.2-2.8-6.9-1.5c-1.5,0.7-2.9,1.6-4.4,2.4
			C-1371.5,61.9-1380.4,66.8-1390.1,72.2z M-1132.6-774.5c2-1.9,3.1-3.1,4.3-4.1c16.4-14,35-24.1,55.1-31.6c3.2-1.2,6.2-2.6,4.7-6.7
			c-1.5-4.1-4.8-3.3-7.9-2c-8.6,3.6-17.1,7.1-26.4,11c1-5.8,1.9-11.3,2.9-16.8c0.6-3.4,0.6-6.7-3.6-7.4c-4.2-0.7-5.2,2.5-5.8,5.9
			c-1.2,7.1-2.1,14.2-3.7,21.1c-0.5,2.3-2.2,4.7-4,6.2c-8.4,7.1-17.1,13.8-25.5,20.8c-4.3,3.6-8.2,7.5-12.4,11.4
			c-0.6-9.2-1.2-18.8-1.8-28.4c-0.2-3.2-1.4-5.6-5.1-5.5c-3.7,0.2-4.6,2.8-4.4,5.9c0.7,11.6,1.3,23.3,2.3,34.9
			c0.4,4.4-0.3,8-2.7,11.7c-11,17.5-18.4,36.5-21.5,57c-0.5,3.3-0.1,6.4,3.6,7.1c3.7,0.7,5.2-1.9,5.7-5.3
			c3.9-26.7,15.2-50.1,32.2-70.9c2.3-2.9,4.9-4,8.4-4.3c12.1-1,24.2-2.1,36.3-3.4c3.6-0.4,8.3-0.4,7.7-5.6c-0.6-5.3-5.2-4.1-8.7-3.8
			C-1112.3-776.6-1121.8-775.6-1132.6-774.5z M-524.3-514.4c-0.5-3-0.9-6.4-1.5-9.8c-0.5-3-2-5.1-5.3-4.7c-3.5,0.4-4.6,2.9-4.1,6.2
			c0.8,5.3,1.9,10.5,2.3,15.8c0.2,2.9,0,6.5-1.4,8.9c-16.8,29.6-24.7,61.6-26.4,95.3c-0.2,3.6,0.6,6.8,4.6,6.9
			c4,0.1,4.8-3.1,4.9-6.7c0.8-20.9,4.8-41.3,11.5-61.1c1.3-3.8,3.2-5.5,7.2-6.1c11.2-1.7,22.3-3.9,33.4-5.9c3.3-0.6,5.9-2.2,5.1-6
			c-0.8-3.5-3.6-4.4-7.1-3.4c-2.1,0.6-4.2,0.8-6.4,1.2c-8.3,1.5-16.6,3-24.9,4.5c-0.4-0.4-0.9-0.9-1.3-1.3
			c6-9.1,11.9-18.2,18.1-27.2c0.7-1,2.6-1.4,4-1.7c9.3-1.7,18.7-3.2,28-5.3c1.7-0.4,3.7-3.3,3.9-5.2c0.3-2.9-2.3-4.2-5.2-3.9
			c-1.6,0.2-3.3,0.6-4.9,0.8c-3.9,0.7-7.9,1.3-11.8,2c-0.2-0.5-0.4-1-0.6-1.6c6.5-4.2,13-8.4,19.6-12.5c2.9-1.8,4.1-4,2.6-7
			c-1.5-3-4.1-3-6.8-1.5c-3.3,1.9-6.9,3.5-9.8,5.9C-506-530.2-515-522.3-524.3-514.4z M-1180.4-17.6c2.3,1.1,3.9,1.7,5.3,2.5
			c7.5,4.3,15,8.6,22.5,13c2.9,1.7,5.8,2.5,7.8-0.9c1.7-2.9,0.5-5.4-2.5-7.1c-10.5-5.8-20.9-11.6-31.4-17.4
			c-3.7-2.1-6.3-0.9-8.1,2.7c-11.2,21.7-20.4,44.1-25.3,68c-4.8,23.5-7.3,46.8,3.4,69.8c5.3,11.4,12.7,20.1,23.4,26
			c10.1,5.5,21.3,7.3,32.8,7.1c3.2,0,6.3-0.7,6.3-4.8c0-4.3-3.1-4.9-6.6-4.8c-2.5,0.1-5,0.1-7.5-0.2c-17.6-1.7-31.9-9.1-39.2-25.8
			c-3.6-8.2-6-17.4-6.7-26.3c-2-24.9,4.5-48.5,13.2-71.5C-1189.3,2.7-1184.7-7.3-1180.4-17.6z M-1028.2-18.3
			c5.3,13.2,10.7,25.4,15.2,37.9c7.8,22.2,13.3,45,10.6,68.8c-1.9,16.7-7.8,31.3-22.7,40.8c-9.5,6-20.1,7.7-31.1,7.5
			c-3.2-0.1-5.9,0.9-6.1,4.4c-0.2,3.8,2.5,5,6,5.1c13.2,0.2,26-2,37.2-9.5c17.9-11.9,25.2-29.9,26.4-50.3
			c2.5-40.4-11.5-76.8-29.5-112c-1.7-3.3-4.4-3.7-7.6-1.9c-10.3,5.7-20.7,11.3-31,17.1c-2.8,1.6-5.1,3.8-3,7.3
			c2.2,3.6,5.1,2.6,8.1,0.8C-1046.9-7.5-1038.1-12.5-1028.2-18.3z M-419.1-266c0.1,2.1,0.3,3.2,0.2,4.3c-1.8,17.2-2.9,34.5-5.7,51.5
			c-3.2,19.3-9.3,37.8-21.2,53.8c-10.1,13.5-22.5,23.1-40.3,23.2c-10.1,0.1-19.3-3.2-28-7.9c-2.8-1.5-5.4-1.3-6.9,1.4
			c-1.6,2.7-0.6,5.2,2.1,6.8c20.4,11.3,43,13.7,63.6-0.6c13.5-9.3,22.1-22.6,28.5-37.1c13.5-30.9,17.5-63.6,17.3-97
			c0-6.3-1.3-7.6-7.7-7.5c-11,0.2-22,0.9-32.9,1.4c-3.4,0.1-6.6,0.7-6.4,5.1c0.3,4.6,3.7,4.3,7,4.1
			C-439.6-265-429.6-265.5-419.1-266z M-813.4-411.9c0,0.1,0,1,0,1.8c-0.1,3.5-0.6,7.7,4.4,7.9c5.1,0.3,4.6-4,5.1-7.4
			c2.4-15.7,4.2-31.6,7.6-47.1c3.4-15.6,9.9-30.3,19-43.5c7.2-10.4,16-19.1,26.7-25.8c2.7-1.7,4-4.2,2-6.5c-1.1-1.3-4.2-1.3-6.4-1.2
			c-1.3,0.1-2.6,1.4-3.8,2.2c-14.1,8.8-24.2,21.2-32.2,35.4C-805.3-470.3-811.1-441.9-813.4-411.9z M-1150.5-413.9
			c0,3.7,0.1,7.3,0,11c-0.1,3.7,0.7,7.1,5.1,7c4.2-0.2,4.4-3.7,4.3-7.1c-0.6-18.7,1.2-37.2,5.6-55.4c6.3-25.9,16.7-49.4,39.6-65.4
			c2.7-1.9,3.7-4.5,1.5-7.3c-2.2-2.7-4.9-2-7.5-0.2c-12,8.5-21.4,19.4-28.4,32.3C-1144.9-472.4-1149.6-443.6-1150.5-413.9z"/>
		<path d="M-509.5,158.6c0-3.8-0.2-7.7,0.1-11.5c0.2-3.4-1.1-4.4-4.5-4.8c-12-1.4-23.5-4.7-33.8-11.1c-20.7-12.8-28.1-32-26.2-55.4
			c1.9-23.5,11.8-44.1,25.3-62.7c11.4-15.7,24.4-30.3,37.1-45c5.5-6.3,7.2-6.1,12.9-0.3c22.4,22.4,42.1,46.8,54.5,76.3
			c6.5,15.3,10.4,31.2,7.8,48.1c-3.5,23-17.4,37.2-38.4,45c-6.8,2.5-14.1,3.8-21.3,5.1c-3.3,0.6-4.6,1.4-4.5,4.9
			c0.2,7.5,0.1,15,0.1,22.5c0,3.4-0.3,6.8-4.7,6.7c-4.3,0-4.7-3.3-4.6-6.8C-509.5,165.9-509.5,162.3-509.5,158.6
			C-509.5,158.6-509.5,158.6-509.5,158.6z M-500.3,115.1c1,0,1.4,0.2,1.6,0.1c17.1-11.6,34.3-23.3,51.3-35.1c1.1-0.8,2.1-2.7,1.9-4
			c-1-6.8-2.4-13.5-3.6-20.5c-1.5,0.5-2,0.5-2.4,0.8c-15.6,11.3-31.3,22.5-46.8,33.9c-1.1,0.8-1.9,2.7-1.9,4.2
			C-500.5,101.2-500.3,108-500.3,115.1z M-509.5,116.1c0-7.1-0.3-12.9,0.1-18.7c0.3-4.3-1-7.1-4.8-9.4c-4.4-2.7-8.4-6-12.6-9
			c-10.9-7.8-21.8-15.7-33.5-24.1c-1.5,7-2.7,13.1-4.1,19.2c-0.7,3.2,0.4,5.2,3.2,7c10.4,6.9,20.7,14,31,21
			C-523.7,106.6-517.1,111.1-509.5,116.1z M-462.7,27.9c-1,0.3-1.5,0.3-1.9,0.6c-11.2,8.1-22.4,16.1-33.6,24.3c-1,0.7-2,2.1-2,3.1
			c-0.2,7.6-0.1,15.2-0.1,23.9c16.2-11.7,31.4-22.7,46.9-33.9C-456.6,39.5-459.7,33.7-462.7,27.9z M-509.5,79.8
			c0-8.4,0.1-15.9-0.1-23.3c-0.1-1.4-1.5-3.2-2.8-4.2c-6.7-5.1-13.6-10-20.5-15c-4.5-3.3-9.1-6.5-14.1-10
			c-3.3,6.6-6.4,12.6-9.4,18.6C-540.6,57.3-525.5,68.3-509.5,79.8z M-445.8,90.5c-18,12.3-35.3,24-52.4,35.9
			c-1.5,1.1-1.7,4.1-2.7,6.8C-469.3,130.7-448.8,114.7-445.8,90.5z M-510,133c1.3-3.8-0.1-5.8-3-7.7c-9.2-6.1-18.1-12.4-27.2-18.6
			c-7.6-5.2-15.4-10.3-23.4-15.7C-562.2,114.9-538,131.4-510,133z M-500.3,42.5c11.4-8.2,21.6-15.6,32.2-23.2
			c-4-5.4-7.6-10.5-11.4-15.6c-6.6,4.7-12.7,9.1-18.6,13.6c-1.1,0.8-2.1,2.3-2.2,3.6C-500.4,27.6-500.3,34.4-500.3,42.5z
			 M-541.7,19.3c10.7,7.7,21.1,15.1,32.2,23.1c0-7.9,0-14.6,0-21.2c0-1.1-0.3-2.6-1-3.1c-6.4-4.8-13-9.5-19.8-14.5
			C-534.4,9.1-537.9,14.1-541.7,19.3z M-500.1,6.8c5.4-3.9,9.9-7.2,14.8-10.7c-4.8-5.4-9.4-10.4-14.8-16.4
			C-500.1-10.5-500.1-2.4-500.1,6.8z M-509.6-18.7c-0.3-0.2-0.7-0.4-1-0.6c-4.5,5.1-9,10.1-13.9,15.5c5.1,3.6,9.7,6.8,14.9,10.5
			C-509.6-2.5-509.6-10.6-509.6-18.7z"/>
		<path d="M-835.4-808.8c-8.1-27.1,7.2-44.7,25-61c1.2-1.1,5-1.4,6.1-0.4c14.3,12.2,26.7,25.8,28.1,45.8c0.4,5.1-1.2,10.4-1.8,15.6
			c10-1.6,20.2-3.3,30.5-4.9c4.6-0.7,9.2-1.5,13.8-2.3c6.1-1,8.6,1.6,7,7.6c-4.6,16.6-11.3,32-26.1,44c6.6-1,12.1-1.7,17.5-2.6
			c8.3-1.4,10.9,0.9,8,8.6c-3.9,10.3-8.1,20.8-13.8,30.2c-8.6,14.2-22.8,20-38.9,20.5c-7.1,0.2-14.2-0.7-21.9-1.1
			c-0.1,1.2-0.3,3-0.3,4.7c0,10.3-0.1,20.7,0,31c0,3.4-1,6.4-4.7,6.3c-3.7-0.1-4.6-3-4.6-6.4c0.1-12,0-23.9,0-35.2
			c-9.2,0.2-18,1.2-26.7,0.4c-21.4-1.9-34.3-15.3-42.5-34c-2.6-5.9-4.5-12.1-6.3-18.4c-1.5-5.2,0.8-7.7,6.2-7
			c6.2,0.8,12.5,1.8,19.9,2.9c-11.6-9.4-18.1-21-22.8-33.7c-1.3-3.6-2.4-7.3-3.4-11c-1.3-5.2,1.4-7.9,6.8-7
			C-865.5-813.7-850.6-811.3-835.4-808.8z M-807.1-789.1c31.2-22.4,26.1-48.3-0.2-71.4c-8.1,8.4-16.3,16.8-19.5,28.4
			c-1.4,5.2-1.6,11.4-0.3,16.6C-824.3-804-816.5-795.9-807.1-789.1z M-876.2-806.3c9.6,34.2,31.7,46.9,63.5,37.7
			c-3.1-10.7-8.6-19.6-17.9-26.1C-844.1-804.2-860.5-802-876.2-806.3z M-737.9-757.2c-10.9,1.8-21.6,3-32.1,5.4
			c-16.9,3.9-26.1,15.8-31.2,31.7C-771-710.8-747.2-722.2-737.9-757.2z M-801.4-768.5c33.9,9.1,54.4-4.9,63.6-37.7
			c-12.3,2.3-24.4,3.5-36,6.9C-788.6-794.9-796.7-783.2-801.4-768.5z M-875.6-757.1c4.5,30,41.3,51.1,62.9,36.7
			c-3.5-11.9-10.1-21.7-21.2-27.7C-846.9-755.1-861.6-753.8-875.6-757.1z M-802.1-741.6c5.5-5.1,10.4-9.7,15.5-14.4
			c-5.3-0.7-10.2-1.4-15.5-2.1C-802.1-752.5-802.1-747.4-802.1-741.6z M-827.1-755.9c5.3,5,10.2,9.6,15.2,14.3c0-5.6,0-11,0-16.5
			C-817-757.4-821.9-756.7-827.1-755.9z"/>
		<path d="M-509.5-705.9c-7.9,2.3-15.3,5.2-22.9,6.5c-25.5,4-40.5-4.5-52.5-23.1c-6.1-9.5-9.8-20.5-14.3-31c-1.8-4.1-0.4-7.2,4.1-9
			c15.9-6.4,32-11.4,49.5-8.9c3.9,0.6,7.7,1.7,12.3,2.8c-1.1-2.4-2.2-4.5-3.1-6.7c-6.7-15.5-5.3-30.5,3-45
			c6.3-11.1,14.7-20.6,24.3-28.9c2.5-2.2,5-3.1,8-0.6c12.5,10.6,22.8,22.8,29.1,38.1c6,14.9,3.5,29-4.5,43.3c4-1,7.4-2.2,10.8-2.7
			c18.7-2.9,36,2.1,52.7,9.7c1.6,0.7,3.5,4.2,3,5.8c-4.9,18.3-12.3,35.5-27.5,47.6c-15.4,12.3-33,11.6-50.8,6.1
			c-3.8-1.2-7.4-2.9-11.8-4.7c0,9.8,0,19,0,28.2c0,2.2,0.6,4.5-0.2,6.4c-0.8,2-2.5,4.7-4.2,5c-2.9,0.6-4.8-1.7-4.8-5
			c0-9,0-18-0.1-27C-509.5-701.3-509.5-703.6-509.5-705.9z M-509.5-756.4c0-2.8,0-4.4,0-6.1c0-11.9,0-23.9,0-35.8
			c0-3.1,1.2-5.2,4.5-5.4c3.5-0.1,4.4,2.3,4.7,5.2c0.1,0.8,0,1.7,0,2.5c0,11.2,0,22.3,0,33.5c0,1.6,0.1,3.2,0.3,6
			c12.2-10.8,21.4-22.1,21.5-37.8c0.1-20.1-13.1-33.2-26.8-47c-6.1,7.4-12.2,14-17.3,21.4c-7.8,11.2-11.5,23.6-6.6,37.3
			C-525.5-772.3-518.9-764.2-509.5-756.4z M-515.4-715.2c-2.2-1.2-4.2-2.4-6.2-3.5c-10.6-5.6-21.1-11.3-31.7-16.8
			c-3-1.6-5.8-3.5-3.8-7.3c1.9-3.8,5-2.8,8.1-1.1c6.9,3.7,13.8,7.3,20.7,11c5.3,2.8,10.7,5.6,17.3,9c-2.2-5.5-3.5-9.8-5.5-13.7
			c-5.3-10.5-12.5-19.7-24.1-23.1c-17-5.1-33.1-0.1-50,6.8c4.8,9.3,8.8,18.4,13.9,26.8C-562.5-703.9-536.7-703.5-515.4-715.2z
			 M-495.2-714.9c3.7,1.5,6.5,2.8,9.5,3.8c14.5,4.7,28.9,5.9,41.8-4.1c12.7-9.9,18.8-24,24-39.7c-7.6-2.2-14.6-4.8-21.8-6.3
			c-17.5-3.7-33.5-1.6-45.3,13.8c-5.1,6.7-8.8,14.1-10.9,23.3c8.7-4.6,16.5-8.7,24.3-12.8c5-2.6,9.9-5.6,15.1-7.6
			c1.6-0.6,4.9,0.7,6,2.2c0.7,1-0.6,4.1-1.8,5.7c-0.8,1.2-2.8,1.7-4.2,2.5C-470.6-728-482.5-721.7-495.2-714.9z"/>
		<path d="M-811.5,158.7c0-3.8-0.2-7.7,0.1-11.5c0.2-3.3-1-4.2-4.3-5c-10.4-2.6-21.2-4.8-30.8-9.4c-21.6-10.4-32-32.7-29.3-57.9
			c2.4-22.5,12.1-42.1,24.2-60.6c11.2-17.2,24.5-32.8,39.2-47.2c4.9-4.8,6.4-4.9,11.2-0.1c24,23.9,45,50,57.3,82.1
			c5.2,13.5,8.1,27.5,6.1,42.1c-3.7,26.2-20.3,40.9-44.6,48.1c-5.2,1.5-10.7,2.4-16.1,3.1c-2.8,0.4-3.6,1.5-3.6,4.2
			c0.1,7.7,0.1,15.3,0.1,23c0,3.3-0.2,6.7-4.6,6.8c-4.4,0.1-4.7-3.2-4.7-6.6C-811.5,166-811.5,162.4-811.5,158.7z M-802.3,96
			c0.8-0.1,1.6,0,2-0.3c16.1-10.9,32.3-21.8,48.3-32.9c0.9-0.6,1.7-2.7,1.3-3.7c-3.9-9.8-8-19.6-12.3-29.9
			c-13.3,9.6-25.4,18.3-37.5,27.2c-1,0.7-1.7,2.5-1.7,3.8C-802.3,72-802.3,83.8-802.3,96z M-850.8,29.3
			c-4.3,10.3-8.5,19.9-12.2,29.6c-0.4,1.2,1.1,3.9,2.5,4.8c15,10.4,30.2,20.7,45.3,31c1,0.7,2.2,1.1,3.6,1.9
			c0-10.5-0.5-20.3,0.2-30.1c0.4-6.6-1.8-10.6-7.2-14.2C-829.2,45.2-839.4,37.5-850.8,29.3z M-802.3,132.9
			c37.4-2.4,61.2-26.5,54-60.4c-0.3,0-0.7-0.1-0.9,0.1c-17.1,11.6-34.1,23.2-51.1,34.9c-0.9,0.6-1.8,2.1-1.8,3.2
			C-802.4,118-802.3,125.3-802.3,132.9z M-865.4,72c-7,33.8,15.6,58.5,53.9,61c0-6.5-0.2-12.9,0.1-19.4c0.2-3.6-0.9-5.7-4-7.7
			c-11.8-7.8-23.5-15.8-35.2-23.7C-855.5,78.8-860.4,75.5-865.4,72z M-800.5-19.5c-0.5,0.4-1,0.7-1.5,1.1c0,21,0,42.1,0,64.1
			c11.4-8.2,22.1-16,33.9-24.5C-779.1,7.3-789.8-6.1-800.5-19.5z M-811.8,45.6c0-22.3,0-43.4,0-64.4c-0.5-0.3-0.9-0.6-1.4-0.9
			c-10.8,13.5-21.6,27-32.6,40.8C-833.9,29.7-823.2,37.4-811.8,45.6z"/>
		<path d="M-1099.8,143.2c0,9.1,0,17.9,0,26.8c0,3.4-0.9,6.2-4.8,6.1c-4-0.1-4-3.3-4-6.2c0-8.9,0-17.9,0-25.6c-11-3.2-21-5.1-30.2-9
			c-27.7-11.6-38-35.5-34.2-63.6c3.2-23.9,14.1-44.7,28.3-63.6c10.7-14.3,23-27.5,34.9-41c4.4-4.9,6.2-4.8,10.7-0.3
			c26,26,48.8,54.3,60.2,90c4.9,15.2,6.3,31,0.7,46.1c-7.8,20.8-24,32.3-45.2,37.2C-1088.6,141.2-1093.8,142.1-1099.8,143.2z
			 M-1109,133.4c0-9-0.1-17.6,0.1-26.2c0.1-3.2-1-5.1-3.7-6.9c-12.6-8.4-25-17-37.5-25.5c-2.8-1.9-6-4-3.4-7.9
			c2.6-4,5.6-2.1,8.5-0.1c5.2,3.6,10.4,7.2,15.6,10.7c6.5,4.4,13.1,8.8,20.5,13.7c0-14.5,0.1-27.9-0.1-41.3c0-1.2-1.6-2.7-2.8-3.6
			c-6.7-5-13.4-9.8-20.2-14.7c-2.7-2-4.7-4.3-2.4-7.5c2.3-3.1,5.3-2.1,7.9-0.2c2.5,1.7,4.8,3.6,7.3,5.3c3.1,2.2,6.3,4.4,9.9,6.9
			c0-19.1,0-37,0-56.5c-6.5,7.6-12.4,14-17.7,20.7c-15.4,19.4-29,39.9-34.9,64.4c-4.7,19.2-3.6,37.6,11.8,52.3
			C-1139,127.7-1124.8,131.5-1109,133.4z M-1099.6,91.4c12.8-8.7,24.6-16.7,36.4-24.8c2.9-2,5.9-3.4,8.2,0.1
			c2.3,3.4,0.1,5.7-2.8,7.7c-13,8.8-25.9,17.6-38.7,26.5c-1.2,0.8-2.8,2-2.9,3c-0.2,9.7-0.1,19.5-0.1,30.2c8-2,15.3-3.2,22.1-5.7
			c18.3-6.6,30.3-19,32.7-39c1.2-10.4-0.3-20.6-3.4-30.6c-7-22.7-20-41.9-34.7-60.2c-5-6.3-10.5-12.2-16.4-19c0,19.5,0,37.6,0,56.7
			c6-4.4,11.3-8.4,16.7-12.2c2.7-2,6-3.4,8.4-0.1c2.4,3.3,0.2,5.8-2.7,7.8c-6.8,4.8-13.5,9.7-20.2,14.7c-1.2,0.9-2.4,2.5-2.5,3.8
			C-1099.6,63.7-1099.6,77-1099.6,91.4z"/>
		<path d="M-802.7-156.4c0,8.8,0.2,18.3-0.2,27.7c-0.1,1.7-2.9,3.3-4.4,4.9c-1.4-1.6-3.2-3-4.1-4.8c-0.7-1.3-0.2-3.3-0.2-4.9
			c0-7.8,0-15.6,0-22.4c-10.6-3.1-20.8-5.1-30.2-9c-24.7-10.3-37.3-33.2-34.3-59.9c2.6-23.2,12.6-43.3,25.1-62.3
			c11.2-17,24.4-32.4,39.1-46.6c3.9-3.8,5.9-3.9,9.8-0.1c21.3,20.8,39.9,43.8,53,70.8c6.9,14.3,11.9,29.3,11.6,45.5
			c-0.5,27.2-14.7,45.7-40,54.8C-785.3-159.9-793.5-158.7-802.7-156.4z M-802.3-165.6c10.5-3.2,20.3-4.9,29-9
			c14.2-6.8,23.7-18.1,25.7-34.4c1.4-11.4,0.1-22.6-3.5-33.5c-7.4-22.5-20.3-41.8-35.1-59.9c-4.8-5.8-9.9-11.4-15.6-18
			c0,19.5,0,37.6,0,56.4c6.1-4.4,11.5-8.3,16.9-12.2c2.8-2,5.7-3.6,8.2,0c2.5,3.6,0,5.8-2.7,7.8c-6.6,4.8-13.3,9.4-19.8,14.4
			c-1.5,1.1-2.9,3.4-3,5.2c-0.2,12.5-0.1,25-0.1,37.5c0,0.5,0.4,1.1,0.8,2c10.7-7.3,21.2-14.4,31.6-21.5c2.1-1.4,4-3.4,6.3-3.9
			c1.8-0.4,4.6,0.3,5.8,1.6c0.9,0.9,0.2,3.9-0.6,5.5c-0.6,1.3-2.5,2.1-3.8,3.1c-12.2,8.3-24.5,16.6-36.7,25.1
			c-1.5,1-3.2,2.9-3.3,4.4C-802.5-186-802.3-176.8-802.3-165.6z M-811.8-318.9c-0.5-0.4-1-0.8-1.5-1.3c-0.8,1.4-1.5,2.9-2.5,4.2
			c-7.6,9.3-15.7,18.2-22.7,27.9c-13.2,18.2-24.2,37.5-27.6,60.2c-5.7,38.5,20.4,58.5,54.6,60.5c0-8.3-0.2-16.6,0.1-24.9
			c0.1-3.6-1-5.7-4-7.7c-12.7-8.5-25.3-17.2-38-25.8c-2.8-1.9-5.3-4.2-2.8-7.7c2.3-3.2,5.1-2.1,7.9-0.2
			c10.6,7.2,21.2,14.4,31.8,21.6c1.4,1,2.9,1.8,5,3c0-14.1,0.1-27.3-0.1-40.4c0-1.6-1.6-3.5-3-4.6c-6.8-5.1-13.8-9.9-20.6-15
			c-3.8-2.9-3.7-7.4,0.2-8.6c1.7-0.5,4.2,0.3,5.8,1.4c5.7,3.8,11.2,8,17.5,12.5C-811.8-282.9-811.8-300.9-811.8-318.9z"/>
		<path d="M-459.6-237.7c0.2,21.3-1.5,35.3-6.2,48.8c-10.7,30.3-34.7,44.8-66.7,40.1c-23.6-3.4-42.5-14.9-56.6-34
			c-14.4-19.6-14.9-40.3-3.5-61.5c10.3-19.1,26.6-32.3,44.6-43.4c20.4-12.6,42.2-22,65.2-29c4.7-1.4,6.9,0.1,8.3,4.3
			C-465.8-285.8-460-258.7-459.6-237.7z M-489.3-304.2c-1.7,0.4-2.4,0.5-3.2,0.7c-18.8,6.8-36.9,15.1-53.8,25.9
			c-14.5,9.4-27.6,20.3-36.7,35.3c-18.3,30-2.7,58.8,24.2,73.7c4.2-8.1,8.4-16.2,12.4-24.4c0.6-1.3,0.3-3.6-0.4-5
			c-4.1-7.8-8.4-15.5-12.6-23.2c-3.4-6.3-6.8-12.6-10.2-18.9c-1.6-2.9-2.1-5.8,1.4-7.7c3.3-1.7,5.3,0.2,6.8,3
			c0.9,1.8,1.9,3.5,2.9,5.3c6.1,11.1,12.1,22.1,18.2,33.2c0.6-0.5,1-0.6,1.1-0.8c6-11.7,12.1-23.3,17.9-35.1
			c0.6-1.1,0.1-3.2-0.5-4.5c-3.6-7.3-7.4-14.5-11.1-21.8c-1.7-3.2-2.9-6.4,1.2-8.6c4-2.1,5.7,1,7.2,3.9c3.1,6,6.2,12.1,9.6,18.9
			C-506.3-271-498-287.2-489.3-304.2z M-550.9-163.3c5.6,1.6,10.4,3.4,15.4,4.4c19.9,3.9,38,1.3,51.4-15.7c8-10.2,12-22.2,13.7-34.9
			c2.9-21.9,0.9-43.5-3.8-65c-1.8-8.2-4-16.3-6-24.5c-0.4,0-0.8,0-1.3,0c-8.2,16.1-16.5,32.3-25.1,49.2c7.9-1.2,14.6-2,21.2-3.2
			c3.4-0.6,6.2-0.3,6.9,3.6c0.8,4.2-2.1,5.4-5.6,5.9c-8.4,1.2-16.8,2.5-25.1,4c-1.5,0.3-3.3,1.6-4,2.9
			c-5.8,10.9-11.3,21.9-16.8,32.8c-0.3,0.6-0.3,1.4-0.5,2.7c13.4-1.7,26.2-3.5,39.1-4.9c3.8-0.4,9.1-3.3,10.8,3.2
			c1,3.7-1.5,5.1-9.4,6c-14.2,1.7-28.4,3.6-42.6,5.3c-2.9,0.3-4.7,1.5-6,4.2C-542.4-179.3-546.5-171.7-550.9-163.3z"/>
		<path d="M-1099.7-182.6c0,13.5,0,26.1,0,38.7c0,4.7,0,9.3,0.1,14c0.1,3.4-1,6.2-4.8,6.2c-3.6,0-4.6-2.8-4.6-5.9
			c0.1-14.1,0.2-28.3,0.3-42.4c0-3.3,0-6.5,0-10c-6.6,3.2-12.2,6.7-18.2,8.5c-29.8,9-53.8-9.7-53-40.8c0.4-14.4,4.3-27.9,13-39.2
			c18.7-24,38.1-47.5,57.3-71.1c4-4.9,6.2-5,10.4,0.1c19.4,23.7,39.1,47.1,57.5,71.5c10.8,14.3,15.1,31.4,12,49.6
			c-3.6,21.3-21.9,34.5-43.4,32C-1082.7-172.6-1091-176.5-1099.7-182.6z M-1097.5-194.2c4.9,5.7,11.6,10,18.8,12.2
			c19.7,5.9,38.1-5.5,40.2-24.8c1.5-13.4-1.1-26.2-8.6-37.2c-10.2-14.9-21.6-29.1-32.8-43.3c-7.7-9.8-16-19.1-24-28.6
			c-0.9,0.6-1.4,0.8-1.7,1.1c-17.9,22.1-36.1,44-53.4,66.5c-8.5,11.1-12.3,24.3-11.5,38.5c0.8,14,8.8,24.7,20.8,28
			c13.9,3.9,31-1.7,38.1-12.6c-0.6-0.5-1.3-1-1.9-1.5c-8.6-6.5-17.4-12.9-25.7-19.8c-1.5-1.2-2.3-4.9-1.6-6.7c1.2-3,4.3-2.5,6.8-0.9
			c1.2,0.8,2.3,1.9,3.5,2.8c6.8,5.1,13.7,10.1,21.3,15.8c0-7.9-0.2-14.6,0.1-21.2c0.2-3.3-1.2-5.1-3.7-6.9
			c-8.9-6.5-17.6-13.2-26.3-19.8c-2.6-1.9-3.8-4.6-1.8-7.3c2.1-2.8,4.9-2.2,7.5-0.3c0.9,0.7,1.8,1.4,2.8,2.1
			c6.9,5.2,13.7,10.4,21.3,16c0.1-2.5,0.3-4.1,0.3-5.7c0-7.5,0-15,0-22.5c0-1.3,0-2.7,0.1-4c0-3.2,1.8-5.2,4.8-5.1
			c3,0.2,4.5,2.3,4.5,5.5c-0.1,10.3,0,20.5,0,31.6c1.9-1.3,3.1-2,4.3-2.9c6-4.5,11.9-9,17.9-13.6c0.8-0.6,1.6-1.7,2.4-1.7
			c2.4-0.1,5.7-0.8,7,0.4c2.5,2.3,1.1,5.2-1.5,7.1c-9,6.8-18,13.7-27,20.5c-1.1,0.9-2.8,2-2.9,3.1c-0.2,7.8-0.1,15.7-0.1,24.5
			c8.6-6.5,16.3-12.3,24-18.1c2.3-1.7,4.7-3.1,7.1-0.6c2.9,3,1.7,5.7-1.3,7.9C-1079-208.2-1088.2-201.2-1097.5-194.2z"/>
		<path d="M-1394.6-34.5c-13.7,19.5-25.6,38.5-25.2,62.3c0,2.6,0.8,5.3,0.7,7.9c-0.1,2.1-0.4,5.2-1.8,6c-1.4,0.9-4.4,0.1-6.3-0.9
			c-7.7-3.8-15-8.6-22.9-11.9c-11.1-4.6-22.9-6.5-36.6-6.6c3.6,7.5,6.3,14.4,10,20.7c10.1,17,24.1,30.4,40.2,41.8
			c2,1.4,4.1,4.2,4.2,6.4c0.1,1.4-3.4,3.5-5.7,4.2c-11,3.6-20.6,9.2-28.1,18.2c-0.9,1-1.6,2.1-2.4,3.2c-0.3,0.4-0.3,0.9-0.7,2.4
			c10.6-2.5,20.6-4.7,30.5-7.3c7.4-1.9,14.6-4.3,21.9-6.5c3.2-1,6.4-1.6,7.5,2.9c1.1,4.3-1.8,5.4-5.1,6.3
			c-16.9,4.4-33.7,8.9-50.6,13.1c-3.5,0.9-7.2,1.1-10.9,1.5c-6.2,0.5-8.4-2.4-5.8-8.1c6.2-13.8,16.5-23.6,29.9-30.3
			c1.2-0.6,2.4-1.1,4.2-2c-3.1-2.6-6-5-8.8-7.5c-18.6-16.2-32.9-35.2-39.6-59.3c-2.1-7.7-0.6-9.7,7.4-9.5c19.9,0.4,38.9,4.7,56.6,14
			c0.6,0.3,1.2,0.5,2.3,1c0.5-14.1,3.6-27.3,10.3-39.3c6.1-11,13.3-21.4,20.3-31.9c2.6-3.8,5.7-3.8,8.5-0.2
			c14,17.7,25.7,36.5,29.4,59.2c0.6,3.9,0.9,7.8,1.3,12.3c12.9-6.9,26.2-11.5,40.3-13.4c6.4-0.9,12.8-1.4,19.2-1.6
			c7.3-0.3,8.8,2,6.8,9.2c-5.1,18.3-14.6,34.2-27.7,47.9c-6.3,6.6-13.2,12.6-20.2,19.2c1.6,0.9,3.2,1.8,4.9,2.6
			c12.8,6.5,22.3,16.2,28.5,29.1c3,6.1,0.6,9.3-6.1,8.6c-21.5-2.2-42-8.7-62.5-14.9c-3.1-1-4.9-3.2-3.7-6.5c1.2-3.3,3.9-3.4,7-2.5
			c15.9,4.3,31.8,8.4,47.7,12.6c1.5,0.4,3.1,0.4,5.6,0.8c-7.5-11.7-17.6-18.2-29.5-22.4c-0.9-0.3-2.1-0.4-2.8-0.9
			c-1.9-1.3-4.8-2.7-5.1-4.4c-0.3-1.7,1.7-4.5,3.5-5.7c18.8-13,34.5-28.8,44.9-49.4c2.1-4.1,3.7-8.5,5.8-13.5
			c-10.9,0.1-21,1-30.4,4.7c-10,4-19.4,9.3-29.1,13.9c-1.8,0.8-4.3,1.5-5.9,0.9c-1.2-0.5-2.5-3.3-2.2-4.8
			c3.7-18.3-2.2-34.6-10.6-50.2C-1385.2-20.2-1389.9-26.9-1394.6-34.5z"/>
		<path d="M-1030.9-828.2c-36.6-9.9-72.2-13.6-108.1-1.9c-32.2,10.5-45.6,35-44.1,68.8c0.3,6.1,1.6,12.2,2.5,18.3
			c0.4,3-0.3,5.5-3.5,6.2c-3.2,0.7-5-1.1-5.7-4.2c-5.4-25.8-4.6-50.8,11.4-73.2c10.2-14.2,24.9-21.7,41.2-26.5
			c29.8-8.8,59.9-7.8,89.9-1.3c8.9,1.9,17.7,4.7,26.4,7.4c1.9,0.6,4.1,2.6,4.6,4.4c0.3,1.4-1.4,4-3,5.1
			c-16.3,11.8-24.8,27.7-26.6,47.6c-0.8,8.8-2.1,17.5-3.6,26.2c-2.7,15.3-10.7,27.3-24.5,34.6c-22.9,12.1-46.9,16.5-72.3,9
			c-2.2-0.7-4.8-1.3-6.3-2.8c-1.5-1.5-2.8-4.3-2.4-6.1c0.7-3.1,3.6-3.5,6.5-2.2c12.6,5.8,25.9,6.8,39.1,4c9.8-2.1,19.7-5,28.8-9.2
			c14.3-6.4,20.9-18.9,22.8-34c1.3-10.1,2.4-20.2,4-30.2c2.2-14.1,8.9-26,18.9-36.1C-1033.6-825.2-1032.6-826.3-1030.9-828.2z"/>
		<path d="M-1394.9-872.3c-6.9,7.7-13.6,14.8-19.8,22.3c-15.6,18.8-29.2,38.9-36.4,62.6c-5.1,16.7-5.6,33.4,2.5,49.6
			c5.3,10.5,13.5,18,23.6,23.7c1.6,0.9,3.2,1.7,4.9,2.5c2.7,1.4,4.2,3.4,2.7,6.5c-1.5,3-4.1,3.2-6.8,2
			c-21.6-10.2-35.5-26.3-39.1-50.5c-3-20.5,2.6-39.3,11.5-57.3c12.9-26.3,31.2-48.7,51.9-69.2c3.2-3.1,6.1-4.4,9.8-0.7
			c23.5,23.5,44.3,48.8,57.1,79.9c8,19.6,10.9,39.7,3.8,60.3c-6.2,17.8-18.9,29.4-35.5,37.3c-2.9,1.4-5.8,1.5-7.3-1.6
			c-1.6-3.3,0.3-5.5,3.5-7c19.9-9.7,32-25,33.6-47.6c1-13.3-2-25.8-7-37.9c-9.6-23.2-24.2-43.2-40.8-61.8
			C-1386.6-863.5-1390.5-867.6-1394.9-872.3z"/>
		<path d="M-1398.8-441.7c-2.8-2.6-5.3-5.4-8.4-7.6c-18.3-13.2-30.1-30.5-34.4-52.8c-2.6-13.5,0.6-26.1,6.5-38.1
			c8.6-17.6,21.3-32,36.1-44.7c2.4-2.1,4.8-3.2,7.5-0.9c17.6,15.2,32.8,32.2,40.8,54.5c6.9,19.2,3.5,37.4-6.5,54.6
			c-7,11.9-16.1,22-27.4,30c-3.9,2.7-6.3,5.6-5.4,10.5c0.2,0.9-0.2,1.8-0.4,2.8C-1393.3-436.3-1396.1-439-1398.8-441.7z
			 M-1394.8-576.3c-14.1,13.3-26.5,27.2-34,44.9c-5.7,13.5-5.5,26.8-0.1,40.2c5.2,12.8,13.5,23.2,23.9,32.1c1.5,1.3,3.1,2.5,5.4,4.3
			c0-24.1,0-46.9,0-69.7c0-1.5-0.5-3.3,0.2-4.4c1-1.6,2.9-3.6,4.4-3.6c1.5,0,3.4,2,4.4,3.6c0.7,1.1,0.3,2.9,0.3,4.4
			c0,21,0.1,42,0.1,63c0,1.9,0,3.8,0,6.8c13.5-10.7,23.9-22.3,29.6-37.5c3.1-8.2,5-16.6,3.4-25.4
			C-1361.4-542.3-1377.3-559.5-1394.8-576.3z"/>
		<path d="M-705.2-565.9c-4.2-0.6-7.9-1.4-11.6-1.5c-20.7-0.6-41.2,0-61,7.7c-29,11.2-41.6,39-36.3,67.7c1.2,6.3,3.5,12.5,5.4,18.6
			c0.9,2.9,0.8,5.5-2.3,6.7c-2.8,1.1-5.2,0.2-6.5-2.9c-8.7-21.9-10.9-43.9-0.4-65.8c7.2-15.1,18.8-25.4,34.2-31.9
			c17.7-7.5,36.1-10.2,55.1-9.2c10.3,0.5,20.6,1.2,30.8,2.2c2.3,0.2,5.6,1.8,6.2,3.6c0.6,1.8-1.3,4.7-2.6,6.8
			c-2.6,3.9-6.3,7.1-8.2,11.3c-2,4.5-3.5,9.7-3.3,14.6c0.7,23.6-2.8,46-18,64.9c-13.7,17.1-32.3,22.5-53.4,21
			c-3.1-0.2-5.2-1.7-5-4.9c0.2-3.4,2.6-4.7,6-4.5c9.6,0.5,19-0.3,27.9-4.3c16.4-7.3,24.9-21,29.5-37.6c3.3-12,5.2-24.3,3.5-37
			c-1.2-8.5,3.9-15.2,7.9-22.1C-706.7-563.4-706.1-564.4-705.2-565.9z"/>
		<path d="M-452-559.9c-5.3-0.4-9.8-1-14.4-1.2c-20.6-1.1-41,0.1-60.3,8.2c-24.9,10.5-38.7,34.3-35.1,61c1.1,8,3.5,15.8,5.7,23.6
			c0.9,3.2,1.6,6.1-2,7.6c-3.6,1.5-5.5-0.8-6.7-3.9c-10.7-28.1-10.7-55.1,9.7-79.3c12.7-15,30.1-21.4,48.9-24.6
			c20.7-3.5,41.5-2.9,62.1,0.3c2.1,0.3,4.9,1.9,5.7,3.6c0.6,1.4-1,4.2-2.1,6c-2.3,3.5-5.1,6.6-7.4,10c-3.6,5.2-5,10.7-4.7,17.3
			c1,20.6-2.2,40.5-13.6,58.3c-13.3,20.9-33.2,28-56.9,27.1c-3.4-0.1-6.2-1.5-5.8-5.3c0.4-3.7,3.3-4.5,6.7-4.3
			c19.4,1.1,35.8-4.7,47.2-21.3c6.5-9.4,10.2-19.9,11.6-31c1.1-8.5,1.2-17.2,1-25.8c-0.2-8.5,3.6-15.4,7.8-22.2
			C-454.1-556.9-453.3-558-452-559.9z"/>
		<path d="M-1053.4-567c-20.1-0.3-39.1,0.1-57.7,5.8c-12.5,3.8-23.8,9.2-32.9,18.8c-11.6,12.2-16,26.9-15.3,43.3
			c0.4,11.2,3.9,21.5,8.6,31.5c1.3,2.9,1.8,5.5-1.5,7.3c-3.3,1.8-5.4,0-6.8-2.8c-12.5-25.4-15.5-60.1,7.4-84.9
			c8.6-9.2,19-15.6,30.8-19.7c24.3-8.3,49.4-10.2,74.8-8c6.9,0.6,8,3.8,4,9.6c-2.9,4.1-6.1,8.1-7.8,12.7c-1.7,4.6-2.6,10-2.2,14.9
			c1.8,20.3,0.5,40-9,58.4c-10.1,19.5-26.7,29.5-48.3,31.6c-2.6,0.3-5.3,0.3-8,0.3c-3,0-5.3-1.2-5.2-4.7c0.1-3.3,2.3-4.1,5.3-4.7
			c8.5-1.5,17.3-2.2,25.2-5.4c18.1-7.4,25.7-23.2,29.4-41.2c2.5-12.3,2.7-24.7,0.4-37.2c-1.3-7.5,2.4-14.3,5.9-20.7
			C-1055.5-563.5-1054.7-564.7-1053.4-567z"/>
		<path d="M-1399.5-748.9c0-11.5,0.1-21.8-0.1-32c0-1.3-1.3-2.9-2.4-3.9c-7.4-6.5-14.9-12.8-22.4-19.2c-2.7-2.3-4.6-4.9-1.4-8
			c2.5-2.4,5.1-1.5,7.5,0.6c5.9,5.1,11.9,10.1,18.9,16.1c0-7.4,0-13.8,0-20.1c0-5,0-10-0.1-15c-0.1-3.4,0.8-6.1,4.8-6.1
			c3.7,0,4.6,2.8,4.6,5.9c0,11.3,0,22.6,0,35.2c5.6-4.7,10.3-8.7,15-12.6c1.4-1.2,2.7-2.4,4.1-3.6c2.5-2.1,5.3-2.7,7.5,0
			c2.1,2.6,1.2,5.2-1.3,7.4c-6.5,5.5-12.7,11.2-19.5,16.4c-4.2,3.2-6.2,6.6-5.9,12.1c0.5,8.6,0.1,17.2,0.1,26.9
			c6.2-5.3,11.5-9.7,16.7-14.2c1-0.9,1.9-2.3,3.1-2.5c2.2-0.3,4.5,0,6.8,0.1c-0.3,2.4,0.3,5.7-1,7c-6,5.8-12.2,11.3-19,16.2
			c-5.3,3.9-7,8.3-6.8,14.7c0.4,17,0.2,34,0.1,51c0,2,0.4,4.2-0.4,5.9c-0.8,1.7-2.8,3.8-4.3,3.8c-1.5,0-3.4-2.1-4.5-3.6
			c-0.7-0.9-0.2-2.6-0.2-3.9c0-18.7-0.2-37.3,0.1-56c0.1-4.5-1.4-7.3-4.8-10.1c-6.9-5.5-13.5-11.4-20.2-17.1
			c-2.4-2.1-4.6-4.5-1.8-7.6c2.7-3,5.6-1.8,8.2,0.6C-1412.2-759.7-1406.3-754.8-1399.5-748.9z"/>
		<path d="M-1390.1,72.2c9.7-5.4,18.5-10.3,27.3-15.2c1.5-0.8,2.9-1.7,4.4-2.4c2.7-1.3,5.2-1.5,6.9,1.5c1.6,2.9,0.5,5.2-2.2,6.7
			c-6.4,3.6-12.8,7.1-19.2,10.7c-3.9,2.2-7.7,4.4-12.3,7.1c5.6,3.4,10.6,6.5,15.7,9.5c3,1.8,6.3,3.7,4,7.7c-2.3,3.9-5.5,2.4-8.6,0.5
			c-5.1-3.1-10.2-6.1-15.8-9.4c0,6.9,0,13.3,0,19.7c0,19.8,0,39.7,0,59.5c0,1.8,0.2,4-0.7,5.3c-0.9,1.4-3,2.8-4.6,2.8
			c-1.3,0-3.1-1.7-3.9-3.1c-0.7-1.3-0.4-3.2-0.4-4.9c0-24.8,0-49.6,0-74.4c0-1.3-0.1-2.6-0.2-4.8c-5.9,3.5-11.3,6.9-17,9.8
			c-1.6,0.8-4.3,1.1-5.9,0.3c-3-1.5-2.4-5.9,1-8c5.5-3.4,11-6.7,17.3-10.6c-8.2-4.6-15.8-8.9-23.4-13.2c-2.6-1.5-5.2-3-7.8-4.4
			c-3.1-1.6-4-4.2-2.4-7c1.6-2.8,4.3-2.7,7-1.2c10.2,5.7,20.3,11.3,31.3,17.4c0.1-2.4,0.3-4.1,0.3-5.8c0-14,0-28,0-42
			c0-3.5,0.6-6.8,4.8-6.7c4.1,0,4.8,3.4,4.8,6.8c0,13.8-0.1,27.7-0.1,41.5C-1390.1,67.7-1390.1,69.5-1390.1,72.2z"/>
		<path d="M-1365.4-294.8c-7-8.9-15.2-16.3-26.1-19.9c-1.9-0.6-4.4-0.9-6.1-0.2c-20,8-31.9,22.1-33.3,44.2c-0.1,1.8-1.4,4.5-2.8,5.1
			c-1.5,0.6-4.2-0.3-5.7-1.4c-3.2-2.3-6-5.2-9.3-8.2c-5.8,11.2-7.1,22.4-4.4,34.1c0.9,3.8,2.8,7.4,3.9,11.3c0.5,1.7,0.9,4.4-0.1,5.4
			c-1.2,1.2-3.8,1.7-5.7,1.5c-3.3-0.3-6.4-1.4-10.3-2.3c-0.6,10.4,0.9,19.7,5.6,28.3c8.4,15.2,21.6,23,38.7,24.6
			c0.7,0.1,1.3,0.2,2,0.3c3.4,0.2,6.1,1.4,5.7,5.3c-0.3,4.1-3.5,4.6-6.6,4.1c-5.9-1-11.9-1.7-17.5-3.7c-22.6-8-33.7-25.3-37-48.3
			c-0.7-4.6-0.9-9.3-0.9-13.9c0-6.5,2.1-8,8.4-6.7c1.6,0.3,3.2,0.7,5.3,1.1c-0.7-4.5-1.5-8.5-1.9-12.5c-1.4-13.4,1.9-25.7,8.7-37.2
			c2.6-4.4,5.3-4.8,9.2-1.4c1.9,1.6,3.7,3.4,5.9,5.4c0.6-1.6,1-2.7,1.4-3.9c6-21.5,20.7-34.2,41.1-41.3c1.5-0.5,3.4-0.5,4.9-0.1
			c13,4.2,24.1,11.2,32.3,22.3c0.5,0.6,0.5,1.5,0.8,2.3C-1361.4-298.6-1363.4-296.7-1365.4-294.8z"/>
		<path d="M-1132.6-774.5c10.8-1.1,20.4-2.1,29.9-2.9c3.5-0.3,8.2-1.4,8.7,3.8c0.6,5.2-4.1,5.2-7.7,5.6c-12.1,1.2-24.2,2.4-36.3,3.4
			c-3.6,0.3-6.1,1.4-8.4,4.3c-17,20.8-28.3,44.2-32.2,70.9c-0.5,3.4-2,6-5.7,5.3c-3.7-0.7-4.1-3.8-3.6-7.1
			c3.1-20.5,10.5-39.5,21.5-57c2.3-3.7,3-7.4,2.7-11.7c-1-11.6-1.6-23.3-2.3-34.9c-0.2-3.2,0.7-5.8,4.4-5.9c3.7-0.2,4.8,2.3,5.1,5.5
			c0.6,9.6,1.2,19.2,1.8,28.4c4.2-3.9,8.2-7.8,12.4-11.4c8.4-7,17.1-13.7,25.5-20.8c1.8-1.5,3.5-3.9,4-6.2c1.6-7,2.5-14.1,3.7-21.1
			c0.6-3.4,1.6-6.6,5.8-5.9c4.1,0.7,4.2,4,3.6,7.4c-1,5.5-1.9,11-2.9,16.8c9.2-3.8,17.8-7.4,26.4-11c3.1-1.3,6.4-2,7.9,2
			c1.5,4.1-1.5,5.6-4.7,6.7c-20.1,7.5-38.8,17.5-55.1,31.6C-1129.5-777.6-1130.6-776.4-1132.6-774.5z"/>
		<path d="M-1415.3-244.6c1.8,0.8,3.8,1.3,5.4,2.4c3.2,2.2,6.3,4.7,10.4,8c0-10.1,0-19,0-27.9c0-3.3,0-6.7,0-10
			c0-3.3,1.2-5.6,4.8-5.6c3.8,0,4.5,2.8,4.5,5.9c0,11.3,0,22.6,0.1,33.9c0,0.8,0.2,1.6,0.4,3.1c5.4-4,10.4-7.7,15.4-11.5
			c2.8-2.1,5.5-4.3,8.3-6.4c2.5-1.9,5.2-3,7.4,0c2.2,2.9,1.1,5.6-1.7,7.7c-5.5,4.1-10.5,8.9-16.4,12.2c-10.8,6-15.8,14.3-13.4,26.7
			c0.4,2.4,0.1,4.9,0.1,8.2c7.3-5.5,13.9-10.4,20.5-15.4c1.3-1,2.5-2.6,4-2.9c2.3-0.4,5.6-0.8,6.9,0.4c2.5,2.3,1.2,5.1-1.4,7.1
			c-7.6,5.7-14.9,11.8-22.8,17c-5.6,3.7-7.6,8.1-7.4,14.8c0.5,15.3,0.1,30.6,0.2,46c0,3.7-0.7,7.2-5,7.1c-4,0-4.6-3.4-4.6-6.9
			c0.1-17-0.1-34,0.1-51c0-3.2-1.1-5.2-3.6-7c-8.7-6.4-17.2-13.1-26-19.5c-2.9-2.2-4.8-4.7-2.4-7.9c2.3-2.9,5.3-1.9,8,0.1
			c6.7,5.2,13.5,10.3,20.3,15.4c0.9,0.7,1.9,1.2,3.5,2.3c0-8,0.2-15.2-0.2-22.5c-0.1-1.5-2-3.2-3.4-4.4c-5.8-4.9-11.8-9.6-17.7-14.3
			C-1419-241.1-1417.1-242.9-1415.3-244.6z"/>
		<path d="M-524.3-514.4c9.3-7.9,18.3-15.8,27.5-23.3c2.9-2.4,6.5-4,9.8-5.9c2.7-1.5,5.3-1.5,6.8,1.5c1.6,3,0.3,5.3-2.6,7
			c-6.6,4.1-13.1,8.3-19.6,12.5c0.2,0.5,0.4,1,0.6,1.6c3.9-0.6,7.9-1.3,11.8-2c1.6-0.3,3.3-0.7,4.9-0.8c2.9-0.3,5.4,1,5.2,3.9
			c-0.2,1.9-2.2,4.8-3.9,5.2c-9.2,2.1-18.6,3.5-28,5.3c-1.4,0.3-3.3,0.7-4,1.7c-6.1,9-12.1,18.1-18.1,27.2c0.4,0.4,0.9,0.9,1.3,1.3
			c8.3-1.5,16.6-3,24.9-4.5c2.1-0.4,4.3-0.6,6.4-1.2c3.5-1,6.3-0.1,7.1,3.4c0.9,3.7-1.7,5.4-5.1,6c-11.1,2-22.2,4.2-33.4,5.9
			c-4,0.6-5.9,2.4-7.2,6.1c-6.7,19.8-10.6,40.2-11.5,61.1c-0.1,3.5-0.9,6.8-4.9,6.7c-4-0.1-4.7-3.3-4.6-6.9
			c1.7-33.7,9.5-65.7,26.4-95.3c1.4-2.5,1.6-6,1.4-8.9c-0.4-5.3-1.5-10.5-2.3-15.8c-0.5-3.3,0.7-5.8,4.1-6.2
			c3.3-0.4,4.8,1.7,5.3,4.7C-525.2-520.8-524.7-517.4-524.3-514.4z"/>
		<path d="M-1180.4-17.6c-4.4,10.4-8.9,20.3-12.8,30.5c-8.7,23-15.3,46.6-13.2,71.5c0.7,8.9,3.1,18.1,6.7,26.3
			c7.3,16.7,21.6,24.1,39.2,25.8c2.5,0.2,5,0.2,7.5,0.2c3.5-0.1,6.6,0.5,6.6,4.8c0,4-3.1,4.7-6.3,4.8c-11.5,0.2-22.7-1.6-32.8-7.1
			c-10.7-5.9-18.1-14.6-23.4-26c-10.7-23.1-8.2-46.4-3.4-69.8c4.9-23.9,14.1-46.4,25.3-68c1.8-3.6,4.4-4.8,8.1-2.7
			c10.5,5.8,20.9,11.6,31.4,17.4c2.9,1.6,4.2,4.1,2.5,7.1c-2,3.4-4.9,2.6-7.8,0.9c-7.4-4.4-14.9-8.7-22.5-13
			C-1176.5-15.9-1178-16.5-1180.4-17.6z"/>
		<path d="M-1028.2-18.3c-9.9,5.7-18.7,10.7-27.4,16c-3.1,1.8-5.9,2.9-8.1-0.8c-2.1-3.5,0.2-5.7,3-7.3c10.3-5.8,20.7-11.4,31-17.1
			c3.2-1.8,5.9-1.4,7.6,1.9c17.9,35.2,32,71.5,29.5,112c-1.3,20.4-8.5,38.4-26.4,50.3c-11.2,7.4-23.9,9.7-37.2,9.5
			c-3.4,0-6.1-1.3-6-5.1c0.2-3.5,2.8-4.5,6.1-4.4c11,0.3,21.6-1.4,31.1-7.5c14.9-9.5,20.8-24.1,22.7-40.8
			c2.7-23.9-2.7-46.6-10.6-68.8C-1017.5,7.1-1022.9-5-1028.2-18.3z"/>
		<path d="M-419.1-266c-10.6,0.5-20.5,1-30.5,1.5c-3.3,0.2-6.7,0.5-7-4.1c-0.2-4.4,3-5,6.4-5.1c11-0.5,21.9-1.1,32.9-1.4
			c6.5-0.1,7.7,1.2,7.7,7.5c0.2,33.4-3.8,66.1-17.3,97c-6.4,14.6-15,27.8-28.5,37.1c-20.6,14.3-43.1,11.9-63.6,0.6
			c-2.7-1.5-3.7-4.1-2.1-6.8c1.6-2.7,4.2-2.8,6.9-1.4c8.8,4.7,17.9,8,28,7.9c17.8-0.1,30.3-9.7,40.3-23.2c11.9-16,18-34.5,21.2-53.8
			c2.8-17,3.9-34.3,5.7-51.5C-418.7-262.8-419-263.9-419.1-266z"/>
		<path d="M-837.1-442.8c0.4-2.7,0.4-5.6,1.1-8.2c5.3-17.5,4.1-33.6-9.6-47.1c-5.9-5.8-13.2-8.9-21.1-10.7
			c-13.8-3.2-27.7-2.6-43-0.8c9.7,9,6.4,20.2,8,30.4c1.5,9.7,4.1,18.9,10.2,26.7c5.3,6.8,12.2,11.2,21,12.3c2.1,0.3,4.1,0.9,6.1,1.4
			c-2.5,2.5-4.9,4.9-7.4,7.4c-11.1-0.3-19.5-6-26.2-14.2c-9.8-12-13.9-26.3-13.5-41.4c0.2-8.4-3-14.3-7.9-20.2
			c-1.6-2-3.6-5.3-2.9-7.1c0.7-1.9,4.2-3.5,6.6-3.9c18-3.1,36.1-4,54,0.9c35,9.7,44.7,43,33.4,72.3c-1.9,5-5.5,3.4-9,1.9
			L-837.1-442.8z"/>
		<path d="M-1365.4-294.8c2-1.9,4-3.9,6-5.8c3.4,6.4,6.9,12.9,10.5,19.7c1.1-1,3.1-2.8,5.2-4.5c4-3.4,6.6-3,9.2,1.6
			c8,14,11,28.8,7.3,44.7c-0.3,1.4-0.5,2.8-0.8,4.8c2.9-0.5,5.3-1.1,7.7-1.4c3.1-0.4,5.5,0.7,5.7,4c1.1,21.7-3,41.6-20.7,56.2
			c-9.9,8.1-21.6,12.2-34.5,12.9c-3.3,0.2-6.2-0.6-6.4-4.5c-0.2-3.6,2.5-4.3,5.5-5c8-2,16.4-3.4,23.6-7.1
			c14.3-7.4,20.5-20.7,22.6-36.1c0.4-2.6,0.5-5.3,0.7-8c0-0.3-0.2-0.6-0.5-1.8c-3,0.7-6.1,1.8-9.3,2.1c-2.2,0.1-5.2-0.3-6.5-1.7
			c-1-1.1-0.5-4.4,0.3-6.2c6.6-14.7,6.1-29.2-0.7-44.4c-3.7,3.3-6.8,6.3-10.1,9c-3.6,2.9-7.8,1.2-7.8-3.3
			C-1358.7-278.6-1361.5-286.8-1365.4-294.8z"/>
		<path d="M-813.4-411.9c2.3-30,8.1-58.3,22.5-84.3c7.9-14.3,18.1-26.7,32.2-35.4c1.3-0.8,2.5-2.2,3.8-2.2c2.2-0.1,5.3-0.1,6.4,1.2
			c2,2.3,0.7,4.9-2,6.5c-10.7,6.7-19.6,15.4-26.7,25.8c-9.1,13.3-15.6,27.9-19,43.5c-3.4,15.5-5.2,31.4-7.6,47.1
			c-0.5,3.4,0.1,7.7-5.1,7.4c-5-0.3-4.5-4.4-4.4-7.9C-813.3-411-813.4-411.8-813.4-411.9z"/>
		<path d="M-1150.5-413.9c0.9-29.7,5.6-58.5,20.1-85c7.1-12.9,16.4-23.8,28.4-32.3c2.6-1.8,5.3-2.6,7.5,0.2c2.2,2.7,1.1,5.4-1.5,7.3
			c-22.9,15.9-33.3,39.4-39.6,65.4c-4.4,18.2-6.2,36.7-5.6,55.4c0.1,3.4-0.1,6.9-4.3,7.1c-4.4,0.2-5.2-3.3-5.1-7
			C-1150.4-406.5-1150.5-410.2-1150.5-413.9z"/>
		<path d="M-837.2-443c2.4,10.8,4.9,21.6,7.1,32.4c0.6,2.9,0.6,6,0.8,8.9c0.3,3.1-1.1,5.4-4.2,5.7c-3.4,0.3-4.7-2.1-5.3-5.3
			c-2.2-11.9-3.7-24-7.1-35.6c-4.6-15.9-12.3-30.3-25.9-40.8c-2-1.5-4-2.9-6.2-4.1c-3.1-1.7-5.4-3.9-3.3-7.5
			c2.2-3.7,5.3-2.3,8.2-0.6c12.2,7,21.1,17.2,27.6,29.4c3,5.7,5.5,11.6,8.3,17.5C-837.1-442.8-837.2-443-837.2-443z"/>
		<path d="M-1398.8-441.7c2.8,2.7,5.5,5.4,8.3,8.1c0.2,11,0.6,21.9,0.3,32.9c0,1.7-2.7,4.2-4.6,4.6c-1.2,0.3-4.4-2.5-4.5-4
			C-1399.4-413.9-1399-427.8-1398.8-441.7z"/>
		<path d="M-1415.3-244.6c-1.8,1.7-3.6,3.5-5.5,5.2c-3.4-2.3-7-4.3-10-7c-1.1-0.9-1.5-3.8-0.9-5.2c0.7-1.4,3.9-3.1,4.5-2.6
			C-1422.9-251.3-1419.2-247.9-1415.3-244.6z"/>
		<path d="M-871.7-431.4c2.5-2.5,4.9-4.9,7.4-7.4c2.4-0.4,5-1.5,7.2-1c1.7,0.4,3.9,2.6,4.2,4.4c0.2,1.3-2,4.4-3.3,4.5
			C-861.4-430.6-866.6-431.2-871.7-431.4z"/>
		<path class="st0" d="M-500.3,115.1c0-7-0.1-13.8,0.1-20.6c0-1.4,0.8-3.3,1.9-4.2c15.5-11.4,31.2-22.6,46.8-33.9
			c0.4-0.3,0.9-0.3,2.4-0.8c1.3,6.9,2.6,13.7,3.6,20.5c0.2,1.2-0.9,3.2-1.9,4c-17,11.8-34.2,23.4-51.3,35.1
			C-498.9,115.3-499.3,115.1-500.3,115.1z"/>
		<path class="st0" d="M-509.5,116.1c-7.5-5.1-14.1-9.5-20.7-14c-10.3-7-20.6-14.2-31-21c-2.7-1.8-3.9-3.8-3.2-7
			c1.3-6.1,2.6-12.2,4.1-19.2c11.8,8.5,22.7,16.3,33.5,24.1c4.2,3,8.2,6.4,12.6,9c3.8,2.3,5.1,5.1,4.8,9.4
			C-509.8,103.2-509.5,109.1-509.5,116.1z"/>
		<path class="st0" d="M-462.7,27.9c3,5.8,6.1,11.7,9.4,18c-15.5,11.2-30.8,22.2-46.9,33.9c0-8.8-0.1-16.4,0.1-23.9
			c0-1.1,1.1-2.4,2-3.1c11.1-8.2,22.4-16.2,33.6-24.3C-464.2,28.2-463.6,28.2-462.7,27.9z"/>
		<path class="st0" d="M-509.5,79.8c-15.9-11.5-31.1-22.5-46.9-33.9c3.1-6,6.1-12,9.4-18.6c5,3.5,9.6,6.7,14.1,10
			c6.9,5,13.8,9.9,20.5,15c1.3,1,2.7,2.7,2.8,4.2C-509.4,63.9-509.5,71.4-509.5,79.8z"/>
		<path class="st0" d="M-445.8,90.5c-3,24.2-23.5,40.1-55.1,42.7c1-2.7,1.2-5.7,2.7-6.8C-481.1,114.5-463.8,102.8-445.8,90.5z"/>
		<path class="st0" d="M-510,133c-28-1.6-52.1-18-53.6-42.1c8,5.4,15.7,10.5,23.4,15.7c9.1,6.2,18,12.5,27.2,18.6
			C-510.1,127.2-508.7,129.2-510,133z"/>
		<path class="st0" d="M-500.3,42.5c0-8.2-0.1-15,0.1-21.7c0-1.2,1.1-2.8,2.2-3.6c6-4.5,12.1-8.8,18.6-13.6
			c3.8,5.2,7.4,10.2,11.4,15.6C-478.7,27-488.9,34.3-500.3,42.5z"/>
		<path class="st0" d="M-541.7,19.3c3.8-5.3,7.3-10.2,11.3-15.7c6.9,5,13.4,9.6,19.8,14.5c0.7,0.5,1,2,1,3.1c0.1,6.6,0,13.3,0,21.2
			C-520.6,34.5-531,27-541.7,19.3z"/>
		<path class="st0" d="M-500.1,6.8c0-9.3,0-17.3,0-27.1c5.4,6,10,11.1,14.8,16.4C-490.1-0.4-494.7,2.9-500.1,6.8z"/>
		<path class="st0" d="M-509.6-18.7c0,8.1,0,16.2,0,25.4c-5.2-3.7-9.8-6.9-14.9-10.5c4.8-5.4,9.3-10.5,13.9-15.5
			C-510.3-19.1-510-18.9-509.6-18.7z"/>
		<path class="st0" d="M-807.1-789.1c-9.3-6.7-17.2-14.9-19.9-26.4c-1.3-5.2-1.1-11.4,0.3-16.6c3.1-11.6,11.4-20,19.5-28.4
			C-781-837.4-775.9-811.6-807.1-789.1z"/>
		<path class="st0" d="M-876.2-806.3c15.7,4.3,32.1,2.1,45.7,11.6c9.3,6.5,14.8,15.4,17.9,26.1
			C-844.5-759.3-866.6-772.1-876.2-806.3z"/>
		<path class="st0" d="M-737.9-757.2c-9.2,34.9-33.1,46.4-63.3,37.1c5.1-15.9,14.4-27.8,31.2-31.7
			C-759.5-754.2-748.8-755.4-737.9-757.2z"/>
		<path class="st0" d="M-801.4-768.5c4.7-14.8,12.8-26.4,27.6-30.9c11.5-3.4,23.7-4.6,36-6.9C-746.9-773.4-767.5-759.4-801.4-768.5z
			"/>
		<path class="st0" d="M-875.6-757.1c14,3.3,28.7,2,41.7,9c11.1,6,17.6,15.8,21.2,27.7C-834.3-706-871.2-727.1-875.6-757.1z"/>
		<path class="st0" d="M-802.1-741.6c0-5.8,0-10.9,0-16.4c5.2,0.7,10.2,1.4,15.5,2.1C-791.7-751.3-796.6-746.7-802.1-741.6z"/>
		<path class="st0" d="M-827.1-755.9c5.2-0.8,10-1.5,15.2-2.2c0,5.5,0,10.9,0,16.5C-816.9-746.3-821.8-751-827.1-755.9z"/>
		<path class="st0" d="M-509.5-756.4c-9.4-7.9-16-16-19.7-26.3c-4.9-13.7-1.3-26,6.6-37.3c5.1-7.3,11.2-13.9,17.3-21.4
			c13.7,13.8,26.9,26.9,26.8,47c-0.1,15.7-9.3,27-21.5,37.8c-0.1-2.8-0.3-4.4-0.3-6c0-11.2,0-22.3,0-33.5c0-0.8,0-1.7,0-2.5
			c-0.2-2.9-1.2-5.3-4.7-5.2c-3.3,0.1-4.5,2.2-4.5,5.4c0,11.9,0,23.9,0,35.8C-509.5-760.8-509.5-759.2-509.5-756.4z"/>
		<path class="st0" d="M-515.4-715.2c-21.3,11.8-47.1,11.3-61.4-12c-5.1-8.4-9.1-17.5-13.9-26.8c16.9-6.9,33-11.8,50-6.8
			c11.6,3.5,18.9,12.6,24.1,23.1c2,3.9,3.3,8.2,5.5,13.7c-6.6-3.4-12-6.2-17.3-9c-6.9-3.6-13.9-7.2-20.7-11
			c-3.1-1.7-6.1-2.7-8.1,1.1c-2,3.8,0.8,5.7,3.8,7.3c10.6,5.6,21.2,11.2,31.7,16.8C-519.6-717.6-517.6-716.4-515.4-715.2z"/>
		<path class="st0" d="M-495.2-714.9c12.8-6.8,24.6-13.1,36.5-19.4c1.5-0.8,3.4-1.3,4.2-2.5c1.1-1.7,2.5-4.8,1.8-5.7
			c-1.1-1.5-4.4-2.8-6-2.2c-5.2,2.1-10.1,5-15.1,7.6c-7.8,4.1-15.5,8.2-24.3,12.8c2.1-9.2,5.8-16.6,10.9-23.3
			c11.8-15.4,27.8-17.5,45.3-13.8c7.2,1.5,14.2,4.1,21.8,6.3c-5.2,15.7-11.3,29.8-24,39.7c-12.9,10-27.3,8.8-41.8,4.1
			C-488.7-712.1-491.5-713.4-495.2-714.9z"/>
		<path class="st0" d="M-802.3,96c0-12.1-0.1-24,0.1-35.8c0-1.3,0.7-3,1.7-3.8c12-8.9,24.2-17.6,37.5-27.2
			c4.3,10.4,8.4,20.1,12.3,29.9c0.4,0.9-0.4,3.1-1.3,3.7c-16,11.1-32.1,22-48.3,32.9C-800.7,96-801.5,95.9-802.3,96z"/>
		<path class="st0" d="M-850.8,29.3c11.4,8.2,21.6,15.9,32.2,23c5.4,3.6,7.7,7.6,7.2,14.2c-0.6,9.8-0.2,19.6-0.2,30.1
			c-1.5-0.8-2.6-1.2-3.6-1.9c-15.1-10.3-30.3-20.5-45.3-31c-1.4-1-2.9-3.7-2.5-4.8C-859.3,49.1-855.1,39.6-850.8,29.3z"/>
		<path class="st0" d="M-802.3,132.9c0-7.7-0.1-15,0.1-22.3c0-1.1,0.9-2.6,1.8-3.2c17-11.7,34.1-23.3,51.1-34.9
			c0.2-0.2,0.6-0.1,0.9-0.1C-741,106.4-764.9,130.6-802.3,132.9z"/>
		<path class="st0" d="M-865.4,72c5.1,3.5,9.9,6.8,14.8,10.1c11.7,7.9,23.4,16,35.2,23.7c3,2,4.1,4.2,4,7.7
			c-0.3,6.4-0.1,12.9-0.1,19.4C-849.8,130.5-872.5,105.8-865.4,72z"/>
		<path class="st0" d="M-800.5-19.5c10.7,13.4,21.4,26.8,32.4,40.7c-11.8,8.5-22.5,16.3-33.9,24.5c0-22,0-43.1,0-64.1
			C-801.5-18.8-801-19.2-800.5-19.5z"/>
		<path class="st0" d="M-811.8,45.6c-11.4-8.2-22.1-16-34-24.5c11-13.8,21.8-27.3,32.6-40.8c0.5,0.3,0.9,0.6,1.4,0.9
			C-811.8,2.3-811.8,23.4-811.8,45.6z"/>
		<path class="st0" d="M-1109,133.4c-15.9-1.8-30.1-5.6-41.3-16.3c-15.4-14.7-16.4-33.1-11.8-52.3c5.9-24.5,19.6-45,34.9-64.4
			c5.3-6.7,11.2-13.1,17.7-20.7c0,19.5,0,37.4,0,56.5c-3.6-2.5-6.8-4.7-9.9-6.9c-2.4-1.7-4.8-3.6-7.3-5.3c-2.7-1.9-5.7-2.9-7.9,0.2
			c-2.3,3.2-0.4,5.5,2.4,7.5c6.8,4.8,13.5,9.7,20.2,14.7c1.2,0.9,2.8,2.4,2.8,3.6c0.2,13.4,0.1,26.9,0.1,41.3
			c-7.4-4.9-13.9-9.3-20.5-13.7c-5.2-3.5-10.4-7.1-15.6-10.7c-2.9-2-5.9-3.9-8.5,0.1c-2.6,4,0.6,6,3.4,7.9
			c12.5,8.5,24.9,17.2,37.5,25.5c2.7,1.8,3.8,3.7,3.7,6.9C-1109.1,115.8-1109,124.4-1109,133.4z"/>
		<path class="st0" d="M-1099.6,91.4c0-14.3-0.1-27.6,0.1-40.9c0-1.3,1.3-2.9,2.5-3.8c6.6-5,13.4-9.9,20.2-14.7
			c2.9-2,5.1-4.5,2.7-7.8c-2.4-3.3-5.6-1.9-8.4,0.1c-5.4,3.9-10.7,7.8-16.7,12.2c0-19.1,0-37.2,0-56.7c5.9,6.8,11.4,12.7,16.4,19
			c14.7,18.3,27.6,37.5,34.7,60.2c3.1,10,4.6,20.2,3.4,30.6c-2.4,20-14.4,32.4-32.7,39c-6.8,2.5-14.1,3.7-22.1,5.7
			c0-10.7-0.1-20.5,0.1-30.2c0-1,1.7-2.2,2.9-3c12.9-8.9,25.8-17.8,38.7-26.5c2.9-2,5.2-4.3,2.8-7.7c-2.4-3.5-5.3-2.1-8.2-0.1
			C-1075,74.7-1086.8,82.7-1099.6,91.4z"/>
		<path class="st0" d="M-802.3-165.6c0-11.3-0.2-20.4,0.2-29.5c0.1-1.5,1.8-3.4,3.3-4.4c12.2-8.4,24.4-16.7,36.7-25.1
			c1.4-0.9,3.2-1.7,3.8-3.1c0.8-1.7,1.5-4.6,0.6-5.5c-1.2-1.3-4-2.1-5.8-1.6c-2.3,0.6-4.2,2.5-6.3,3.9
			c-10.4,7.1-20.9,14.2-31.6,21.5c-0.4-0.9-0.8-1.4-0.8-2c0-12.5-0.2-25,0.1-37.5c0-1.8,1.5-4,3-5.2c6.5-5,13.2-9.6,19.8-14.4
			c2.7-2,5.2-4.2,2.7-7.8c-2.5-3.6-5.4-2-8.2,0c-5.4,3.9-10.7,7.8-16.9,12.2c0-18.9,0-36.9,0-56.4c5.7,6.6,10.8,12.2,15.6,18
			c14.9,18.1,27.7,37.4,35.1,59.9c3.6,10.9,4.9,22.1,3.5,33.5c-2.1,16.3-11.5,27.6-25.7,34.4C-782-170.4-791.8-168.7-802.3-165.6z"
			/>
		<path class="st0" d="M-811.8-318.9c0,18,0,36,0,55.1c-6.3-4.5-11.8-8.7-17.5-12.5c-1.6-1.1-4.1-1.9-5.8-1.4
			c-3.9,1.2-4,5.7-0.2,8.6c6.8,5.1,13.8,9.9,20.6,15c1.4,1.1,3,3,3,4.6c0.2,13.1,0.1,26.3,0.1,40.4c-2.1-1.3-3.6-2.1-5-3
			c-10.6-7.2-21.2-14.4-31.8-21.6c-2.7-1.9-5.6-3-7.9,0.2c-2.5,3.6,0,5.8,2.8,7.7c12.7,8.6,25.2,17.3,38,25.8c3,2,4.1,4.1,4,7.7
			c-0.3,8.3-0.1,16.6-0.1,24.9c-34.2-2.1-60.3-22.1-54.6-60.5c3.4-22.7,14.4-42,27.6-60.2c7-9.7,15.1-18.6,22.7-27.9
			c1-1.2,1.7-2.8,2.5-4.2C-812.8-319.8-812.3-319.4-811.8-318.9z"/>
		<path class="st0" d="M-489.3-304.2c-8.7,17-17,33.2-25.7,50.1c-3.5-6.8-6.5-12.8-9.6-18.9c-1.5-2.9-3.2-6-7.2-3.9
			c-4.1,2.1-2.8,5.4-1.2,8.6c3.8,7.2,7.5,14.5,11.1,21.8c0.6,1.3,1.1,3.3,0.5,4.5c-5.8,11.8-11.9,23.4-17.9,35.1
			c-0.1,0.2-0.5,0.4-1.1,0.8c-6.1-11.1-12.2-22.2-18.2-33.2c-1-1.7-1.9-3.5-2.9-5.3c-1.5-2.8-3.5-4.7-6.8-3c-3.5,1.8-3,4.7-1.4,7.7
			c3.4,6.3,6.8,12.6,10.2,18.9c4.2,7.7,8.6,15.4,12.6,23.2c0.7,1.4,1,3.6,0.4,5c-4,8.2-8.2,16.3-12.4,24.4
			c-26.9-14.9-42.4-43.7-24.2-73.7c9.1-15,22.2-26,36.7-35.3c16.8-10.9,34.9-19.1,53.8-25.9C-491.8-303.7-491-303.8-489.3-304.2z"/>
		<path class="st0" d="M-550.9-163.3c4.4-8.5,8.5-16.1,12.2-23.9c1.3-2.8,3.1-3.9,6-4.2c14.2-1.7,28.4-3.6,42.6-5.3
			c7.9-1,10.4-2.3,9.4-6c-1.7-6.5-7-3.6-10.8-3.2c-12.9,1.3-25.7,3.2-39.1,4.9c0.2-1.3,0.2-2.1,0.5-2.7c5.6-11,11.1-22,16.8-32.8
			c0.7-1.3,2.5-2.6,4-2.9c8.3-1.5,16.7-2.8,25.1-4c3.5-0.5,6.4-1.7,5.6-5.9c-0.7-3.9-3.5-4.2-6.9-3.6c-6.7,1.2-13.4,2.1-21.2,3.2
			c8.7-17,16.9-33.1,25.1-49.2c0.4,0,0.8,0,1.3,0c2,8.1,4.2,16.3,6,24.5c4.7,21.4,6.7,43.1,3.8,65c-1.7,12.7-5.6,24.7-13.7,34.9
			c-13.4,17.1-31.5,19.6-51.4,15.7C-540.4-159.9-545.3-161.7-550.9-163.3z"/>
		<path class="st0" d="M-1097.5-194.2c9.3-7,18.5-14,27.8-21c3-2.3,4.2-4.9,1.3-7.9c-2.4-2.5-4.8-1.2-7.1,0.6
			c-7.7,5.8-15.3,11.6-24,18.1c0-8.8-0.1-16.7,0.1-24.5c0-1.1,1.7-2.3,2.9-3.1c9-6.9,18-13.7,27-20.5c2.6-2,4-4.8,1.5-7.1
			c-1.4-1.2-4.6-0.6-7-0.4c-0.8,0-1.6,1.1-2.4,1.7c-6,4.5-11.9,9.1-17.9,13.6c-1.1,0.9-2.4,1.6-4.3,2.9c0-11.1-0.1-21.3,0-31.6
			c0-3.2-1.4-5.3-4.5-5.5c-3.1-0.2-4.8,1.9-4.8,5.1c0,1.3-0.1,2.7-0.1,4c0,7.5,0,15,0,22.5c0,1.6-0.2,3.2-0.3,5.7
			c-7.6-5.7-14.4-10.9-21.3-16c-0.9-0.7-1.8-1.4-2.8-2.1c-2.6-2-5.4-2.5-7.5,0.3c-2,2.8-0.8,5.4,1.8,7.3
			c8.7,6.6,17.4,13.3,26.3,19.8c2.5,1.8,3.9,3.6,3.7,6.9c-0.3,6.6-0.1,13.2-0.1,21.2c-7.7-5.7-14.5-10.7-21.3-15.8
			c-1.2-0.9-2.2-2-3.5-2.8c-2.5-1.7-5.6-2.1-6.8,0.9c-0.7,1.8,0.1,5.5,1.6,6.7c8.3,6.9,17.1,13.2,25.7,19.8c0.7,0.5,1.3,1,1.9,1.5
			c-7.2,10.9-24.2,16.5-38.1,12.6c-12-3.4-20-14-20.8-28c-0.8-14.2,2.9-27.4,11.5-38.5c17.4-22.5,35.5-44.4,53.4-66.5
			c0.3-0.4,0.8-0.5,1.7-1.1c8,9.5,16.3,18.8,24,28.6c11.2,14.2,22.5,28.4,32.8,43.3c7.5,10.9,10.1,23.7,8.6,37.2
			c-2.1,19.4-20.4,30.8-40.2,24.8C-1085.9-184.2-1092.6-188.5-1097.5-194.2z"/>
		<path class="st0" d="M-1394.8-576.3c17.5,16.8,33.4,34,37.8,58.7c1.6,8.8-0.3,17.2-3.4,25.4c-5.7,15.2-16.1,26.8-29.6,37.5
			c0-3,0-4.9,0-6.8c0-21-0.1-42-0.1-63c0-1.5,0.4-3.3-0.3-4.4c-1-1.6-2.9-3.6-4.4-3.6c-1.5,0-3.4,2-4.4,3.6
			c-0.7,1.1-0.2,2.9-0.2,4.4c0,22.8,0,45.6,0,69.7c-2.3-1.8-3.9-3-5.4-4.3c-10.4-8.9-18.7-19.4-23.9-32.1
			c-5.5-13.4-5.6-26.8,0.1-40.2C-1421.3-549.1-1408.9-563-1394.8-576.3z"/>
	</g>
</g>
<path class="st3" d="M454.7,33.7c-4.4-1.2-8.6-2-12.5-3.6c-13-5.5-17.6-13.8-17.7-25.9c-0.1-6.2,1.4-12.4,2.3-18.6
	c0.4-2.4,1.9-3.5,4.5-3c9.2,1.6,18.2,3.9,25.6,10.1c1.7,1.4,3.1,3,4.9,4.8c0.2-1.5,0.3-2.7,0.5-4c1.4-9.1,6.4-15.7,14.4-20.1
	c6.2-3.3,12.8-5.3,19.7-6.4c1.8-0.3,3.2,0,3.9,2c2.7,8.5,4,17.2,2.5,26.1c-1.5,8.7-6.8,14.5-14.6,18.9c2.2,0.7,4.1,1.1,5.8,1.8
	c9.5,4.1,16.1,11.4,21.7,19.8c0.5,0.8,0.4,3-0.3,3.6c-7.6,7.1-16,12.9-26.5,14.2c-10.7,1.3-18.7-4.1-25.4-11.8
	c-1.4-1.6-2.6-3.5-4.2-5.6c-2.8,4.5-5.5,8.8-8.2,13.1c-0.6,1-1.1,2.3-1.9,2.9c-0.9,0.7-2.5,1.4-3.4,1.1c-1.5-0.6-1.7-2.2-0.8-3.7
	c2.6-4.2,5.2-8.4,7.8-12.6C453.4,35.9,454,34.8,454.7,33.7z M469.3,10.2c0.8-1.3,1.3-2.1,1.8-2.8c3.5-5.6,6.9-11.1,10.3-16.7
	c0.9-1.5,2.1-2.1,3.7-1.2c1.6,0.9,1.4,2.3,0.7,3.8c-0.2,0.4-0.5,0.8-0.7,1.2c-3.2,5.2-6.5,10.4-9.7,15.6c-0.5,0.7-0.9,1.5-1.6,2.9
	c8.8-1.5,16.3-4.1,20.9-11.4c5.9-9.3,3.5-19.2,1.1-29.6c-5,1.7-9.7,3-14.2,4.9c-6.9,3-12.2,7.6-13.8,15.4
	C466.5-1.8,467.2,3.9,469.3,10.2z M454.7,27.7c-0.7-1.2-1.3-2.3-1.9-3.4c-3.3-5.7-6.6-11.3-9.9-17c-0.9-1.6-1.7-3.3,0.3-4.5
	c2-1.2,3.1,0.1,4.1,1.8c2.1,3.7,4.3,7.4,6.5,11.1c1.7,2.8,3.4,5.7,5.4,9.2c0.6-3.2,1.2-5.6,1.4-8c0.6-6.4-0.1-12.8-4.5-17.7
	c-6.4-7.3-15.3-9.6-25.2-11.3c-0.5,5.7-1.3,11.1-1.3,16.5C429.5,19.3,441.4,27,454.7,27.7z M464,33.6c1.3,1.8,2.2,3.2,3.3,4.5
	c5.4,6.4,11.7,11.1,20.6,10.2c8.8-0.9,15.7-5.7,22.6-11.5c-2.9-3.2-5.4-6.5-8.3-9.2c-7.1-6.8-15.1-10.4-25.1-6.7
	c-4.3,1.6-8.2,4-11.8,7.7c5.4,0.4,10.2,0.7,15,1.1c3.1,0.2,6.2,0.3,9.2,0.8c0.9,0.2,2.1,1.7,2.2,2.7c0.1,0.7-1.5,1.7-2.5,2.2
	c-0.7,0.3-1.8,0-2.7-0.1C479.2,34.7,471.9,34.2,464,33.6z"/>
<g>
	<path class="st0" d="M75.4,115.2c-4.8,0-9.7-1.2-14.8-3.6c-2.7-1.3-5.2-2.9-7.8-4.6c-1.2-0.7-2.3-1.5-3.6-2.3
		c-0.7,0.7-1.5,1.5-2.2,2.2c-2.5,2.6-5.1,5.2-7.9,7.7c-0.4,0.4-1.1,0.5-1.5,0.5c-0.3,0-0.7,0-1.1-0.1c-0.3,0-0.7-0.1-1-0.1l-0.7,0
		l0-0.5c0-0.3,0-0.7,0-1c0-0.8,0-1.7,0.3-2.5c0.2-0.7,0.8-1.1,1.3-1.6c0.2-0.2,0.4-0.3,0.6-0.5l8.1-8.1c-0.8-1.5-1.7-3-2.5-4.4
		c-2-3.3-3.8-6.5-5.2-9.9C32,73.7,35.7,60.1,47,51c8.4-6.7,18.4-11,32.7-13.9c9.2-1.9,19-2.8,29.3-2.8c0.9,0,1.8,0,2.7,0
		c3.1,0,4.1,1,4.2,4.1c0.2,17.6-2,32.7-6.7,46.2c-3.3,9.4-7.3,16.2-12.7,21.4C90.1,112.1,83,115.2,75.4,115.2z M53.5,100.7
		c1.4,0.8,2.8,1.6,4.1,2.3c3.2,1.9,6.2,3.6,9.4,4.8c2.9,1,5.8,1.6,8.6,1.6c4.8,0,9.3-1.6,13.3-4.7c4.6-3.5,8.3-8.1,11-13.6
		c4.8-9.6,7.8-20.8,9.2-35.2c0.3-2.7,0.4-5.4,0.6-8.2c0.1-1,0.1-1.9,0.2-3L90.5,64.2l2.5,0.4c2.5,0.4,4.9,0.8,7.3,1.2
		c1.2,0.2,2.4,0.5,3.1,1.4c0.4,0.6,0.5,1.3,0.4,2.2c-0.3,1.6-1.3,2.5-3,2.5c-0.5,0-1.1-0.1-1.5-0.1c-1.2-0.2-2.4-0.4-3.5-0.6
		c-3-0.5-6.1-1-9.1-1.4c-0.1,0-0.3,0-0.4,0c-0.9,0-1.8,0.3-2.2,0.7c-3.9,3.8-7.8,7.7-11.6,11.5l-2.4,2.4c0,0-0.1,0.2-0.1,0.3l5.2,1
		c4.7,0.9,9.4,1.8,14,2.7c0.4,0.1,0.7,0.1,1.1,0.2c1,0.1,2,0.3,2.9,0.8c1,0.6,1.9,2.1,1.8,3.2c-0.1,1.1-2,2-2.6,2.3
		c-0.2,0.1-0.5,0.1-0.7,0.1c-0.5,0-1-0.1-1.5-0.2c-0.2-0.1-0.4-0.1-0.6-0.1c-2.3-0.4-4.5-0.9-6.8-1.3c-5.3-1-10.8-2.1-16.1-3
		c-0.3,0-0.6-0.1-0.9-0.1c-0.7,0-1.3,0.1-1.5,0.4c-2.6,2.4-5,4.9-7.9,7.8C55.3,98.9,54.4,99.8,53.5,100.7z M105.4,40
		c-0.6,0.2-1.2,0.4-1.8,0.4c-2.1,0.2-4.2,0.4-6.4,0.6c-4.1,0.3-8.3,0.7-12.4,1.4c-9.6,1.5-22,4.3-32.4,12
		C45.6,59.5,41.7,65.6,41,72.5c-0.8,7.6,2.4,16,8.9,23.5c0.8-0.8,1.5-1.5,2.3-2.3c2.1-2.2,4.4-4.4,6.6-6.5c1.3-1.2,1.6-2.2,1.2-3.9
		C59,77.9,58,72.4,57,67.1c-0.5-2.5-0.9-5-1.4-7.5c-0.2-1.2-0.4-2.5,0.3-3.4c0.4-0.6,1.1-1,2-1.1c0.2,0,0.5-0.1,0.7-0.1
		c2.3,0,2.7,2.4,2.9,3.3c1.2,6.6,2.5,13.2,3.8,19.9c0.1,0.6,0.3,1.1,0.4,1.8c0,0.1,0.1,0.2,0.1,0.3l3-3c3.9-3.9,7.6-7.6,11.3-11.4
		c0.4-0.4,0.6-1.6,0.4-2.4c-0.3-2.3-0.7-4.6-1.1-6.9c-0.3-2.1-0.7-4.2-1-6.3c-0.2-1.2,0.1-2.4,0.8-3.1c0.5-0.6,1.2-0.9,1.9-0.9
		c0.5,0,0.9,0.1,1.4,0.4c1,0.5,1.7,1.9,1.9,3c0.5,2.6,0.9,5.2,1.4,7.9c0.1,0.8,0.2,1.5,0.4,2.3l19.6-19.6l0-0.2
		C105.5,40,105.5,40,105.4,40z"/>
	<path class="st0" d="M109,34.8c0.9,0,1.8,0,2.7,0c2.9,0,3.6,0.8,3.7,3.6c0.2,15.7-1.4,31.1-6.6,46c-2.8,7.9-6.5,15.3-12.6,21.2
		c-6.3,6.1-13.3,9-20.7,9c-4.7,0-9.6-1.2-14.5-3.5c-3.9-1.8-7.5-4.4-11.7-7c-3.3,3.3-6.7,6.9-10.4,10.2c-0.3,0.2-0.7,0.3-1.2,0.3
		c-0.7,0-1.4-0.1-2.1-0.1c-0.1,0-0.1,0-0.2,0c0.1-1.1-0.1-2.3,0.3-3.3c0.3-0.7,1.2-1.3,1.8-1.9c2.9-2.9,5.8-5.8,8.3-8.3
		c-2.8-5.1-5.8-9.6-7.9-14.6c-5.4-13-1.5-26.2,9.5-35C56.9,43.8,68,40,79.8,37.6C89.4,35.6,99.2,34.8,109,34.8 M49.9,96.8
		c3.1-3.1,6.1-6.2,9.3-9.2c1.4-1.3,1.8-2.5,1.4-4.3c-1.6-7.9-3-15.8-4.5-23.7c-0.3-1.8-0.4-3.5,1.8-3.9c0.2,0,0.4-0.1,0.6-0.1
		c1.6,0,2.1,1.4,2.4,2.9c1.2,6.6,2.5,13.2,3.8,19.9c0.2,0.9,0.4,1.8,0.7,3c5.2-5.2,10.2-10.1,15-15.1c0.6-0.6,0.7-1.9,0.6-2.8
		c-0.6-4.4-1.4-8.8-2.1-13.2c-0.3-2,0.8-3.4,2.1-3.4c0.4,0,0.7,0.1,1.1,0.3c0.8,0.4,1.5,1.7,1.7,2.7c0.7,3.5,1.2,7.1,1.9,11.2
		c7.1-7.1,13.8-13.8,20.5-20.5c0-0.3-0.1-0.7-0.1-1c-0.8,0.2-1.6,0.5-2.5,0.6c-6.3,0.6-12.6,0.9-18.8,1.9
		C73.1,43.7,61.8,46.8,52.1,54C35.7,66.1,38,83.3,49.9,96.8 M100.8,71.3c-0.5,0-1-0.1-1.4-0.1c-4.2-0.7-8.4-1.5-12.7-2
		c-0.1,0-0.3,0-0.5,0c-0.9,0-2,0.3-2.6,0.8c-4.7,4.6-9.3,9.2-14,13.9c-0.2,0.2-0.2,0.6-0.4,1c6.7,1.3,13.2,2.5,19.7,3.8
		c1.3,0.2,2.7,0.2,3.8,0.9c0.8,0.5,1.6,1.8,1.6,2.8c0,0.7-1.4,1.5-2.3,1.8c-0.2,0.1-0.4,0.1-0.6,0.1c-0.6,0-1.3-0.2-2-0.4
		c-7.6-1.4-15.3-2.9-22.9-4.3c-0.3-0.1-0.6-0.1-1-0.1c-0.7,0-1.5,0.1-1.9,0.5c-3.5,3.3-6.8,6.7-11,10.9c5.1,2.7,9.4,5.7,14.1,7.4
		c2.9,1,5.9,1.6,8.7,1.6c4.8,0,9.4-1.5,13.6-4.8c4.8-3.7,8.4-8.3,11.2-13.7c5.6-11.1,8-23.1,9.2-35.3c0.4-4,0.6-7.9,0.9-12.5
		c-7.2,7.2-14,14-21,21c3.9,0.6,7.4,1.2,10.8,1.7c1.8,0.3,3.4,0.8,3,3.1C103,70.9,102,71.3,100.8,71.3 M109,33.8
		c-10.3,0-20.2,1-29.4,2.9c-14.3,2.9-24.5,7.3-32.9,14c-11.5,9.2-15.2,23-9.8,36.2c1.4,3.4,3.3,6.6,5.2,10c0.8,1.3,1.6,2.7,2.3,4.1
		l-1.5,1.5l-6.3,6.3c-0.2,0.2-0.3,0.3-0.5,0.5c-0.6,0.5-1.2,1-1.5,1.8c-0.3,0.9-0.3,1.8-0.3,2.6c0,0.3,0,0.6,0,1l-0.1,1.1l1.1,0
		l0.1,0c0.3,0,0.6,0,1,0.1c0.4,0,0.8,0.1,1.1,0.1c0.5,0,1.3-0.1,1.9-0.6c2.8-2.5,5.4-5.2,7.9-7.7c0.7-0.7,1.3-1.3,1.9-2
		c1.1,0.7,2.2,1.4,3.2,2c2.7,1.7,5.2,3.3,7.9,4.6c5.1,2.4,10.1,3.6,15,3.6c7.8,0,15-3.1,21.4-9.3c5.5-5.3,9.6-12.2,12.9-21.6
		c4.7-13.5,6.9-28.7,6.7-46.4c0-3.4-1.2-4.5-4.6-4.6C110.8,33.8,109.9,33.8,109,33.8L109,33.8z M50,95.3c-6.2-7.3-9.2-15.4-8.5-22.7
		c0.7-6.8,4.5-12.8,11.2-17.8c10.4-7.7,22.7-10.4,32.2-11.9c4.1-0.6,8.3-1,12.4-1.3c2.1-0.2,4.3-0.4,6.4-0.6c0.2,0,0.4,0,0.5-0.1
		L92,53l-5.7,5.7c-0.1-0.5-0.1-0.9-0.2-1.3c-0.4-2.7-0.8-5.3-1.4-7.9c-0.2-1.2-1-2.7-2.2-3.4c-0.5-0.3-1.1-0.4-1.6-0.4
		c-0.9,0-1.7,0.4-2.2,1c-0.8,0.9-1.1,2.2-0.9,3.5c0.3,2.1,0.7,4.3,1,6.3c0.4,2.3,0.8,4.6,1.1,6.9c0.1,0.8-0.1,1.7-0.3,2
		C76,69.3,72.3,73,68.3,76.9c-0.8,0.8-1.6,1.6-2.4,2.4c-0.1-0.4-0.2-0.8-0.3-1.2c-1.5-7.6-2.7-13.9-3.8-19.9
		c-0.2-0.9-0.7-3.7-3.4-3.7c-0.2,0-0.5,0-0.8,0.1c-1,0.2-1.8,0.6-2.3,1.3c-0.7,1.1-0.6,2.4-0.4,3.8c0.5,2.5,0.9,5,1.4,7.5
		c1,5.3,2,10.8,3.1,16.2c0.3,1.5,0,2.4-1.1,3.4c-2.3,2.1-4.5,4.4-6.7,6.5C51.2,94,50.6,94.6,50,95.3L50,95.3z M91.5,63.8l17.7-17.7
		c0,0.5-0.1,1.1-0.1,1.6c-0.2,2.8-0.3,5.5-0.6,8.2c-1.4,14.3-4.3,25.4-9.1,35c-2.7,5.4-6.4,9.9-10.9,13.4c-3.9,3.1-8.3,4.6-13,4.6
		c-2.7,0-5.5-0.5-8.4-1.5c-3.2-1.1-6.1-2.9-9.3-4.7c-1.1-0.7-2.3-1.3-3.5-2c0.8-0.8,1.5-1.5,2.2-2.2c2.8-2.9,5.3-5.3,7.9-7.8
		c0.1-0.1,0.5-0.2,1.2-0.2c0.3,0,0.6,0,0.8,0.1c5.4,1,10.8,2,16.1,3c2.3,0.4,4.5,0.9,6.8,1.3c0.2,0,0.4,0.1,0.6,0.1
		c0.5,0.1,1,0.3,1.6,0.3c0.3,0,0.6,0,0.9-0.1c0,0,2.9-1,3-2.7c0.1-1.3-0.9-3-2-3.7c-0.9-0.6-2-0.7-3.1-0.8c-0.4,0-0.7-0.1-1.1-0.2
		c-4.8-0.9-9.6-1.8-14.5-2.8l-3.8-0.7l1.9-2c3.8-3.8,7.7-7.7,11.6-11.5c0.3-0.3,1.1-0.6,1.9-0.6c0.1,0,0.2,0,0.3,0
		c3,0.4,6.1,0.9,9.1,1.4c1.2,0.2,2.4,0.4,3.5,0.6c0.4,0.1,1,0.2,1.6,0.2c2.4,0,3.2-1.6,3.4-2.9c0.2-1,0-1.9-0.5-2.6
		c-0.8-1.1-2.1-1.4-3.4-1.6c-2.4-0.4-4.8-0.8-7.4-1.2L91.5,63.8L91.5,63.8z"/>
</g>
</svg>
