<?xml version="1.0" encoding="utf-8"?>
<!-- Generator: Adobe Illustrator 28.0.0, SVG Export Plug-In . SVG Version: 6.00 Build 0)  -->
<svg version="1.0" id="Layer_1" xmlns="http://www.w3.org/2000/svg" xmlns:xlink="http://www.w3.org/1999/xlink" x="0px" y="0px"
	 viewBox="0 0 50 50" style="enable-background:new 0 0 50 50;" xml:space="preserve">
<style type="text/css">
	.st0{fill:#FFFFFF;}
</style>
<g id="kxxLF0.tif_00000003824846439476314170000001334183254392932520_">
	<g>
		<path class="st0" d="M32.9,0.5c0.4,0.2,0.5,0.6,0.7,1c1.2,3.7,2.5,7.4,3.8,11.1c0,0.1,0,0.1,0.1,0.2c0.8-0.2,1.6-0.2,2.5-0.1
			c1.9,0.2,3.5,1,4.8,2.4c1.5,1.6,2.2,3.5,2,5.7c-0.2,2.8-1.6,4.9-4.1,6.2c-0.2,0.1-0.2,0.2-0.2,0.4c1.1,3.2,2.2,6.5,3.3,9.7
			c0.2,0.6,0.4,1.2,0.6,1.8c0.1,0.3,0.1,0.5-0.1,0.8c-0.2,0.2-0.5,0.3-0.8,0.2c-2.6-0.6-5.3-1.1-7.9-1.7c-3.5-0.7-6.9-1.5-10.4-2.2
			c-1.3-0.3-2.5-0.6-3.8-0.8c-0.2,0-0.4,0-0.6,0c-0.5,0.1-1,0.3-1.5,0.5c0.1,0.2,0.3,0.5,0.4,0.7c1.7,3,3.4,5.9,5.1,8.9
			c0.8,1.4,0.2,2.8-1.3,3.4c-0.8,0.3-1.7,0.6-2.5,0.9c-1.1,0.4-2.2,0-2.7-1c-1.5-2.6-2.9-5.1-4.4-7.7c-0.5-0.8-1-1.7-1.4-2.5
			C14.3,38,14.2,38,14,38c-1.3,0.5-2.5,0-3-1.3c-0.1-0.1-0.1-0.2-0.3-0.1c-0.7,0.2-1.4,0.5-2.2,0.7c-1,0.2-2-0.3-2.3-1.3
			c-0.9-2.8-1.9-5.5-2.8-8.2c-0.4-1.2,0.1-2.2,1.3-2.7c0.6-0.2,1.2-0.4,1.9-0.6c0.2,0,0.2-0.1,0.1-0.3C6.3,23,7,21.7,8.3,21.3
			c2.9-1,5.8-2,8.7-3c0.1-0.1,0.3-0.2,0.4-0.3c3.3-3.9,6.7-7.9,10-11.8c1.5-1.7,3-3.5,4.4-5.2c0.2-0.2,0.4-0.4,0.6-0.6
			C32.6,0.5,32.8,0.5,32.9,0.5z M32.4,2.7c-0.4,0.5-0.9,1-1.3,1.5c-2.7,3.1-5.3,6.3-8,9.4c-1.5,1.8-3,3.5-4.5,5.3
			c-0.1,0.1-0.1,0.2-0.1,0.3c0.7,2,1.4,4,2,6c0.9,2.7,1.8,5.4,2.8,8.1c0.1,0.2,0.1,0.2,0.3,0.3c2,0.4,4,0.8,6,1.3
			c2.4,0.5,4.8,1,7.2,1.5c2.2,0.5,4.3,0.9,6.5,1.4c0.3,0.1,0.7,0.1,1.1,0.2C40.4,26.3,36.5,14.5,32.4,2.7z M13.1,36.7
			c0,0,0.1,0,0.2-0.1c1-0.3,2-0.7,2.9-1c1.8-0.6,3.6-1.2,5.5-1.9c0.2-0.1,0.2-0.1,0.2-0.3c-0.3-0.7-0.5-1.4-0.7-2.2
			c-1.3-3.7-2.5-7.5-3.8-11.2c-0.1-0.2-0.1-0.3-0.4-0.2c-1.6,0.5-3.1,1.1-4.7,1.6c-1.2,0.4-2.4,0.8-3.6,1.2c-0.5,0.2-0.7,0.5-0.5,1
			c0.3,1,0.7,2,1,3c0.8,2.3,1.6,4.6,2.3,6.9c0.3,0.8,0.6,1.7,0.8,2.5C12.5,36.5,12.8,36.7,13.1,36.7z M15.7,37.5
			c0.1,0.1,0.1,0.2,0.1,0.3c1.6,2.8,3.2,5.5,4.8,8.3c0.3,0.5,0.6,1.1,0.9,1.6c0.2,0.3,0.5,0.5,0.8,0.4c1-0.3,1.9-0.6,2.9-1
			c0.2-0.1,0.3-0.3,0.4-0.4c0.2-0.3-0.1-0.6-0.2-0.9c-0.8-1.4-1.6-2.9-2.5-4.3c-1-1.7-2-3.4-3-5.2c-0.1-0.1-0.1-0.2-0.2-0.1
			c-1,0.3-1.9,0.7-2.9,1C16.4,37.2,16,37.3,15.7,37.5z M41.8,25.5c2.5-1.2,4.2-4.3,3-7.5c-1.3-3.4-4.7-4.3-6.9-3.8
			C39.2,18,40.5,21.8,41.8,25.5z M8.2,35.9c0,0,0.1,0,0.2,0c0.7-0.2,1.3-0.4,2-0.6c0.2-0.1,0.1-0.2,0.1-0.3
			c-0.3-0.8-0.5-1.5-0.8-2.3c-0.8-2.2-1.5-4.5-2.3-6.7c-0.1-0.2-0.1-0.2-0.3-0.1c-0.3,0.1-0.7,0.2-1,0.4c-0.3,0.1-0.6,0.2-0.8,0.3
			c-0.4,0.2-0.4,0.4-0.3,0.7C5,27.6,5.1,28,5.3,28.4c0.8,2.3,1.6,4.7,2.4,7C7.8,35.8,7.9,35.9,8.2,35.9z"/>
	</g>
</g>
</svg>
