<?xml version="1.0" encoding="utf-8"?>
<!-- Generator: Adobe Illustrator 28.1.0, SVG Export Plug-In . SVG Version: 6.00 Build 0)  -->
<svg version="1.1" id="Layer_1" xmlns="http://www.w3.org/2000/svg" xmlns:xlink="http://www.w3.org/1999/xlink" x="0px" y="0px"
	 viewBox="0 0 251.1 57.4" style="enable-background:new 0 0 251.1 57.4;" xml:space="preserve">
<style type="text/css">
	.st0{fill:#D0D0D0;}
</style>
<g>
	<polygon class="st0" points="81.5,34.4 76.9,24.1 72.8,24.1 68.7,34.4 64.9,20.9 57.5,20.9 65.1,44 70.1,44 75,32.2 79.7,44 
		84.8,44 92.7,20.9 85.3,20.9 	"/>
	<path class="st0" d="M111.1,23.8c-0.4-0.5-0.9-1.1-1.5-1.5c-0.7-0.5-1.5-1.1-2.4-1.3c-0.9-0.4-2-0.5-3.1-0.5c-2,0-3.8,0.5-5.4,1.6
		c-1.7,1.1-2.7,2.6-3.6,4.2c-0.9,1.8-1.3,3.8-1.3,6.1c0,2.4,0.4,4.4,1.3,6.1s2.2,3.3,3.6,4.4s3.3,1.6,5.2,1.6c1.1,0,2-0.2,2.9-0.5
		c0.9-0.4,1.8-0.7,2.6-1.3c0.5-0.4,1.1-0.9,1.5-1.5v2.7h7v-23h-6.8V23.8z M108.7,37.7c-0.7,0.5-1.6,0.7-2.7,0.7s-2-0.2-2.7-0.7
		c-0.7-0.5-1.5-1.3-1.8-2.2c-0.4-0.9-0.7-2-0.7-3.3c0-1.3,0.2-2.4,0.7-3.3c0.4-0.9,1.1-1.6,1.8-2.2c0.7-0.5,1.6-0.7,2.7-0.7
		s2,0.2,2.7,0.7s1.5,1.3,1.8,2.2c0.4,0.9,0.7,2,0.7,3.3c0,1.3-0.2,2.4-0.7,3.3C110.2,36.6,109.4,37.3,108.7,37.7z"/>
	<path class="st0" d="M140.1,33c-0.5-0.7-1.5-1.3-2.4-1.6c-0.9-0.5-2.2-0.9-3.5-1.3c-1.1-0.4-2-0.5-2.6-0.7
		c-0.7-0.2-1.1-0.4-1.5-0.5c-0.4-0.2-0.5-0.4-0.7-0.7c-0.2-0.2-0.2-0.5-0.2-0.9s0-0.5,0.2-0.7c0.2-0.2,0.4-0.4,0.5-0.5
		c0.2-0.2,0.5-0.4,0.9-0.4s0.7-0.2,1.1-0.2c0.5,0,1.3,0.2,2,0.4c0.7,0.2,1.5,0.5,2,0.9c0.7,0.4,1.3,0.9,1.8,1.3l3.6-4.2
		c-0.7-0.7-1.6-1.3-2.7-1.8s-2.2-0.9-3.3-1.3s-2.4-0.4-3.6-0.4c-1.3,0-2.4,0.2-3.5,0.5c-1.1,0.3-2.2,0.9-2.9,1.5
		c-0.9,0.7-1.5,1.5-2,2.2c-0.5,0.9-0.7,1.8-0.7,2.9c0,0.9,0.2,1.8,0.5,2.6c0.4,0.7,0.7,1.5,1.3,2c0.7,0.7,1.5,1.3,2.6,1.6
		c1.1,0.5,2.2,0.9,3.6,1.3c0.9,0.2,1.8,0.5,2.4,0.7c0.5,0.2,1.1,0.4,1.3,0.5c0.5,0.4,0.7,0.7,0.7,1.3c0,0.4,0,0.5-0.2,0.7
		s-0.4,0.4-0.5,0.5c-0.2,0.2-0.5,0.4-0.7,0.4c-0.4,0-0.7,0.2-1.1,0.2c-1.1,0-2.2-0.2-3.3-0.5c-1.1-0.4-2.2-1.1-3.1-2l-4.2,3.6
		c1.1,1.3,2.4,2.2,4.2,2.9c1.8,0.7,3.8,1.1,5.9,1.1c1.8,0,3.5-0.4,4.9-0.9c1.5-0.7,2.6-1.6,3.5-2.7c0.9-1.1,1.3-2.6,1.3-4
		c0-0.7-0.2-1.5-0.4-2.2C140.8,34.1,140.5,33.5,140.1,33z"/>
	<path class="st0" d="M163.8,21.4c-1.3-0.7-2.7-1.1-4.4-1.1c-1.3,0-2.6,0.2-3.6,0.7c-1,0.5-2.2,1.3-2.9,2c-0.2,0.2-0.2,0.2-0.4,0.4
		V11.9h-6.8V44c0.4,0,0.9,0,1.5,0c0.5,0,1.3,0,2.2,0h3.5V30.2c0-0.5,0.2-1.1,0.4-1.5c0.2-0.5,0.5-0.9,0.9-1.3s0.9-0.7,1.3-0.9
		c0.5-0.2,1.1-0.4,1.6-0.4c0.7,0,1.5,0.2,2,0.4c0.5,0.4,0.9,0.7,1.3,1.5c0.2,0.5,0.4,1.5,0.4,2.4v13.5h7V29.8c0-2-0.4-3.8-0.9-5
		C165.7,23.2,164.8,22.1,163.8,21.4z"/>
	<polygon class="st0" points="182,15.1 175.1,15.1 175.1,20.9 171,20.9 171,27.1 175.1,27.1 175.1,44 182,44 182,27.1 186.4,27.1 
		186.4,20.9 182,20.9 	"/>
	<path class="st0" d="M205.7,23.8c-0.4-0.5-0.9-1.1-1.5-1.5c-0.7-0.5-1.5-1.1-2.4-1.3c-0.9-0.4-2-0.5-3.1-0.5c-2,0-3.8,0.5-5.4,1.6
		c-1.6,1.1-2.7,2.6-3.6,4.2c-0.9,1.8-1.3,3.8-1.3,6.1c0,2.4,0.4,4.4,1.3,6.1s2.2,3.3,3.6,4.4c1.5,1.1,3.3,1.6,5.2,1.6
		c1.1,0,2-0.2,2.9-0.5c0.9-0.4,1.8-0.7,2.6-1.3c0.5-0.4,1.1-0.9,1.5-1.5v2.7h7v-23h-6.8L205.7,23.8L205.7,23.8z M205.2,35.7
		c-0.4,0.9-1.1,1.6-1.8,2.2c-0.7,0.5-1.6,0.7-2.7,0.7c-1.1,0-2-0.2-2.7-0.7c-0.7-0.5-1.5-1.3-1.8-2.2c-0.4-0.9-0.7-2-0.7-3.3
		c0-1.3,0.2-2.4,0.7-3.3c0.4-0.9,1.1-1.6,1.8-2.2c0.7-0.5,1.6-0.7,2.7-0.7c1.1,0,2,0.2,2.7,0.7c0.7,0.5,1.5,1.3,1.8,2.2
		c0.4,0.9,0.7,2,0.7,3.3C205.7,33.7,205.6,34.8,205.2,35.7z"/>
	<path class="st0" d="M235.1,20.9l-0.2,2.6c-0.2-0.2-0.4-0.4-0.7-0.7c-0.5-0.4-1.1-0.9-1.8-1.1c-0.7-0.4-1.5-0.5-2.2-0.7
		c-0.7-0.2-1.6-0.4-2.6-0.4c-2,0-3.8,0.5-5.4,1.6c-1.6,1.1-2.9,2.4-3.8,4.2s-1.5,3.8-1.5,6.1c0,2.2,0.5,4.4,1.5,5.9
		c0.9,1.8,2.2,3.1,3.8,4c1.6,0.9,3.5,1.5,5.5,1.5c1.3,0,2.6-0.2,3.6-0.7c1-0.5,2.2-1.1,2.9-1.8l0.2-0.2v1.3c0,1.3-0.2,2.4-0.7,3.3
		c-0.5,0.9-1.1,1.6-2.2,2c-0.9,0.4-2.2,0.7-3.6,0.7c-0.9,0-1.6,0-2.6-0.2c-0.7-0.2-1.6-0.4-2.4-0.7c-0.7-0.4-1.5-0.7-2-1.1l-2.4,4.9
		c1.1,0.9,2.7,1.6,4.6,2.2c1.8,0.5,3.8,0.9,5.5,0.9c2,0,3.6-0.2,5.2-0.7c1.5-0.5,2.9-1.3,4-2.4c1.1-1.1,2-2.4,2.6-3.8
		c0.5-1.5,0.9-3.1,0.9-5V20.9H235.1z M234.2,35.5c-0.4,0.9-1.1,1.6-2,2.2c-0.9,0.5-1.8,0.7-2.9,0.7c-1.1,0-2-0.2-2.9-0.7
		c-0.7-0.5-1.5-1.3-1.8-2.2c-0.4-0.9-0.7-2-0.7-3.3c0-1.3,0.2-2.4,0.7-3.3c0.4-0.9,1.1-1.6,1.8-2.2c0.7-0.5,1.8-0.7,2.9-0.7
		c1.1,0,2.2,0.2,2.9,0.7c0.9,0.5,1.5,1.3,2,2.2c0.4,0.9,0.7,2,0.7,3.3C235,33.5,234.8,34.6,234.2,35.5z"/>
</g>
<path class="st0" d="M45.4,3.5H4.7C2.2,3.5,0,5.5,0,8.1v40.6c0,2.6,2,4.6,4.6,4.6h40.6c2.6,0,4.6-2,4.6-4.6V8.1
	C49.9,5.5,47.9,3.5,45.4,3.5z M39.2,7.7c0,1.8,1.5,3.3,3.1,3.5c-1.6,0.4-3.1,1.8-3.1,3.5c0-1.8-1.5-3.3-3.1-3.5
	C37.9,11,39.2,9.5,39.2,7.7z M30.2,10.4c0.2,3.8,2.9,6.9,6.6,7.5c-3.6,0.5-6.4,3.6-6.6,7.5c-0.2-3.8-2.9-6.9-6.6-7.5
	C27.2,17.3,30.1,14.3,30.2,10.4z M41.5,43.2c0,0.9-0.4,2-0.7,2.7c-1.1,2.2-2.6,3.6-4.7,4.2h-0.2l0,0h-5.8h-1.5l0.5-1.3
	c0.2-0.5,0.4-1.1,0.4-1.6c0-1.1-0.5-2.2-1.3-3.1c-0.9-0.9-2-1.3-3.1-1.3l0,0c-2.6,0-4.6,2-4.6,4.6c0,0.5,0.2,1.1,0.2,1.6l0.4,1.3
	h-1.3H5.6H4.7v-1.1v-2.9v-0.9h0.9h10.2c0.4-2,1.3-3.6,2.7-4.9c1.5-1.3,3.3-2.2,5.3-2.4c0.4,0,0.9,0,1.3,0c2.2,0,4.2,0.7,5.8,2.2
	c1.6,1.3,2.7,3.3,3.3,5.3l0,0l0,0c0.2,0,0.4,0,0.5,0c1.1-0.2,2-1.3,2-2.7s0-2.7,0-4.2c0-0.9-0.2-2.4-2.4-2.9c-2.6-0.7-5.1-1.5-7.7-2
	l-0.9-0.2c-1.1-0.4-2-0.5-3.1-0.9c-0.4-0.2-0.9-0.4-1.1-0.7c-1.1-1.5-2.4-2.9-3.5-4.4c-0.7-0.9-1.5-2-2.2-2.9l0.1-0.2
	c-0.5-0.7-0.9-1.3-1.5-1.8c-0.9-0.9-2-1.5-3.5-1.5H9.7H5.8H4.7v-0.9v-3.1v-1.5h0.9h1.3H8h1.1c0.5,0,1.3,0,1.8,0s1.1,0,1.6,0.2
	c2.4,0.4,4.4,1.5,5.8,3.5c1.5,1.8,2.9,3.8,4.4,5.6c0.7,0.9,1.5,2,2.4,3.1c0,0,0,0,0.2,0.2c0.5,0.2,1.1,0.4,1.6,0.4
	c0.4,0,0.5,0.2,0.9,0.2c1.1,0.4,2,0.5,3.1,0.9c1.8,0.5,3.6,1.1,5.5,1.5c3.1,0.9,5.5,4,5.5,7.1c0,0.7,0,1.5,0,2.2
	C41.7,41.4,41.7,42.3,41.5,43.2z M39.9,29.9c0-1.8-1.5-3.3-3.1-3.5c1.6-0.4,3.1-1.8,3.1-3.5c0,1.8,1.5,3.3,3.1,3.5
	C41.4,26.8,39.9,28.3,39.9,29.9z"/>
</svg>
