<?xml version="1.0" encoding="utf-8"?>
<!-- Generator: Adobe Illustrator 28.1.0, SVG Export Plug-In . SVG Version: 6.00 Build 0)  -->
<svg version="1.1" id="Layer_1" xmlns="http://www.w3.org/2000/svg" xmlns:xlink="http://www.w3.org/1999/xlink" x="0px" y="0px"
	 viewBox="0 0 251.1 57.4" style="enable-background:new 0 0 251.1 57.4;" xml:space="preserve">
<style type="text/css">
	.st0{fill:#D0D0D0;}
</style>
<g>
	<polygon class="st0" points="88.2,35.5 83.6,25.1 79.4,25.1 75.3,35.5 71.4,21.9 64,21.9 71.6,45.2 76.7,45.2 81.6,33.3 86.4,45.2 
		91.5,45.2 99.5,21.9 92,21.9 	"/>
	<path class="st0" d="M118.1,24.8c-0.4-0.5-0.9-1.1-1.5-1.5c-0.7-0.5-1.5-1.1-2.4-1.3c-0.9-0.4-2-0.5-3.1-0.5c-2,0-3.8,0.5-5.5,1.6
		s-2.7,2.6-3.6,4.2c-0.9,1.8-1.3,3.8-1.3,6.2s0.4,4.4,1.3,6.2c0.9,1.8,2.2,3.3,3.6,4.4s3.3,1.6,5.3,1.6c1.1,0,2-0.2,2.9-0.5
		c0.9-0.4,1.8-0.7,2.6-1.3c0.5-0.4,1.1-0.9,1.5-1.5v2.7h7.1V21.9h-6.9V24.8z M115.7,38.8c-0.7,0.5-1.6,0.7-2.7,0.7s-2-0.2-2.7-0.7
		s-1.5-1.3-1.8-2.2c-0.4-0.9-0.7-2-0.7-3.3c0-1.3,0.2-2.4,0.7-3.3c0.4-0.9,1.1-1.6,1.8-2.2c0.7-0.5,1.6-0.7,2.7-0.7s2,0.2,2.7,0.7
		c0.7,0.5,1.5,1.3,1.8,2.2c0.4,0.9,0.7,2,0.7,3.3c0,1.3-0.2,2.4-0.7,3.3C117.2,37.7,116.4,38.4,115.7,38.8z"/>
	<path class="st0" d="M147.4,34.1c-0.5-0.7-1.5-1.3-2.4-1.6c-0.9-0.5-2.2-0.9-3.5-1.3c-1.1-0.4-2-0.5-2.6-0.7
		c-0.7-0.2-1.1-0.4-1.5-0.5c-0.4-0.2-0.5-0.4-0.7-0.7c-0.2-0.2-0.2-0.5-0.2-0.9c0-0.4,0-0.5,0.2-0.7c0.2-0.2,0.4-0.4,0.5-0.5
		c0.2-0.2,0.5-0.4,0.9-0.4s0.7-0.2,1.1-0.2c0.5,0,1.3,0.2,2,0.4c0.7,0.2,1.5,0.5,2,0.9c0.7,0.4,1.3,0.9,1.8,1.3l3.6-4.2
		c-0.7-0.7-1.6-1.3-2.7-1.8c-1.1-0.5-2.2-0.9-3.3-1.3c-1.1-0.4-2.4-0.4-3.6-0.4c-1.3,0-2.4,0.2-3.5,0.5s-2.2,0.9-2.9,1.5
		c-0.9,0.7-1.5,1.5-2,2.2c-0.5,0.9-0.7,1.8-0.7,2.9c0,0.9,0.2,1.8,0.5,2.6c0.4,0.7,0.7,1.5,1.3,2c0.7,0.7,1.5,1.3,2.6,1.6
		c1.1,0.5,2.2,0.9,3.6,1.3c0.9,0.2,1.8,0.5,2.4,0.7c0.5,0.2,1.1,0.4,1.3,0.5c0.5,0.4,0.7,0.7,0.7,1.3c0,0.4,0,0.5-0.2,0.7
		c-0.2,0.2-0.4,0.4-0.5,0.5c-0.2,0.2-0.5,0.4-0.7,0.4c-0.4,0-0.7,0.2-1.1,0.2c-1.1,0-2.2-0.2-3.3-0.5c-1.1-0.4-2.2-1.1-3.1-2
		l-4.2,3.6c1.1,1.3,2.4,2.2,4.2,2.9c1.8,0.7,3.8,1.1,6,1.1c1.8,0,3.5-0.4,4.9-0.9c1.5-0.7,2.6-1.6,3.5-2.7c0.9-1.1,1.3-2.6,1.3-4
		c0-0.7-0.2-1.5-0.4-2.2C148.1,35.2,147.8,34.6,147.4,34.1z"/>
	<path class="st0" d="M171.3,22.4c-1.3-0.7-2.7-1.1-4.4-1.1c-1.3,0-2.6,0.2-3.6,0.7s-2.2,1.3-2.9,2c-0.2,0.2-0.2,0.2-0.4,0.4V12.8
		h-6.9v32.4c0.4,0,0.9,0,1.5,0c0.5,0,1.3,0,2.2,0h3.5v-14c0-0.5,0.2-1.1,0.4-1.5c0.2-0.5,0.5-0.9,0.9-1.3c0.4-0.4,0.9-0.7,1.3-0.9
		c0.5-0.2,1.1-0.4,1.6-0.4c0.7,0,1.5,0.2,2,0.4c0.5,0.4,0.9,0.7,1.3,1.5c0.2,0.5,0.4,1.5,0.4,2.4V45h7.1V30.8c0-2-0.4-3.8-0.9-5.1
		C173.3,24.2,172.4,23.1,171.3,22.4z"/>
	<polygon class="st0" points="189.7,16 182.8,16 182.8,21.9 178.6,21.9 178.6,28.1 182.8,28.1 182.8,45.2 189.7,45.2 189.7,28.1 
		194.2,28.1 194.2,21.9 189.7,21.9 	"/>
	<path class="st0" d="M213.7,24.8c-0.4-0.5-0.9-1.1-1.5-1.5c-0.7-0.5-1.5-1.1-2.4-1.3c-0.9-0.4-2-0.5-3.1-0.5c-2,0-3.8,0.5-5.5,1.6
		c-1.6,1.1-2.7,2.6-3.6,4.2c-0.9,1.8-1.3,3.8-1.3,6.2s0.4,4.4,1.3,6.2c0.9,1.8,2.2,3.3,3.6,4.4c1.5,1.1,3.3,1.6,5.3,1.6
		c1.1,0,2-0.2,2.9-0.5c0.9-0.4,1.8-0.7,2.6-1.3c0.5-0.4,1.1-0.9,1.5-1.5v2.7h7.1V21.9h-6.9V24.8z M213.2,36.8
		c-0.4,0.9-1.1,1.6-1.8,2.2c-0.7,0.5-1.6,0.7-2.7,0.7s-2-0.2-2.7-0.7s-1.5-1.3-1.8-2.2c-0.4-0.9-0.7-2-0.7-3.3
		c0-1.3,0.2-2.4,0.7-3.3c0.4-0.9,1.1-1.6,1.8-2.2c0.7-0.5,1.6-0.7,2.7-0.7s2,0.2,2.7,0.7c0.7,0.5,1.5,1.3,1.8,2.2
		c0.4,0.9,0.7,2,0.7,3.3C213.7,34.8,213.6,35.9,213.2,36.8z"/>
	<path class="st0" d="M243.4,21.9l-0.2,2.6c-0.2-0.2-0.4-0.4-0.7-0.7c-0.5-0.4-1.1-0.9-1.8-1.1c-0.7-0.4-1.5-0.5-2.2-0.7
		c-0.7-0.2-1.6-0.4-2.6-0.4c-2,0-3.8,0.5-5.5,1.6c-1.6,1.1-2.9,2.4-3.8,4.2c-0.9,1.8-1.5,3.8-1.5,6.2c0,2.2,0.5,4.4,1.5,6
		c0.9,1.8,2.2,3.1,3.8,4c1.6,0.9,3.5,1.5,5.6,1.5c1.3,0,2.6-0.2,3.6-0.7s2.2-1.1,2.9-1.8l0.2-0.2v1.3c0,1.3-0.2,2.4-0.7,3.3
		c-0.5,0.9-1.1,1.6-2.2,2c-0.9,0.4-2.2,0.7-3.6,0.7c-0.9,0-1.6,0-2.6-0.2c-0.7-0.2-1.6-0.4-2.4-0.7c-0.7-0.4-1.5-0.7-2-1.1l-2.4,4.9
		c1.1,0.9,2.7,1.6,4.6,2.2c1.8,0.5,3.8,0.9,5.6,0.9c2,0,3.6-0.2,5.3-0.7c1.5-0.5,2.9-1.3,4-2.4c1.1-1.1,2-2.4,2.6-3.8
		c0.5-1.5,0.9-3.1,0.9-5.1V21.9H243.4z M242.5,36.6c-0.4,0.9-1.1,1.6-2,2.2c-0.9,0.5-1.8,0.7-2.9,0.7s-2-0.2-2.9-0.7
		c-0.7-0.5-1.5-1.3-1.8-2.2c-0.4-0.9-0.7-2-0.7-3.3c0-1.3,0.2-2.4,0.7-3.3c0.4-0.9,1.1-1.6,1.8-2.2c0.7-0.5,1.8-0.7,2.9-0.7
		s2.2,0.2,2.9,0.7c0.9,0.5,1.5,1.3,2,2.2c0.4,0.9,0.7,2,0.7,3.3C243.3,34.6,243.1,35.7,242.5,36.6z"/>
	<path class="st0" d="M45.4,0H4.7C2.2,0,0,2,0,4.6v40.6c0,2.6,2,4.6,4.6,4.6h40.6c2.6,0,4.6-2,4.6-4.6V4.6C49.9,2,47.9,0,45.4,0z
		 M39.2,4.2c0,1.8,1.5,3.3,3.1,3.5c-1.6,0.4-3.1,1.8-3.1,3.5c0-1.8-1.5-3.3-3.1-3.5C37.9,7.5,39.2,6,39.2,4.2z M30.2,6.9
		c0.2,3.8,2.9,6.9,6.6,7.5c-3.6,0.5-6.4,3.6-6.6,7.5c-0.2-3.8-2.9-6.9-6.6-7.5C27.2,13.8,30.1,10.8,30.2,6.9z M41.5,39.7
		c0,0.9-0.4,2-0.7,2.7c-1.1,2.2-2.6,3.6-4.7,4.2h-0.2l0,0h-5.8h-1.5l0.5-1.3c0.2-0.5,0.4-1.1,0.4-1.6c0-1.1-0.5-2.2-1.3-3.1
		c-0.9-0.9-2-1.3-3.1-1.3l0,0c-2.6,0-4.6,2-4.6,4.6c0,0.5,0.2,1.1,0.2,1.6l0.4,1.3h-1.3H5.6H4.7v-1.1v-2.9v-0.9h0.9h10.2
		c0.4-2,1.3-3.6,2.7-4.9c1.5-1.3,3.3-2.2,5.3-2.4c0.4,0,0.9,0,1.3,0c2.2,0,4.2,0.7,5.8,2.2c1.6,1.3,2.7,3.3,3.3,5.3l0,0l0,0
		c0.2,0,0.4,0,0.5,0c1.1-0.2,2-1.3,2-2.7s0-2.7,0-4.2c0-0.9-0.2-2.4-2.4-2.9c-2.6-0.7-5.1-1.5-7.7-2l-0.9-0.2
		c-1.1-0.4-2-0.5-3.1-0.9c-0.4-0.2-0.9-0.4-1.1-0.7c-1.1-1.5-2.4-2.9-3.5-4.4c-0.7-0.9-1.5-2-2.2-2.9L15.9,21
		c-0.5-0.7-0.9-1.3-1.5-1.8c-0.9-0.9-2-1.5-3.5-1.5H9.7H5.8H4.7v-0.9v-3.1v-1.5h0.9h1.3H8h1.1c0.5,0,1.3,0,1.8,0
		c0.5,0,1.1,0,1.6,0.2c2.4,0.4,4.4,1.5,5.8,3.5c1.5,1.8,2.9,3.8,4.4,5.6c0.7,0.9,1.5,2,2.4,3.1c0,0,0,0,0.2,0.2
		c0.5,0.2,1.1,0.4,1.6,0.4c0.4,0,0.5,0.2,0.9,0.2c1.1,0.4,2,0.5,3.1,0.9c1.8,0.5,3.6,1.1,5.5,1.5c3.1,0.9,5.5,4,5.5,7.1
		c0,0.7,0,1.5,0,2.2C41.7,37.9,41.7,38.8,41.5,39.7z M39.9,26.4c0-1.8-1.5-3.3-3.1-3.5c1.6-0.4,3.1-1.8,3.1-3.5
		c0,1.8,1.5,3.3,3.1,3.5C41.4,23.3,39.9,24.8,39.9,26.4z"/>
</g>
</svg>
