<?xml version="1.0" encoding="utf-8"?>
<!-- Generator: Adobe Illustrator 28.1.0, SVG Export Plug-In . SVG Version: 6.00 Build 0)  -->
<svg version="1.1" id="Layer_1" xmlns="http://www.w3.org/2000/svg" xmlns:xlink="http://www.w3.org/1999/xlink" x="0px" y="0px"
	 viewBox="0 0 251.1 57.4" style="enable-background:new 0 0 251.1 57.4;" xml:space="preserve">
<style type="text/css">
	.st0{fill:#D0D0D0;}
</style>
<g>
	<polygon class="st0" points="80,33.8 75.2,22.9 70.8,22.9 66.6,33.8 62.5,19.5 54.7,19.5 62.7,43.9 68,43.9 73.1,31.5 78.2,43.9 
		83.5,43.9 91.9,19.5 84,19.5 	"/>
	<path class="st0" d="M111.3,22.6c-0.4-0.5-0.9-1.2-1.6-1.6c-0.7-0.5-1.6-1.2-2.5-1.4c-0.9-0.4-2.1-0.5-3.2-0.5
		c-2.1,0-4,0.5-5.8,1.7s-2.8,2.7-3.8,4.4c-0.9,1.9-1.4,4-1.4,6.5s0.4,4.6,1.4,6.5c0.9,1.9,2.3,3.5,3.8,4.6c1.5,1.2,3.5,1.7,5.5,1.7
		c1.2,0,2.1-0.2,3-0.5c0.9-0.4,1.9-0.7,2.7-1.4c0.5-0.4,1.2-0.9,1.6-1.6v2.8h7.4V19.5h-7.2V22.6z M108.8,37.2
		c-0.7,0.5-1.7,0.7-2.8,0.7c-1.2,0-2.1-0.2-2.8-0.7c-0.7-0.5-1.6-1.4-1.9-2.3c-0.4-0.9-0.7-2.1-0.7-3.5s0.2-2.5,0.7-3.5
		c0.4-0.9,1.2-1.7,1.9-2.3c0.7-0.5,1.7-0.7,2.8-0.7c1.2,0,2.1,0.2,2.8,0.7s1.6,1.4,1.9,2.3c0.4,0.9,0.7,2.1,0.7,3.5
		s-0.2,2.5-0.7,3.5C110.4,36.1,109.5,36.8,108.8,37.2z"/>
	<path class="st0" d="M141.9,32.3c-0.5-0.7-1.6-1.4-2.5-1.7c-0.9-0.5-2.3-0.9-3.7-1.4c-1.2-0.4-2.1-0.5-2.7-0.7
		c-0.7-0.2-1.2-0.4-1.6-0.5c-0.4-0.2-0.5-0.4-0.7-0.7c-0.2-0.2-0.2-0.5-0.2-0.9c0-0.4,0-0.5,0.2-0.7s0.4-0.4,0.5-0.5
		c0.2-0.2,0.5-0.4,0.9-0.4s0.7-0.2,1.2-0.2c0.5,0,1.4,0.2,2.1,0.4c0.7,0.2,1.6,0.5,2.1,0.9c0.7,0.4,1.4,0.9,1.9,1.4l3.8-4.4
		c-0.7-0.7-1.7-1.4-2.8-1.9c-1.2-0.5-2.3-0.9-3.5-1.4c-1.2-0.4-2.5-0.4-3.8-0.4c-1.4,0-2.5,0.2-3.7,0.5s-2.3,0.9-3,1.6
		c-0.9,0.7-1.6,1.6-2.1,2.3c-0.5,0.9-0.7,1.9-0.7,3c0,0.9,0.2,1.9,0.5,2.7c0.4,0.7,0.7,1.6,1.4,2.1c0.7,0.7,1.6,1.4,2.7,1.7
		c1.2,0.5,2.3,0.9,3.8,1.4c0.9,0.2,1.9,0.5,2.5,0.7c0.5,0.2,1.2,0.4,1.4,0.5c0.5,0.4,0.7,0.7,0.7,1.4c0,0.4,0,0.5-0.2,0.7
		s-0.4,0.4-0.5,0.5c-0.2,0.2-0.5,0.4-0.7,0.4c-0.4,0-0.7,0.2-1.2,0.2c-1.2,0-2.3-0.2-3.5-0.5c-1.2-0.4-2.3-1.2-3.2-2.1l-4.4,3.8
		c1.2,1.4,2.5,2.3,4.4,3c1.9,0.7,4,1.2,6.3,1.2c1.9,0,3.7-0.4,5.1-0.9c1.6-0.7,2.7-1.7,3.7-2.8c0.9-1.2,1.4-2.7,1.4-4.2
		c0-0.7-0.2-1.6-0.4-2.3C142.7,33.4,142.4,32.8,141.9,32.3z"/>
	<path class="st0" d="M166.9,20.1c-1.4-0.7-2.8-1.2-4.6-1.2c-1.4,0-2.7,0.2-3.8,0.7c-1,0.5-2.3,1.4-3,2.1c-0.2,0.2-0.2,0.2-0.4,0.4
		V10h-7.2v33.9c0.4,0,0.9,0,1.6,0c0.5,0,1.4,0,2.3,0h3.7V29.3c0-0.5,0.2-1.2,0.4-1.6c0.2-0.5,0.5-0.9,0.9-1.4
		c0.4-0.4,0.9-0.7,1.4-0.9c0.5-0.2,1.2-0.4,1.7-0.4c0.7,0,1.6,0.2,2.1,0.4c0.5,0.4,0.9,0.7,1.4,1.6c0.2,0.5,0.4,1.6,0.4,2.5v14.2
		h7.4V28.8c0-2.1-0.4-4-0.9-5.3C169,21.9,168.1,20.8,166.9,20.1z"/>
	<polygon class="st0" points="186.2,13.4 179,13.4 179,19.5 174.6,19.5 174.6,26 179,26 179,43.9 186.2,43.9 186.2,26 190.9,26 
		190.9,19.5 186.2,19.5 	"/>
	<path class="st0" d="M211.3,22.6c-0.4-0.5-0.9-1.2-1.6-1.6c-0.7-0.5-1.6-1.2-2.5-1.4c-0.9-0.4-2.1-0.5-3.2-0.5
		c-2.1,0-4,0.5-5.8,1.7c-1.7,1.2-2.8,2.7-3.8,4.4c-0.9,1.9-1.4,4-1.4,6.5s0.4,4.6,1.4,6.5c0.9,1.9,2.3,3.5,3.8,4.6
		c1.6,1.2,3.5,1.7,5.5,1.7c1.2,0,2.1-0.2,3-0.5c0.9-0.4,1.9-0.7,2.7-1.4c0.5-0.4,1.2-0.9,1.6-1.6v2.8h7.4V19.5h-7.2L211.3,22.6
		L211.3,22.6z M210.7,35.1c-0.4,0.9-1.2,1.7-1.9,2.3c-0.7,0.5-1.7,0.7-2.8,0.7s-2.1-0.2-2.8-0.7c-0.7-0.5-1.6-1.4-1.9-2.3
		c-0.4-0.9-0.7-2.1-0.7-3.5c0-1.4,0.2-2.5,0.7-3.5c0.4-0.9,1.2-1.7,1.9-2.3c0.7-0.5,1.7-0.7,2.8-0.7s2.1,0.2,2.8,0.7
		c0.7,0.5,1.6,1.4,1.9,2.3c0.4,0.9,0.7,2.1,0.7,3.5C211.3,33,211.2,34.2,210.7,35.1z"/>
	<path class="st0" d="M242.3,19.5l-0.2,2.7c-0.2-0.2-0.4-0.4-0.7-0.7c-0.5-0.4-1.2-0.9-1.9-1.2c-0.7-0.4-1.6-0.5-2.3-0.7
		c-0.7-0.2-1.7-0.4-2.7-0.4c-2.1,0-4,0.5-5.8,1.7c-1.7,1.2-3,2.5-4,4.4c-0.9,1.9-1.6,4-1.6,6.5c0,2.3,0.5,4.6,1.6,6.3
		c0.9,1.9,2.3,3.2,4,4.2s3.7,1.6,5.9,1.6c1.4,0,2.7-0.2,3.8-0.7c1-0.5,2.3-1.2,3-1.9l0.2-0.2v1.4c0,1.4-0.2,2.5-0.7,3.5
		c-0.5,0.9-1.2,1.7-2.3,2.1c-0.9,0.4-2.3,0.7-3.8,0.7c-0.9,0-1.7,0-2.7-0.2c-0.7-0.2-1.7-0.4-2.5-0.7c-0.7-0.4-1.6-0.7-2.1-1.2
		l-2.5,5.1c1.2,0.9,2.8,1.7,4.8,2.3c1.9,0.5,4,0.9,5.9,0.9c2.1,0,3.8-0.2,5.5-0.7c1.6-0.5,3-1.4,4.2-2.5c1.2-1.2,2.1-2.5,2.7-4
		c0.5-1.6,0.9-3.2,0.9-5.3V19.5H242.3z M241.4,34.9c-0.4,0.9-1.2,1.7-2.1,2.3c-0.9,0.5-1.9,0.7-3,0.7s-2.1-0.2-3-0.7
		c-0.7-0.5-1.6-1.4-1.9-2.3c-0.4-0.9-0.7-2.1-0.7-3.5s0.2-2.5,0.7-3.5c0.4-0.9,1.2-1.7,1.9-2.3c0.7-0.5,1.9-0.7,3-0.7s2.3,0.2,3,0.7
		c0.9,0.5,1.6,1.4,2.1,2.3c0.4,0.9,0.7,2.1,0.7,3.5C242.2,32.8,242,34,241.4,34.9z"/>
</g>
<path class="st0" d="M45.4,3.5H4.7C2.2,3.5,0,5.5,0,8.1v40.6c0,2.6,2,4.6,4.6,4.6h40.6c2.6,0,4.6-2,4.6-4.6V8.1
	C49.9,5.5,47.9,3.5,45.4,3.5z M39.2,7.7c0,1.8,1.5,3.3,3.1,3.5c-1.6,0.4-3.1,1.8-3.1,3.5c0-1.8-1.5-3.3-3.1-3.5
	C37.9,11,39.2,9.5,39.2,7.7z M30.2,10.4c0.2,3.8,2.9,6.9,6.6,7.5c-3.6,0.5-6.4,3.6-6.6,7.5c-0.2-3.8-2.9-6.9-6.6-7.5
	C27.2,17.3,30.1,14.3,30.2,10.4z M41.5,43.2c0,0.9-0.4,2-0.7,2.7c-1.1,2.2-2.6,3.6-4.7,4.2h-0.2l0,0h-5.8h-1.5l0.5-1.3
	c0.2-0.5,0.4-1.1,0.4-1.6c0-1.1-0.5-2.2-1.3-3.1c-0.9-0.9-2-1.3-3.1-1.3l0,0c-2.6,0-4.6,2-4.6,4.6c0,0.5,0.2,1.1,0.2,1.6l0.4,1.3
	h-1.3H5.6H4.7v-1.1v-2.9v-0.9h0.9h10.2c0.4-2,1.3-3.6,2.7-4.9c1.5-1.3,3.3-2.2,5.3-2.4c0.4,0,0.9,0,1.3,0c2.2,0,4.2,0.7,5.8,2.2
	c1.6,1.3,2.7,3.3,3.3,5.3l0,0l0,0c0.2,0,0.4,0,0.5,0c1.1-0.2,2-1.3,2-2.7s0-2.7,0-4.2c0-0.9-0.2-2.4-2.4-2.9c-2.6-0.7-5.1-1.5-7.7-2
	l-0.9-0.2c-1.1-0.4-2-0.5-3.1-0.9c-0.4-0.2-0.9-0.4-1.1-0.7c-1.1-1.5-2.4-2.9-3.5-4.4c-0.7-0.9-1.5-2-2.2-2.9l0.1-0.2
	c-0.5-0.7-0.9-1.3-1.5-1.8c-0.9-0.9-2-1.5-3.5-1.5H9.7H5.8H4.7v-0.9v-3.1v-1.5h0.9h1.3H8h1.1c0.5,0,1.3,0,1.8,0s1.1,0,1.6,0.2
	c2.4,0.4,4.4,1.5,5.8,3.5c1.5,1.8,2.9,3.8,4.4,5.6c0.7,0.9,1.5,2,2.4,3.1c0,0,0,0,0.2,0.2c0.5,0.2,1.1,0.4,1.6,0.4
	c0.4,0,0.5,0.2,0.9,0.2c1.1,0.4,2,0.5,3.1,0.9c1.8,0.5,3.6,1.1,5.5,1.5c3.1,0.9,5.5,4,5.5,7.1c0,0.7,0,1.5,0,2.2
	C41.7,41.4,41.7,42.3,41.5,43.2z M39.9,29.9c0-1.8-1.5-3.3-3.1-3.5c1.6-0.4,3.1-1.8,3.1-3.5c0,1.8,1.5,3.3,3.1,3.5
	C41.4,26.8,39.9,28.3,39.9,29.9z"/>
</svg>
