<?xml version="1.0" encoding="utf-8"?>
<!-- Generator: Adobe Illustrator 28.1.0, SVG Export Plug-In . SVG Version: 6.00 Build 0)  -->
<svg version="1.1" id="Layer_1" xmlns="http://www.w3.org/2000/svg" xmlns:xlink="http://www.w3.org/1999/xlink" x="0px" y="0px"
	 viewBox="0 0 252.5 57.4" style="enable-background:new 0 0 252.5 57.4;" xml:space="preserve">
<style type="text/css">
	.st0{fill:#D0D0D0;}
</style>
<g>
	<polygon class="st0" points="82.4,34.8 77.6,23.8 73.2,23.8 68.9,34.8 64.8,20.5 57,20.5 65,44.9 70.3,44.9 75.5,32.5 80.5,44.9 
		85.9,44.9 94.3,20.5 86.4,20.5 	"/>
	<path class="st0" d="M113.8,23.5c-0.4-0.5-0.9-1.2-1.6-1.6c-0.7-0.5-1.6-1.2-2.5-1.4c-0.9-0.4-2.1-0.5-3.3-0.5
		c-2.1,0-4,0.5-5.8,1.7c-1.8,1.2-2.8,2.7-3.8,4.4c-0.9,1.9-1.4,4-1.4,6.5c0,2.5,0.4,4.6,1.4,6.5s2.3,3.5,3.8,4.6
		c1.5,1.2,3.5,1.7,5.6,1.7c1.2,0,2.1-0.2,3-0.5c0.9-0.4,1.9-0.7,2.7-1.4c0.5-0.4,1.2-0.9,1.6-1.6v2.8h7.5V20.5h-7.2V23.5z
		 M111.3,38.2c-0.7,0.5-1.7,0.7-2.8,0.7s-2.1-0.2-2.8-0.7c-0.7-0.5-1.6-1.4-1.9-2.3c-0.4-0.9-0.7-2.1-0.7-3.5c0-1.4,0.2-2.5,0.7-3.5
		c0.4-0.9,1.2-1.7,1.9-2.3c0.7-0.5,1.7-0.7,2.8-0.7s2.1,0.2,2.8,0.7s1.6,1.4,1.9,2.3c0.4,0.9,0.7,2.1,0.7,3.5c0,1.4-0.2,2.5-0.7,3.5
		C112.8,37.1,112,37.8,111.3,38.2z"/>
	<path class="st0" d="M144.5,33.3c-0.5-0.7-1.6-1.4-2.5-1.7c-0.9-0.5-2.3-0.9-3.7-1.4c-1.2-0.4-2.1-0.5-2.7-0.7
		c-0.7-0.2-1.2-0.4-1.6-0.5c-0.4-0.2-0.5-0.4-0.7-0.7c-0.2-0.2-0.2-0.5-0.2-0.9s0-0.5,0.2-0.7s0.4-0.4,0.5-0.5
		c0.2-0.2,0.5-0.4,0.9-0.4s0.7-0.2,1.2-0.2c0.5,0,1.4,0.2,2.1,0.4c0.7,0.2,1.6,0.5,2.1,0.9c0.7,0.4,1.4,0.9,1.9,1.4l3.8-4.4
		c-0.7-0.7-1.7-1.4-2.8-1.9s-2.3-0.9-3.5-1.4c-1.2-0.4-2.5-0.4-3.8-0.4c-1.4,0-2.5,0.2-3.7,0.5s-2.3,0.9-3,1.6
		c-0.9,0.7-1.6,1.6-2.1,2.3c-0.5,0.9-0.7,1.9-0.7,3c0,0.9,0.2,1.9,0.5,2.7c0.4,0.7,0.7,1.6,1.4,2.1c0.7,0.7,1.6,1.4,2.7,1.7
		c1.2,0.5,2.3,0.9,3.8,1.4c0.9,0.2,1.9,0.5,2.5,0.7c0.5,0.2,1.2,0.4,1.4,0.5c0.5,0.4,0.7,0.7,0.7,1.4c0,0.4,0,0.5-0.2,0.7
		s-0.4,0.4-0.5,0.5c-0.2,0.2-0.5,0.4-0.7,0.4c-0.4,0-0.7,0.2-1.2,0.2c-1.2,0-2.3-0.2-3.5-0.5c-1.2-0.4-2.3-1.2-3.3-2.1l-4.4,3.8
		c1.2,1.4,2.5,2.3,4.4,3c1.9,0.7,4,1.2,6.3,1.2c1.9,0,3.7-0.4,5.1-0.9c1.6-0.7,2.7-1.7,3.7-2.8c0.9-1.2,1.4-2.7,1.4-4.2
		c0-0.7-0.2-1.6-0.4-2.3C145.3,34.4,144.9,33.8,144.5,33.3z"/>
	<path class="st0" d="M169.6,21c-1.4-0.7-2.8-1.2-4.6-1.2c-1.4,0-2.7,0.2-3.8,0.7s-2.3,1.4-3,2.1c-0.2,0.2-0.2,0.2-0.4,0.4V10.9
		h-7.2v34c0.4,0,0.9,0,1.6,0c0.5,0,1.4,0,2.3,0h3.7V30.2c0-0.5,0.2-1.2,0.4-1.6c0.2-0.5,0.5-0.9,0.9-1.4c0.4-0.4,0.9-0.7,1.4-0.9
		c0.5-0.2,1.2-0.4,1.7-0.4c0.7,0,1.6,0.2,2.1,0.4c0.5,0.4,0.9,0.7,1.4,1.6c0.2,0.5,0.4,1.6,0.4,2.5v14.3h7.5V29.8
		c0-2.1-0.4-4-0.9-5.4C171.7,22.9,170.8,21.7,169.6,21z"/>
	<polygon class="st0" points="188.9,14.3 181.7,14.3 181.7,20.5 177.3,20.5 177.3,27 181.7,27 181.7,44.9 188.9,44.9 188.9,27 
		193.6,27 193.6,20.5 188.9,20.5 	"/>
	<path class="st0" d="M214.1,23.5c-0.4-0.5-0.9-1.2-1.6-1.6c-0.7-0.5-1.6-1.2-2.5-1.4c-0.9-0.4-2.1-0.5-3.3-0.5
		c-2.1,0-4,0.5-5.8,1.7c-1.7,1.2-2.8,2.7-3.8,4.4c-0.9,1.9-1.4,4-1.4,6.5c0,2.5,0.4,4.6,1.4,6.5s2.3,3.5,3.8,4.6
		c1.6,1.2,3.5,1.7,5.6,1.7c1.2,0,2.1-0.2,3-0.5c0.9-0.4,1.9-0.7,2.7-1.4c0.5-0.4,1.2-0.9,1.6-1.6v2.8h7.5V20.5h-7.2L214.1,23.5
		L214.1,23.5z M213.6,36.1c-0.4,0.9-1.2,1.7-1.9,2.3c-0.7,0.5-1.7,0.7-2.8,0.7c-1.2,0-2.1-0.2-2.8-0.7c-0.7-0.5-1.6-1.4-1.9-2.3
		c-0.4-0.9-0.7-2.1-0.7-3.5c0-1.4,0.2-2.5,0.7-3.5c0.4-0.9,1.2-1.7,1.9-2.3c0.7-0.5,1.7-0.7,2.8-0.7c1.2,0,2.1,0.2,2.8,0.7
		c0.7,0.5,1.6,1.4,1.9,2.3c0.4,0.9,0.7,2.1,0.7,3.5C214.1,34,214,35.2,213.6,36.1z"/>
	<path class="st0" d="M245.3,20.5l-0.2,2.7c-0.2-0.2-0.4-0.4-0.7-0.7c-0.5-0.4-1.2-0.9-1.9-1.2c-0.7-0.4-1.6-0.5-2.3-0.7
		c-0.7-0.2-1.7-0.4-2.7-0.4c-2.1,0-4,0.5-5.8,1.7c-1.7,1.2-3,2.5-4,4.4s-1.6,4-1.6,6.5c0,2.3,0.5,4.6,1.6,6.3c0.9,1.9,2.3,3.3,4,4.2
		c1.7,0.9,3.7,1.6,5.9,1.6c1.4,0,2.7-0.2,3.8-0.7c1-0.5,2.3-1.2,3-1.9l0.2-0.2v1.4c0,1.4-0.2,2.5-0.7,3.5c-0.5,0.9-1.2,1.7-2.3,2.1
		c-0.9,0.4-2.3,0.7-3.8,0.7c-0.9,0-1.7,0-2.7-0.2c-0.7-0.2-1.7-0.4-2.5-0.7c-0.7-0.4-1.6-0.7-2.1-1.2l-2.5,5.1
		c1.2,0.9,2.8,1.7,4.8,2.3c1.9,0.5,4,0.9,5.9,0.9c2.1,0,3.8-0.2,5.6-0.7c1.6-0.5,3-1.4,4.2-2.5c1.2-1.2,2.1-2.5,2.7-4
		c0.5-1.6,0.9-3.3,0.9-5.4V20.5H245.3z M244.3,35.9c-0.4,0.9-1.2,1.7-2.1,2.3c-0.9,0.5-1.9,0.7-3,0.7c-1.2,0-2.1-0.2-3-0.7
		c-0.7-0.5-1.6-1.4-1.9-2.3c-0.4-0.9-0.7-2.1-0.7-3.5c0-1.4,0.2-2.5,0.7-3.5c0.4-0.9,1.2-1.7,1.9-2.3c0.7-0.5,1.9-0.7,3-0.7
		c1.2,0,2.3,0.2,3,0.7c0.9,0.5,1.6,1.4,2.1,2.3c0.4,0.9,0.7,2.1,0.7,3.5C245.2,33.8,245,35,244.3,35.9z"/>
</g>
<path class="st0" d="M44,4.6H4.6C2.1,4.6,0,6.5,0,9v39.3c0,2.5,1.9,4.5,4.5,4.5h39.3c2.5,0,4.5-1.9,4.5-4.5V9
	C48.3,6.5,46.4,4.6,44,4.6z M38,8.6c0,1.7,1.5,3.2,3,3.4c-1.5,0.4-3,1.7-3,3.4c0-1.7-1.5-3.2-3-3.4C36.7,11.8,38,10.4,38,8.6z
	 M29.3,11.3c0.2,3.7,2.8,6.7,6.4,7.3c-3.5,0.5-6.2,3.5-6.4,7.3c-0.2-3.7-2.8-6.7-6.4-7.3C26.3,17.9,29.2,15,29.3,11.3z M40.2,43
	c0,0.9-0.4,1.9-0.7,2.6c-1.1,2.1-2.5,3.5-4.6,4.1h-0.2l0,0h-5.6h-1.5l0.5-1.3c0.2-0.5,0.4-1.1,0.4-1.5c0-1.1-0.5-2.1-1.3-3
	c-0.9-0.9-1.9-1.3-3-1.3l0,0c-2.5,0-4.5,1.9-4.5,4.5c0,0.5,0.2,1.1,0.2,1.5l0.4,1.3h-1.3H5.4H4.6v-1.1V46v-0.9h0.9h9.9
	c0.4-1.9,1.3-3.5,2.6-4.7c1.5-1.3,3.2-2.1,5.1-2.3c0.4,0,0.9,0,1.3,0c2.1,0,4.1,0.7,5.6,2.1c1.5,1.3,2.6,3.2,3.2,5.1l0,0l0,0
	c0.2,0,0.4,0,0.5,0c1.1-0.2,1.9-1.3,1.9-2.6c0-1.4,0-2.6,0-4.1c0-0.9-0.2-2.3-2.3-2.8c-2.5-0.7-4.9-1.5-7.5-1.9l-0.9-0.2
	c-1.1-0.4-1.9-0.5-3-0.9c-0.4-0.2-0.9-0.4-1.1-0.7c-1.1-1.5-2.3-2.8-3.4-4.3c-0.7-0.9-1.5-1.9-2.1-2.8l0.1-0.2
	c-0.5-0.7-0.9-1.3-1.5-1.7c-0.9-0.9-1.9-1.5-3.4-1.5H9.4H5.6H4.6v-0.9v-3v-1.5h0.9h1.3h1.1h1.1c0.5,0,1.3,0,1.7,0
	c0.5,0,1.1,0,1.5,0.2c2.3,0.4,4.3,1.5,5.6,3.4c1.5,1.7,2.8,3.7,4.3,5.4c0.7,0.9,1.5,1.9,2.3,3c0,0,0,0,0.2,0.2
	c0.5,0.2,1.1,0.4,1.5,0.4c0.4,0,0.5,0.2,0.9,0.2c1.1,0.4,1.9,0.5,3,0.9c1.7,0.5,3.5,1.1,5.3,1.5c3,0.9,5.3,3.9,5.3,6.9
	c0,0.7,0,1.5,0,2.1C40.4,41.3,40.4,42.2,40.2,43z M38.7,30.2c0-1.7-1.5-3.2-3-3.4c1.5-0.4,3-1.7,3-3.4c0,1.7,1.5,3.2,3,3.4
	C40.1,27.2,38.7,28.6,38.7,30.2z"/>
</svg>
