<?xml version="1.0" encoding="utf-8"?>
<!-- Generator: Adobe Illustrator 28.1.0, SVG Export Plug-In . SVG Version: 6.00 Build 0)  -->
<svg version="1.1" id="Layer_1" xmlns="http://www.w3.org/2000/svg" xmlns:xlink="http://www.w3.org/1999/xlink" x="0px" y="0px"
	 viewBox="0 0 251.1 57.4" style="enable-background:new 0 0 251.1 57.4;" xml:space="preserve">
<style type="text/css">
	.st0{fill:#D0D0D0;}
</style>
<g>
	<polygon class="st0" points="82.9,34.1 78.1,23.4 73.8,23.4 69.6,34.1 65.6,20.1 58,20.1 65.8,44.1 71.1,44.1 76.1,31.8 81,44.1 
		86.3,44.1 94.5,20.1 86.8,20.1 	"/>
	<path class="st0" d="M113.6,23.1c-0.4-0.5-0.9-1.1-1.5-1.5c-0.7-0.5-1.5-1.1-2.5-1.3c-0.9-0.4-2.1-0.5-3.2-0.5
		c-2.1,0-3.9,0.5-5.7,1.6C99,22.5,98,24,97.1,25.7c-0.9,1.9-1.3,3.9-1.3,6.4s0.4,4.5,1.3,6.4c0.9,1.9,2.3,3.4,3.7,4.5
		c1.4,1.1,3.4,1.6,5.4,1.6c1.1,0,2.1-0.2,3-0.5c0.9-0.4,1.9-0.7,2.7-1.3c0.5-0.4,1.1-0.9,1.5-1.5V44h7.3V20.1h-7.1V23.1z
		 M111.1,37.5c-0.7,0.5-1.6,0.7-2.8,0.7s-2.1-0.2-2.8-0.7s-1.5-1.3-1.9-2.3c-0.4-0.9-0.7-2.1-0.7-3.4s0.2-2.5,0.7-3.4
		c0.4-0.9,1.1-1.6,1.9-2.3c0.7-0.5,1.6-0.7,2.8-0.7s2.1,0.2,2.8,0.7c0.7,0.5,1.5,1.3,1.9,2.3c0.4,0.9,0.7,2.1,0.7,3.4
		s-0.2,2.5-0.7,3.4C112.7,36.4,111.9,37.1,111.1,37.5z"/>
	<path class="st0" d="M143.7,32.7c-0.5-0.7-1.5-1.3-2.5-1.6c-0.9-0.5-2.3-0.9-3.6-1.3c-1.1-0.4-2.1-0.5-2.7-0.7
		c-0.7-0.2-1.1-0.4-1.5-0.5c-0.4-0.2-0.5-0.4-0.7-0.7c-0.2-0.2-0.2-0.5-0.2-0.9c0-0.4,0-0.5,0.2-0.7c0.2-0.2,0.4-0.4,0.5-0.5
		c0.2-0.2,0.5-0.4,0.9-0.4s0.7-0.2,1.1-0.2c0.5,0,1.3,0.2,2.1,0.4c0.7,0.2,1.5,0.5,2.1,0.9c0.7,0.4,1.3,0.9,1.9,1.3l3.7-4.3
		c-0.7-0.7-1.6-1.3-2.8-1.9c-1.1-0.5-2.3-0.9-3.4-1.3c-1.1-0.4-2.5-0.4-3.7-0.4c-1.3,0-2.5,0.2-3.6,0.5s-2.3,0.9-3,1.5
		c-0.9,0.7-1.5,1.5-2.1,2.3c-0.5,0.9-0.7,1.9-0.7,3c0,0.9,0.2,1.9,0.5,2.7c0.4,0.7,0.7,1.5,1.3,2.1c0.7,0.7,1.5,1.3,2.7,1.6
		c1.1,0.5,2.3,0.9,3.7,1.3c0.9,0.2,1.9,0.5,2.5,0.7c0.5,0.2,1.1,0.4,1.3,0.5c0.5,0.4,0.7,0.7,0.7,1.3c0,0.4,0,0.5-0.2,0.7
		c-0.2,0.2-0.4,0.4-0.5,0.5c-0.2,0.2-0.5,0.4-0.7,0.4c-0.4,0-0.7,0.2-1.1,0.2c-1.1,0-2.3-0.2-3.4-0.5c-1.1-0.4-2.3-1.1-3.2-2.1
		l-4.3,3.7c1.1,1.3,2.5,2.3,4.3,3c1.9,0.7,3.9,1.1,6.2,1.1c1.9,0,3.6-0.4,5-0.9c1.5-0.7,2.7-1.6,3.6-2.8s1.3-2.7,1.3-4.1
		c0-0.7-0.2-1.5-0.4-2.3C144.5,33.8,144.1,33.2,143.7,32.7z"/>
	<path class="st0" d="M168.3,20.6c-1.3-0.7-2.8-1.1-4.5-1.1c-1.3,0-2.7,0.2-3.7,0.7c-1,0.5-2.3,1.3-3,2.1c-0.2,0.2-0.2,0.2-0.4,0.4
		V10.8h-7.1v33.3c0.4,0,0.9,0,1.5,0c0.5,0,1.3,0,2.3,0h3.6V29.7c0-0.5,0.2-1.1,0.4-1.5c0.2-0.5,0.5-0.9,0.9-1.3
		c0.4-0.4,0.9-0.7,1.3-0.9c0.5-0.2,1.1-0.4,1.6-0.4c0.7,0,1.5,0.2,2.1,0.4c0.5,0.4,0.9,0.7,1.3,1.5c0.2,0.5,0.4,1.5,0.4,2.5v14h7.3
		V29.3c0-2.1-0.4-3.9-0.9-5.2C170.4,22.5,169.4,21.4,168.3,20.6z"/>
	<polygon class="st0" points="187.2,14.1 180.1,14.1 180.1,20.1 175.8,20.1 175.8,26.5 180.1,26.5 180.1,44.1 187.2,44.1 
		187.2,26.5 191.8,26.5 191.8,20.1 187.2,20.1 	"/>
	<path class="st0" d="M211.9,23.1c-0.4-0.5-0.9-1.1-1.5-1.5c-0.7-0.5-1.5-1.1-2.5-1.3c-0.9-0.4-2.1-0.5-3.2-0.5
		c-2.1,0-3.9,0.5-5.7,1.6c-1.6,1.1-2.8,2.7-3.7,4.3c-0.9,1.9-1.3,3.9-1.3,6.4s0.4,4.5,1.3,6.4c0.9,1.9,2.3,3.4,3.7,4.5
		c1.5,1.1,3.4,1.6,5.4,1.6c1.1,0,2.1-0.2,3-0.5c0.9-0.4,1.9-0.7,2.7-1.3c0.5-0.4,1.1-0.9,1.5-1.5V44h7.3V20.1h-7.1L211.9,23.1
		L211.9,23.1z M211.4,35.4c-0.4,0.9-1.1,1.6-1.9,2.3c-0.7,0.5-1.6,0.7-2.8,0.7c-1.1,0-2.1-0.2-2.8-0.7c-0.7-0.5-1.5-1.3-1.9-2.3
		c-0.4-0.9-0.7-2.1-0.7-3.4c0-1.3,0.2-2.5,0.7-3.4c0.4-0.9,1.1-1.6,1.9-2.3c0.7-0.5,1.6-0.7,2.8-0.7c1.1,0,2.1,0.2,2.8,0.7
		c0.7,0.5,1.5,1.3,1.9,2.3c0.4,0.9,0.7,2.1,0.7,3.4C211.9,33.4,211.8,34.5,211.4,35.4z"/>
	<path class="st0" d="M242.4,20.1l-0.2,2.7c-0.2-0.2-0.4-0.4-0.7-0.7c-0.5-0.4-1.1-0.9-1.9-1.1c-0.7-0.4-1.5-0.5-2.3-0.7
		c-0.7-0.2-1.6-0.4-2.7-0.4c-2.1,0-3.9,0.5-5.7,1.6c-1.6,1.1-3,2.5-3.9,4.3s-1.5,3.9-1.5,6.4c0,2.3,0.5,4.5,1.5,6.2
		c0.9,1.9,2.3,3.2,3.9,4.1c1.6,0.9,3.6,1.5,5.8,1.5c1.3,0,2.7-0.2,3.7-0.7c1-0.5,2.3-1.1,3-1.9l0.2-0.2v1.3c0,1.3-0.2,2.5-0.7,3.4
		c-0.5,0.9-1.1,1.6-2.3,2.1c-0.9,0.4-2.3,0.7-3.7,0.7c-0.9,0-1.6,0-2.7-0.2c-0.7-0.2-1.6-0.4-2.5-0.7c-0.7-0.4-1.5-0.7-2.1-1.1
		l-2.5,5c1.1,0.9,2.8,1.6,4.7,2.3c1.9,0.5,3.9,0.9,5.8,0.9c2.1,0,3.7-0.2,5.4-0.7c1.5-0.5,3-1.3,4.1-2.5c1.1-1.1,2.1-2.5,2.7-3.9
		c0.5-1.5,0.9-3.2,0.9-5.2V20.1H242.4z M241.5,35.2c-0.4,0.9-1.1,1.6-2.1,2.3c-0.9,0.5-1.9,0.7-3,0.7c-1.1,0-2.1-0.2-3-0.7
		c-0.7-0.5-1.5-1.3-1.9-2.3c-0.4-0.9-0.7-2.1-0.7-3.4s0.2-2.5,0.7-3.4c0.4-0.9,1.1-1.6,1.9-2.3c0.7-0.5,1.9-0.7,3-0.7
		c1.1,0,2.3,0.2,3,0.7c0.9,0.5,1.5,1.3,2.1,2.3c0.4,0.9,0.7,2.1,0.7,3.4C242.3,33.2,242.1,34.3,241.5,35.2z"/>
</g>
<path class="st0" d="M45.4,3.5H4.7C2.2,3.5,0,5.5,0,8.1v40.6c0,2.6,2,4.6,4.6,4.6h40.6c2.6,0,4.6-2,4.6-4.6V8.1
	C49.9,5.5,47.9,3.5,45.4,3.5z M39.2,7.7c0,1.8,1.5,3.3,3.1,3.5c-1.6,0.4-3.1,1.8-3.1,3.5c0-1.8-1.5-3.3-3.1-3.5
	C37.9,11,39.2,9.5,39.2,7.7z M30.2,10.4c0.2,3.8,2.9,6.9,6.6,7.5c-3.6,0.5-6.4,3.6-6.6,7.5c-0.2-3.8-2.9-6.9-6.6-7.5
	C27.2,17.3,30.1,14.3,30.2,10.4z M41.5,43.2c0,0.9-0.4,2-0.7,2.7c-1.1,2.2-2.6,3.6-4.7,4.2h-0.2l0,0h-5.8h-1.5l0.5-1.3
	c0.2-0.5,0.4-1.1,0.4-1.6c0-1.1-0.5-2.2-1.3-3.1c-0.9-0.9-2-1.3-3.1-1.3l0,0c-2.6,0-4.6,2-4.6,4.6c0,0.5,0.2,1.1,0.2,1.6l0.4,1.3
	h-1.3H5.6H4.7v-1.1v-2.9v-0.9h0.9h10.2c0.4-2,1.3-3.6,2.7-4.9c1.5-1.3,3.3-2.2,5.3-2.4c0.4,0,0.9,0,1.3,0c2.2,0,4.2,0.7,5.8,2.2
	c1.6,1.3,2.7,3.3,3.3,5.3l0,0l0,0c0.2,0,0.4,0,0.5,0c1.1-0.2,2-1.3,2-2.7s0-2.7,0-4.2c0-0.9-0.2-2.4-2.4-2.9c-2.6-0.7-5.1-1.5-7.7-2
	l-0.9-0.2c-1.1-0.4-2-0.5-3.1-0.9c-0.4-0.2-0.9-0.4-1.1-0.7c-1.1-1.5-2.4-2.9-3.5-4.4c-0.7-0.9-1.5-2-2.2-2.9l0.1-0.2
	c-0.5-0.7-0.9-1.3-1.5-1.8c-0.9-0.9-2-1.5-3.5-1.5H9.7H5.8H4.7v-0.9v-3.1v-1.5h0.9h1.3H8h1.1c0.5,0,1.3,0,1.8,0s1.1,0,1.6,0.2
	c2.4,0.4,4.4,1.5,5.8,3.5c1.5,1.8,2.9,3.8,4.4,5.6c0.7,0.9,1.5,2,2.4,3.1c0,0,0,0,0.2,0.2c0.5,0.2,1.1,0.4,1.6,0.4
	c0.4,0,0.5,0.2,0.9,0.2c1.1,0.4,2,0.5,3.1,0.9c1.8,0.5,3.6,1.1,5.5,1.5c3.1,0.9,5.5,4,5.5,7.1c0,0.7,0,1.5,0,2.2
	C41.7,41.4,41.7,42.3,41.5,43.2z M39.9,29.9c0-1.8-1.5-3.3-3.1-3.5c1.6-0.4,3.1-1.8,3.1-3.5c0,1.8,1.5,3.3,3.1,3.5
	C41.4,26.8,39.9,28.3,39.9,29.9z"/>
</svg>
