<?xml version="1.0" encoding="utf-8"?>
<!-- Generator: Adobe Illustrator 28.1.0, SVG Export Plug-In . SVG Version: 6.00 Build 0)  -->
<svg version="1.1" id="Layer_1" xmlns="http://www.w3.org/2000/svg" xmlns:xlink="http://www.w3.org/1999/xlink" x="0px" y="0px"
	 viewBox="0 0 251.1 57.4" style="enable-background:new 0 0 251.1 57.4;" xml:space="preserve">
<style type="text/css">
	.st0{fill:#D0D0D0;}
</style>
<g>
	<polygon class="st0" points="81.4,35.8 76.6,24.8 72.2,24.8 67.9,35.8 63.8,21.5 56,21.5 64,45.9 69.3,45.9 74.5,33.5 79.5,45.9 
		84.9,45.9 93.3,21.5 85.4,21.5 	"/>
	<path class="st0" d="M112.8,24.5c-0.4-0.5-0.9-1.2-1.6-1.6c-0.7-0.5-1.6-1.2-2.5-1.4c-0.9-0.4-2.1-0.5-3.3-0.5
		c-2.1,0-4,0.5-5.8,1.7c-1.8,1.2-2.8,2.7-3.8,4.4c-0.9,1.9-1.4,4-1.4,6.5c0,2.5,0.4,4.6,1.4,6.5s2.3,3.5,3.8,4.6
		c1.5,1.2,3.5,1.7,5.6,1.7c1.2,0,2.1-0.2,3-0.5c0.9-0.4,1.9-0.7,2.7-1.4c0.5-0.4,1.2-0.9,1.6-1.6v2.8h7.5V21.5h-7.2V24.5z
		 M110.3,39.2c-0.7,0.5-1.7,0.7-2.8,0.7s-2.1-0.2-2.8-0.7c-0.7-0.5-1.6-1.4-1.9-2.3c-0.4-0.9-0.7-2.1-0.7-3.5c0-1.4,0.2-2.5,0.7-3.5
		c0.4-0.9,1.2-1.7,1.9-2.3c0.7-0.5,1.7-0.7,2.8-0.7s2.1,0.2,2.8,0.7s1.6,1.4,1.9,2.3c0.4,0.9,0.7,2.1,0.7,3.5c0,1.4-0.2,2.5-0.7,3.5
		C111.8,38.1,111,38.8,110.3,39.2z"/>
	<path class="st0" d="M143.5,34.3c-0.5-0.7-1.6-1.4-2.5-1.7c-0.9-0.5-2.3-0.9-3.7-1.4c-1.2-0.4-2.1-0.5-2.7-0.7
		c-0.7-0.2-1.2-0.4-1.6-0.5c-0.4-0.2-0.5-0.4-0.7-0.7c-0.2-0.2-0.2-0.5-0.2-0.9s0-0.5,0.2-0.7s0.4-0.4,0.5-0.5
		c0.2-0.2,0.5-0.4,0.9-0.4s0.7-0.2,1.2-0.2c0.5,0,1.4,0.2,2.1,0.4c0.7,0.2,1.6,0.5,2.1,0.9c0.7,0.4,1.4,0.9,1.9,1.4l3.8-4.4
		c-0.7-0.7-1.7-1.4-2.8-1.9s-2.3-0.9-3.5-1.4c-1.2-0.4-2.5-0.4-3.8-0.4c-1.4,0-2.5,0.2-3.7,0.5s-2.3,0.9-3,1.6
		c-0.9,0.7-1.6,1.6-2.1,2.3c-0.5,0.9-0.7,1.9-0.7,3c0,0.9,0.2,1.9,0.5,2.7c0.4,0.7,0.7,1.6,1.4,2.1c0.7,0.7,1.6,1.4,2.7,1.7
		c1.2,0.5,2.3,0.9,3.8,1.4c0.9,0.2,1.9,0.5,2.5,0.7c0.5,0.2,1.2,0.4,1.4,0.5c0.5,0.4,0.7,0.7,0.7,1.4c0,0.4,0,0.5-0.2,0.7
		s-0.4,0.4-0.5,0.5c-0.2,0.2-0.5,0.4-0.7,0.4c-0.4,0-0.7,0.2-1.2,0.2c-1.2,0-2.3-0.2-3.5-0.5c-1.2-0.4-2.3-1.2-3.3-2.1l-4.4,3.8
		c1.2,1.4,2.5,2.3,4.4,3c1.9,0.7,4,1.2,6.3,1.2c1.9,0,3.7-0.4,5.1-0.9c1.6-0.7,2.7-1.7,3.7-2.8c0.9-1.2,1.4-2.7,1.4-4.2
		c0-0.7-0.2-1.6-0.4-2.3C144.3,35.4,143.9,34.8,143.5,34.3z"/>
	<path class="st0" d="M168.6,22c-1.4-0.7-2.8-1.2-4.6-1.2c-1.4,0-2.7,0.2-3.8,0.7s-2.3,1.4-3,2.1c-0.2,0.2-0.2,0.2-0.4,0.4V11.9
		h-7.2v34c0.4,0,0.9,0,1.6,0c0.5,0,1.4,0,2.3,0h3.7V31.2c0-0.5,0.2-1.2,0.4-1.6c0.2-0.5,0.5-0.9,0.9-1.4c0.4-0.4,0.9-0.7,1.4-0.9
		c0.5-0.2,1.2-0.4,1.7-0.4c0.7,0,1.6,0.2,2.1,0.4c0.5,0.4,0.9,0.7,1.4,1.6c0.2,0.5,0.4,1.6,0.4,2.5v14.3h7.5V30.8
		c0-2.1-0.4-4-0.9-5.4C170.7,23.9,169.8,22.7,168.6,22z"/>
	<polygon class="st0" points="187.9,15.3 180.7,15.3 180.7,21.5 176.3,21.5 176.3,28 180.7,28 180.7,45.9 187.9,45.9 187.9,28 
		192.6,28 192.6,21.5 187.9,21.5 	"/>
	<path class="st0" d="M213.1,24.5c-0.4-0.5-0.9-1.2-1.6-1.6c-0.7-0.5-1.6-1.2-2.5-1.4c-0.9-0.4-2.1-0.5-3.3-0.5
		c-2.1,0-4,0.5-5.8,1.7c-1.7,1.2-2.8,2.7-3.8,4.4c-0.9,1.9-1.4,4-1.4,6.5c0,2.5,0.4,4.6,1.4,6.5s2.3,3.5,3.8,4.6
		c1.6,1.2,3.5,1.7,5.6,1.7c1.2,0,2.1-0.2,3-0.5c0.9-0.4,1.9-0.7,2.7-1.4c0.5-0.4,1.2-0.9,1.6-1.6v2.8h7.5V21.5h-7.2L213.1,24.5
		L213.1,24.5z M212.6,37.1c-0.4,0.9-1.2,1.7-1.9,2.3c-0.7,0.5-1.7,0.7-2.8,0.7c-1.2,0-2.1-0.2-2.8-0.7c-0.7-0.5-1.6-1.4-1.9-2.3
		c-0.4-0.9-0.7-2.1-0.7-3.5c0-1.4,0.2-2.5,0.7-3.5c0.4-0.9,1.2-1.7,1.9-2.3c0.7-0.5,1.7-0.7,2.8-0.7c1.2,0,2.1,0.2,2.8,0.7
		c0.7,0.5,1.6,1.4,1.9,2.3c0.4,0.9,0.7,2.1,0.7,3.5C213.1,35,213,36.2,212.6,37.1z"/>
	<path class="st0" d="M244.3,21.5l-0.2,2.7c-0.2-0.2-0.4-0.4-0.7-0.7c-0.5-0.4-1.2-0.9-1.9-1.2c-0.7-0.4-1.6-0.5-2.3-0.7
		c-0.7-0.2-1.7-0.4-2.7-0.4c-2.1,0-4,0.5-5.8,1.7c-1.7,1.2-3,2.5-4,4.4s-1.6,4-1.6,6.5c0,2.3,0.5,4.6,1.6,6.3c0.9,1.9,2.3,3.3,4,4.2
		c1.7,0.9,3.7,1.6,5.9,1.6c1.4,0,2.7-0.2,3.8-0.7c1-0.5,2.3-1.2,3-1.9l0.2-0.2v1.4c0,1.4-0.2,2.5-0.7,3.5c-0.5,0.9-1.2,1.7-2.3,2.1
		c-0.9,0.4-2.3,0.7-3.8,0.7c-0.9,0-1.7,0-2.7-0.2c-0.7-0.2-1.7-0.4-2.5-0.7c-0.7-0.4-1.6-0.7-2.1-1.2l-2.5,5.1
		c1.2,0.9,2.8,1.7,4.8,2.3c1.9,0.5,4,0.9,5.9,0.9c2.1,0,3.8-0.2,5.6-0.7c1.6-0.5,3-1.4,4.2-2.5c1.2-1.2,2.1-2.5,2.7-4
		c0.5-1.6,0.9-3.3,0.9-5.4V21.5H244.3z M243.3,36.9c-0.4,0.9-1.2,1.7-2.1,2.3c-0.9,0.5-1.9,0.7-3,0.7c-1.2,0-2.1-0.2-3-0.7
		c-0.7-0.5-1.6-1.4-1.9-2.3c-0.4-0.9-0.7-2.1-0.7-3.5c0-1.4,0.2-2.5,0.7-3.5c0.4-0.9,1.2-1.7,1.9-2.3c0.7-0.5,1.9-0.7,3-0.7
		c1.2,0,2.3,0.2,3,0.7c0.9,0.5,1.6,1.4,2.1,2.3c0.4,0.9,0.7,2.1,0.7,3.5C244.2,34.8,244,36,243.3,36.9z"/>
</g>
<path class="st0" d="M45.4,3.5H4.7C2.2,3.5,0,5.5,0,8.1v40.6c0,2.6,2,4.6,4.6,4.6h40.6c2.6,0,4.6-2,4.6-4.6V8.1
	C49.9,5.5,47.9,3.5,45.4,3.5z M39.2,7.7c0,1.8,1.5,3.3,3.1,3.5c-1.6,0.4-3.1,1.8-3.1,3.5c0-1.8-1.5-3.3-3.1-3.5
	C37.9,11,39.2,9.5,39.2,7.7z M30.2,10.4c0.2,3.8,2.9,6.9,6.6,7.5c-3.6,0.5-6.4,3.6-6.6,7.5c-0.2-3.8-2.9-6.9-6.6-7.5
	C27.2,17.3,30.1,14.3,30.2,10.4z M41.5,43.2c0,0.9-0.4,2-0.7,2.7c-1.1,2.2-2.6,3.6-4.7,4.2h-0.2l0,0h-5.8h-1.5l0.5-1.3
	c0.2-0.5,0.4-1.1,0.4-1.6c0-1.1-0.5-2.2-1.3-3.1c-0.9-0.9-2-1.3-3.1-1.3l0,0c-2.6,0-4.6,2-4.6,4.6c0,0.5,0.2,1.1,0.2,1.6l0.4,1.3
	h-1.3H5.6H4.7v-1.1v-2.9v-0.9h0.9h10.2c0.4-2,1.3-3.6,2.7-4.9c1.5-1.3,3.3-2.2,5.3-2.4c0.4,0,0.9,0,1.3,0c2.2,0,4.2,0.7,5.8,2.2
	c1.6,1.3,2.7,3.3,3.3,5.3l0,0l0,0c0.2,0,0.4,0,0.5,0c1.1-0.2,2-1.3,2-2.7s0-2.7,0-4.2c0-0.9-0.2-2.4-2.4-2.9c-2.6-0.7-5.1-1.5-7.7-2
	l-0.9-0.2c-1.1-0.4-2-0.5-3.1-0.9c-0.4-0.2-0.9-0.4-1.1-0.7c-1.1-1.5-2.4-2.9-3.5-4.4c-0.7-0.9-1.5-2-2.2-2.9l0.1-0.2
	c-0.5-0.7-0.9-1.3-1.5-1.8c-0.9-0.9-2-1.5-3.5-1.5H9.7H5.8H4.7v-0.9v-3.1v-1.5h0.9h1.3H8h1.1c0.5,0,1.3,0,1.8,0s1.1,0,1.6,0.2
	c2.4,0.4,4.4,1.5,5.8,3.5c1.5,1.8,2.9,3.8,4.4,5.6c0.7,0.9,1.5,2,2.4,3.1c0,0,0,0,0.2,0.2c0.5,0.2,1.1,0.4,1.6,0.4
	c0.4,0,0.5,0.2,0.9,0.2c1.1,0.4,2,0.5,3.1,0.9c1.8,0.5,3.6,1.1,5.5,1.5c3.1,0.9,5.5,4,5.5,7.1c0,0.7,0,1.5,0,2.2
	C41.7,41.4,41.7,42.3,41.5,43.2z M39.9,29.9c0-1.8-1.5-3.3-3.1-3.5c1.6-0.4,3.1-1.8,3.1-3.5c0,1.8,1.5,3.3,3.1,3.5
	C41.4,26.8,39.9,28.3,39.9,29.9z"/>
</svg>
